<mxfile host="www.draw.io" modified="2019-12-18T13:53:11.098Z" agent="Mozilla/5.0 (Windows NT 10.0; Win64; x64) AppleWebKit/537.36 (KHTML, like Gecko) Chrome/79.0.3945.79 Safari/537.36" etag="PvuWOnvyVXMQrdBr60my" version="12.4.3" type="github" pages="1">
  <diagram id="c7eaGqdFWQdhfxmle8CJ" name="Page-1">
    <mxGraphModel dx="1656" dy="880" grid="1" gridSize="10" guides="1" tooltips="1" connect="1" arrows="1" fold="1" page="1" pageScale="1" pageWidth="2336" pageHeight="1654" background="#ffffff" math="0" shadow="0">
      <root>
        <mxCell id="0"/>
        <mxCell id="1" parent="0"/>
        <mxCell id="HDc9Nho8ilmy6_pK3tJT-23" value="" style="rounded=1;whiteSpace=wrap;html=1;fillColor=none;fontFamily=Tahoma;fontSize=25;fontColor=#4D4D4D;" vertex="1" parent="1">
          <mxGeometry x="10" y="260" width="530" height="250" as="geometry"/>
        </mxCell>
        <mxCell id="uaUtL9xpVAdAa3rIVJZg-16" style="edgeStyle=orthogonalEdgeStyle;orthogonalLoop=1;jettySize=auto;html=1;dashed=1;strokeWidth=6;strokeColor=#FF804A;dashPattern=1 2;comic=1;curved=1;exitX=0.5;exitY=1;exitDx=0;exitDy=0;" parent="1" source="HDc9Nho8ilmy6_pK3tJT-7" target="uaUtL9xpVAdAa3rIVJZg-20" edge="1">
          <mxGeometry relative="1" as="geometry">
            <mxPoint x="160" y="390" as="targetPoint"/>
            <mxPoint x="160" y="240" as="sourcePoint"/>
          </mxGeometry>
        </mxCell>
        <mxCell id="uaUtL9xpVAdAa3rIVJZg-23" style="edgeStyle=orthogonalEdgeStyle;orthogonalLoop=1;jettySize=auto;html=1;dashed=1;strokeColor=#FF804A;strokeWidth=6;fontFamily=Tahoma;fontSize=25;fontColor=#4D4D4D;dashPattern=1 2;entryX=0.5;entryY=0;entryDx=0;entryDy=0;comic=1;curved=1;" parent="1" source="uaUtL9xpVAdAa3rIVJZg-20" target="uaUtL9xpVAdAa3rIVJZg-24" edge="1">
          <mxGeometry relative="1" as="geometry">
            <mxPoint x="160.0050000000001" y="880" as="targetPoint"/>
          </mxGeometry>
        </mxCell>
        <mxCell id="HDc9Nho8ilmy6_pK3tJT-6" style="edgeStyle=orthogonalEdgeStyle;curved=1;comic=1;orthogonalLoop=1;jettySize=auto;html=1;exitX=0.5;exitY=1;exitDx=0;exitDy=0;entryX=0.5;entryY=0;entryDx=0;entryDy=0;dashed=1;dashPattern=1 2;strokeColor=#0370FF;strokeWidth=6;" edge="1" parent="1" source="uaUtL9xpVAdAa3rIVJZg-13" target="uaUtL9xpVAdAa3rIVJZg-45">
          <mxGeometry relative="1" as="geometry"/>
        </mxCell>
        <mxCell id="uaUtL9xpVAdAa3rIVJZg-13" value="Teva Websites&#xa;Portals" style="shape=image;verticalLabelPosition=bottom;labelBackgroundColor=#ffffff;verticalAlign=top;aspect=fixed;imageAspect=0;image=data:image/png,iVBORw0KGgoAAAANSUhEUgAAAEUAAAAmCAYAAACS7VbdAAAJFUlEQVRoBd1a+ZNdRRWef8Nf1B+sMgnZBLPN8gMyM0kISSazBE0IaiHFMmASccGFRKMVCmWJgYCWioSgFipoLISCEgFBJECKWFDRyGpwDSAGMcYl/VFfnz7dp/v1fW+YjFaZqXpz7+3us33nO6f7vpkujPXiRPi4EIcb7YF+EO55xWh3+HC+u4jZznej60QAZGpiSMB0KYJEd2qU/58zb5RMUVqdIGV0vIllaQVQOrBEgdPrWLk+1GmYp2L9KOjpmTRNde8Z6mtexicfFH0q/SJra2Nt2ExQ6Gw7QXFam1S4lqzKGlm+1uv3YIWgfZmGABTkNqXrGFQELQc76VabJTDlcxswNKbRnsAUHSivtWBryEeGvMmsjPXCB13aNc8CigadX6UPtrPZbq4BIA9KLUjvFDOUO+GfjcOR6sqE2tyUjRnGNPrcEKjGk/nSAJiA0qBowoAY8DKjDXr/W2valCCTF3taLMfyrKL+snxqTkZAFE1e9V6FwzWubd+bqna87bxJk415r6jbZlmxfGKw9KMWC8esj7X7LLYKKNGhbGEBRDRuWJIZawAwyhl9tb6V6bLNVUuoUtaUqepvWJvZsP6WoEQH7SINoDIW1xvDI4uAFacAp88BzngXMLwoOCuZ9TuJdV6do9xyys0Gls0FhhdIhuPahgSsWiDrKR/XKosbZNRmvNrYSlB8vbVBvGRPVBpKZ+W7fVDugmG4TeNwH/+glN3SWYbC1gE635NAvHAE2DwOfOwDUkIEaHVfCra0t/xk0fvR98NxXdZXaEdtCTixCqyeeJ9YWPSUMFEi7sFSA3kWfE1zfuksuDWnwt1/Fxzkh1f3+4NwW9YDS2cHJ40eBrJkFtza0+B+drcXirIvPg932QUCsu8fho20t2Qm3Fmnwe3b4+25L14abASgIyDqr5GPQLSOMZ5WUFoACUqz8YKWA9OB8VG4g88JGo8+AHxhI/C1K4HX/grnjsFdcraUk3V2YAbcxWfC/e4FAeQXP4XbsgHu5uvgjh0D/v0vuItW+7JKJ99uYGAa3Po1cIf+KPb4e8dWYPGMdNBr528DKMqkLk9PZmzCH5MJ1vHANAHg6BFx8LfPAKR139uBU98BPP6QjN92EzA4Q9ji5aYDWy8B/nlU5p8/ACybAwxOB3rfCuzcLuPf/TqweKb4x/JgAq74BHDsP0HuN3K99vOePbFkqvHYBGt59QCre1P8Y70lU6xQ5T421h5gaB4weBLwjavFKf52Dti3RwBZ1w/31F4/5/Y+DJw9CKyaD6ycByw+Cbjpy7kcwfO9R0oDX/qkzP/wFgFlaL6U2q4dMn7k73Ab1wI3bpPna7eIXmVBxpRKLH4+HAeytS2NtoMwDZL+3FXYVO++XRxi2TB7BOWxB+HOX5WofcetcFzPHYnXoXlwP9ktci88neR++ajME/gls4BrNsmaH+wC+t4Gt2oB3H0/9mPu4LPeBha8BfjejbJu++dyUAI46VXA9LIAQnyFsKA0H/O1Z6SOLEd8AjIXWNcPPPm4OPPEI8DwQuCcZfL8yiE4LYmvXCHlQIYsmenZ4vY/Iev2/lzYdu4KebagsCkrKLt2wHF7PvCkX+f2PCBU5xoyLgNlZtjlQuJ4LGDymEhlUPaGHhqtBWXMM6UVwaSg6M4rTpEM/e2wBHLHrdI/WOfr3ydj/H3kdWDTONA/TQBjY2SjffnPsuZH3xZWUG7jWTJGUJbN9adUD+DVl8n4Yw8Bf3jR37vbd0rfYc9ioOxRFhQCz+D7p8FtHod7+F64D79XgPEsN5VgQCrPN12xMUW0Aqp2l9BeQgqvfQ9w/53AzdeJU0Pz4ejkhjUSBHcEsoYO82BFB6/8lJQWV1y/VZole4SXWytyARQNCtxizY/bvkWaOlmnAdHG978pq7ZtlvnBGXDbPpskWdZkTBMoNs6AQQsosvUVBzgFhQpIZZ442R+8c2y684F1A8DRfwCHX4U7bwiu/50S9He+Kg6+/hrcZ84HOM7dh7LUsaEAhWWx/GS4B+8Rub+8BFz6IQFX5QIojkxjz+HPVZ+GY+9RkA6/KnKePZroClMiGdJcV7YdcRvzyHGbarNNU5HOe6U9cjy/4XJxkL/Zc/Qc8dwB4LyV0gOi/l5pvh8x5cPM774FIBD8OfAUcM4ZQY5O2220T5Kju9Qrh4BnfiVyT+83coVM9LvYinV8dV+5JYctqqRaBU3/JwXzluoPPjzVbr4IbIbupT/BPftruF3XyzmAFGZQyi7q5LuO9hRu5exBj9wHUG7ndjnqk5VRThtj6IOjAqy74XJwR8LLh4Dd3xIbPPO0yCU2CMD2Od0XJ1p9zc6bLwGQb8gYlHz88T4EKPNB6elz4JbOli2UPYM7hO8DCkgKzBGUonzcyEIpO5ULR3w9bYpd4x8Tw1cF9raRRenevBqobNlQm57roGTMMOwJtSzZTsFVlY90p95Rk+PY8kpP4fYee4cJPvoUEuNLKWUX3l7RC61MvDcyDWOtoJQLi4Ai6nG85nhuOGdZ2ub9oU57yv59aZfwujvrrSaj9H8Szx1AUcrTQXVSx1JwaS4Ho+q07mT8ho2n3PExgP2Ap9y4o5UZb2DHJAKu+lToaQuK/n22VVEOjNS5gCRMUgAFJGFKACwyLIHqhhf6fsCylGO5BTe35Uu3CKLVP7Vr9Uz8vi0oTcbKrt6xpCpAZH3Jg7LQsNEE0CibA1/zNUtGI5C5HialIyheMSmfKQ10Dg5noMQym0hgiS2tJVhhSA2gzC9js9O4KeMsttYvmaxScapWDqUSoX0I0DgjgNqyMiBk39rnoMdEhHNQxioPDNfnMplPxofG8QJgm9gqU+JRPzpgwSrv7ZZdc1TGhMo5wyTYmkxhwwJ4vGAoYAUoFvhWUFoWl04HWqvy/8lVvwwqfeFhk2OV8bZ+1ZKTWFyAEgLOgCkM+losxto6UGR9UmtribC+Ho8/lunyN6YcFNt8FJhJBTEVQBQ6PCPsWAJF+0HzEcLKVe411lCmXYl+yUisrzdNy4rBqQK1sUzIkuNhivqc4k//yWTQUlCYATZd/XQyruvKK+XsjsJEZI2XQakd/yInNq0fet/Jh8bdZiLJCZXyBhE5Fm4ya9ZRAAAAAElFTkSuQmCC;labelBorderColor=#757575;imageBorder=#757575;fontStyle=1;fontColor=#4D4D4D;fontSize=25;" parent="1" vertex="1">
          <mxGeometry x="941.5499999999998" y="310" width="199.74" height="110" as="geometry"/>
        </mxCell>
        <mxCell id="uaUtL9xpVAdAa3rIVJZg-71" style="edgeStyle=orthogonalEdgeStyle;curved=1;comic=1;orthogonalLoop=1;jettySize=auto;html=1;exitX=0.25;exitY=0;exitDx=0;exitDy=0;shadow=0;dashed=1;dashPattern=1 2;endArrow=none;endFill=0;strokeColor=#006600;strokeWidth=6;fontFamily=Tahoma;fontSize=25;fontColor=#4D4D4D;" parent="1" source="uaUtL9xpVAdAa3rIVJZg-14" target="uaUtL9xpVAdAa3rIVJZg-70" edge="1">
          <mxGeometry relative="1" as="geometry"/>
        </mxCell>
        <mxCell id="uaUtL9xpVAdAa3rIVJZg-129" style="edgeStyle=orthogonalEdgeStyle;curved=1;comic=1;orthogonalLoop=1;jettySize=auto;html=1;exitX=1;exitY=0.75;exitDx=0;exitDy=0;entryX=0;entryY=0.7;entryDx=0;entryDy=0;dashed=1;dashPattern=1 2;endArrow=block;endFill=1;strokeColor=#FF804A;strokeWidth=6;fontSize=12;" parent="1" source="uaUtL9xpVAdAa3rIVJZg-14" target="uaUtL9xpVAdAa3rIVJZg-93" edge="1">
          <mxGeometry relative="1" as="geometry"/>
        </mxCell>
        <mxCell id="HDc9Nho8ilmy6_pK3tJT-20" style="edgeStyle=orthogonalEdgeStyle;curved=1;comic=1;orthogonalLoop=1;jettySize=auto;html=1;exitX=0.5;exitY=1;exitDx=0;exitDy=0;entryX=0.5;entryY=0;entryDx=0;entryDy=0;shadow=0;dashed=1;dashPattern=1 2;strokeColor=#0370FF;strokeWidth=6;fontFamily=Tahoma;fontSize=25;fontColor=#4D4D4D;" edge="1" parent="1" source="uaUtL9xpVAdAa3rIVJZg-14" target="HDc9Nho8ilmy6_pK3tJT-19">
          <mxGeometry relative="1" as="geometry"/>
        </mxCell>
        <mxCell id="uaUtL9xpVAdAa3rIVJZg-14" value="Marketing Automation&#xa;Marketing Cloud" style="shape=image;verticalLabelPosition=bottom;labelBackgroundColor=#ffffff;verticalAlign=top;aspect=fixed;imageAspect=0;image=data:image/png,iVBORw0KGgoAAAANSUhEUgAAAQ4AAADcCAYAAACBME81AAAgAElEQVR4Ae1dCXhkRbWefdgFF0D0Kai4goIKissTFBVBUXi4IU8UEdT3ns+nT0Rx94k7LghMlu5k9n3fmX1jhtmZGZi97+1O7510kk46vff/vr/ureR2p9NJJ52tU/19N/fmLnWr/qrz33NOnaoaB/VTCCgEFAIlIjCuxPvV7QoBhYBCAIo4VCNQCCgESkZAEUfJkKkHFAIKAUUcqg0oBBQCJSOgiKNkyNQDCgGFgCIO1QYUAgqBkhFQxFEyZOoBhYBCQBGHagMKAYVAyQgo4igZMvWAQkAhoIhDtQGFgEKgZAQUcZQMmXpAIaAQUMSh2oBCQCFQMgKKOEqGTD2gEFAIKOJQbUAhoBAoGQFFHFbIshnzvzSA/m5AJiPTsSaujhUClYPAGCcOkgN/FPQM0qkEWgGcSQMnUsDJdN833u83UwNSnWnyVDot39N5gzpQCIxqBMYgcUghzqA1FoObRJEBzmaBuXoHvrTFj/csceP6RW5cv7iP2yI3rlvoxm3rfHjqxWYcak3jTBbQOptG0iQSIJ2S7++8qA4UAqMOgTFBHJnOL34GoWgcHgCOLPCXF1tx8yoP3rvIgxuWeHDVfDfG1TkxrlrDuKoSt2kOjLPpuGKeSxDPexd7cOMyD364L4RDLSk4AZA+DG2Ee2XOjDppURnuRKCiiSOb6fq60wQhWfz4YDM+vMKDG5d4cOkcF8bVaBg3zSSJGt0gjulOjJvRj63eiXG1ZlpMs1rDBbOceO9SN25a4sbDz4VwOJJGI4C2WNysBEUgna1RHYwaBCqSODIp+hiMXwuAXYEO3LXBh/ctcePCWS5Do6Bg23SMs5IEj8uxSdJhWnbd0F6mOTB5uhPvW+rBJ9d48cTxNngBNHXEzJyOHALpcu5mAZS6sTgjpywmuGpXZgQqkDiMRksN41l3Oz673o93L/ZgXK1uaBYUZEkW5SCJvqQhiYTvpklTreFVs134yAoPfnqoBQFqIHFTA7FoSWWu616SI0Hwx72hqYUB+ErcmoU2lTDJQ5IOe5q6tD/zRWo3ihGoIOIwCIONfW8ogbs2+vDORW6Mo/lB7YJmBAW4L4I+mPfIPJDIqjScN8OJW1d78ccXI2gXDcnwhAxtT0wWrfEEQoDYHHHgH8eahbP35hUe3Lyy79un1/vw9+NtggxpkgVNKkKW5TLIaWjLNoqlcwRnfdQTR7bT8QnhgPzi5iDet9RtaBh0cI4UwuiJjGguVWm4ZKYT923x44XmuOjMFep+usvkKlsb6vzyZxCOxdEEgFrC30514NZVHnx8lQcfW+XFFfMaukw6Em9ftxodl89xiTQ+scqLW1d58d09IbzYEhfvMejdKJfSQspWq0Oe0OgmDtOX0QZgpR7BLWu8XY19pBNGPpHQqWrX8aHlXnxjexBaO1V7ipkhagNvGWY64ssPEa/yhxPtuG2VB3es8eJVc12GGUVTiiTB/DCP0szq6564kwwtRDN5hgs3r/LijjU+fHtXAEebYjAMM0MDUQQy8Nod6hRGJXFks2xwhiAcCMVwzyY/3rGQWoaGcXX6yDBJ8omhL/9T6ChwNTq+sMmPk5EU0hnDdLFqVqU0kk6hzCaFocCu4R88H8Kda724ZLYL454mURhdyTkk0Zf8FrvHSjTs4qb2N03D+HodN6/w4v4tARwIdUC6hlmmzryWUkB177AgMPqIw0Ia+0MduGWNz2iUjL0o1pBHyzUKHJ2otRpuX+fF3LNtZvyHkKwSG0kXwT7fmMB/PRfCh1Z4MIVYkDCoGUgBH2x85HtIIs8Y5PihFV58dUsAe4NRC4EoJ2qJlTwst48y4qAgGOrtDl8U/7rKNE2oZQx2wx/q9FmmGg1vWODGgztDcLSb/o6+jIMx72mNx+GMZfHY/ka8f5kHEyi01C5ITBTkoS6TfB/fLbWrah0fXO7Bv28J4FhYxrYA1hicYZEM9dKiCIwK4jBME5bDME8WOCJ43wqSho5x9RVIGlLAKFzsfbHpuGeTz0Iexb7KJFbj+m+PtuLOdT6cS0ElYYw0M85KIFUabl3jwezTEeF/Ea2WjlyhYRZtw+riMCAwOojD8pV95qVmvHVxg9HNSsGSQlbJe2oI1Tru3uSHQzhNqXjlOk1lWH0qlYQnlsWje0M4j5jQLBhuDaMvdcO6rNbwhvlufHlLCEcaO8zw/NxyDoOMqFcWQGBUEAfNk1gqgyePt+JK4QSlpjFGSEMKnd0pyPKujX5o0mwxySNLYs0apsxCvR1f3hzAZGpismdEpjEa9oy7qW3Ax9f5sDcUQyIt4z8ME7VAG1anhgGBUUIcwOzTrbhqrJKGFHiTPO7e6IfeZgiU8AVkE2hJAT87GMbVMuiNWoZ8brTt6Yup1XDb1lbMPttmdt0aWlaX2ToM0qJe2YnAiCUO0UBM+3anL4rrlplh42NN08gXegpVjY4vbg7A12Y4E9uSKTy6r9HoLeGgvUrAiGWo1fGGhW48ui8MZ4Rh7PwpzcMEYlh3I5Y4pFPsQGMHPsouVxmjkS9IY/F/ah71On53OIyG9jh+cbAJU4WgVQhpWOvUpuO8GS48sCMILWL2uvCDopymijjyEaD6ze/KseYkPrHWZ0SDVmKXq1VASjk2NYqrFrlF8Nt5HPHLmIxK0DQK4WDXMaFexwM7Amiwkkd+w1H/DxkCI07jEL0D2TTcbUnc+1zE6D1RpFHYXyF6WxgtOwYcxXanmJbgR/sa0RozHMHCKTxkoqJeZEVgxBGHtGHnOdqMGA1FGoVJo9CXuZLPUZuyO3HZvAbMPctJE/hT/g4TiCHfjSDiyHKwAugUfbE5gds3BI34g0oO8KpkQR+MspE8bDpuWunF/oAxCcHwk8fYJK8RQxxigFM2DW80iW/si2JcjdOIdByMBqjSHL1aDMmjRsen1vlwLBxDhnKbzYoPTp8+u9k0kpksIqkE2gawRZIJdKSzQFr29vTp7RVz04ggDmoZ2WwG6WwWC862YiIFW5koo1e4B5uYTfK4Y50PJ5qN8bVsPwV/mRQ6Uhm0JRNoTyXgbo9j5tl2PLo/jJ9wO9DSr+1He8N44mgE7nYjXaYfTWVMIql8LWRkEIc5ucyJcAfu2hw0ewhGcQDTYAuOSr9zNvrq45yGiL8u4siaZNGRSuBQYzv++mIEPz3Ygl8fbsE3dzXh9QvcGF/tMLYaDeP7s1U58LLpTnxtRwi/OtyCnx5owR+PRHCihQSSEGSFzqhXQysyM1oRu+EnDtEnb1R6/ckWjOegLqVtKG2jN3IUzlIdt67z4YUg/R1JZNIJxNIJbPZE8PujETx+JILPbg7ighlOTKjWMIEEIeKBzNG5TGMgW51TpDehVhPpn1+n4982B/HLQ63407E2HGyiOZNEPJ0BUpVl0gw7ccjh08dCUXAcBj3nFT3itTeBUNf7Tpr1TlBoH94ZhCOSwHpPDH85FsGH1voxyaZhUo2O8YxvYXe13EgU5cSY6cm0SSQ2HZOqdZxj13HbhgB++UIEfz/eDn9HCgk6ZNJy6oDRbc4MO3EgawwBrz8VwURRycpEKWvDLqeQjMS06px4+ZwG3L0pgLcu8WAKB8nJdkTNtdxE0RsGgkgMshpv1zG5Rsf59U48sD2IJ0+0wRVNIUnTPCUJZHRaLsNKHMYArTQ87Ul872jC0DaUmVLeL2JvDb0SrtfrmMBgOGqrw0EWPWHYSSI6JtbqOM+u496tAfztRBu8HWmkhEOXc450+WdGC40MK3HAdIrOPt2CC+dw+UWlbShto5+mBIV0qLWLngij0Hm27TpdaNXn2nV8dVsAT5+KokUo3KPPbBkRxPHUyXaMs5kTDRcCXZ1TWkiltAH6Q+w6Jtl0nG/X8dDOILaHkogljUmpGQQ5Gn7DRhzGOIMs9gei+OSzflPFVBqH0jj6qXGMNmKhBmLTMcWu47plbvzmWDsigjNERNuI545hIw5ppjx5LIzJNhXwpQhjjBBGPsGZBHKezdA+zkRJHOacsiN46oBhJ46/v9hsTMir/BvKHMkXqrHyP30zpvbxmWf9qNPi4IyrYhzOCHWcDgtxyIV3OLfCw8+FjMFsijgUcYwVouipnHYdE+06LpnZgId3BdFkrogxEictGhbiyJprorI35dL5Dao3paeGpM6PPTI1TZepNh3f2B5Ao2m1jLQu22EhDunf+MORcFewjhKSsSckqs57rnObDkke4RFIHsNKHH85qohDOUXHqFO0L6QpyWNHAI2yl3aE+DyGlTgeP9yk/Bt9aUDqnp6/zJWOjd3QPB7YHkDTCCKPIScOI8w8C3ckhq/vMGf5YlBMpTcAVT5Vx/1tA9Q8anU82Kl5cLY8ab8MT8jH0BOH6Rhd4WjFm5eaYeYjOVS4v5WtnlNEUc42YJotP3whDncHu1syw0oeQ04ckimfOBrGRHqQVTesErByClilpsUFum06Lp7lw4/3NSEQjRuD44YpRH3YiON39G+o8SmKNCpV0AerXNUOvG5FMxY6jRAx+SEeaoNl2IjjDy+ElWN0sBqXSrdyCZlmfa2Oz++OQheLj3PB8aH3dyjiUEJWuUJWqXVb58Qlc4N4aGcjzrYMj8miiKNSG5cqV2UTYo2GS+c14omXzFEtGRmfPjRGiyIOJWCVLWCVXL9VDly3zIOjTZyGkAtxy0CPwScPRRyV3LBU2SqXFOnrqHdikp3xHUGE5FweQ0QeijiUcFWucI2Fuq3VcXG9E0+/GDbUjCFylCriGAuNS5WxcsmRmkeVhs9s9ONshGu3GGswD7axMmzEoeI4VJi9GmZQhjZA4mAvy3QnnjjcNGRax7ARxz+ONWEKV6JXkaOV+zVUms7Q1e0zDty+3g9Nah2DPO3gkBNHVqynCTzrasW7lnvMSYrLwLyqkQ5dI1VYjyysTa3j5TOc+LPUOga5e3boiYNe32wWoWgS3+qcNlARh1LbVRsYcBt4xoHPPutHoINLLWRhrCQwON6OIScOUQxzSLAKO1fCMmBhUdqPof1Q67A7ccXcBnAAqVXOBoM6hpU4/qxmABtZKq8SwtFfH9Mc+MrWoMkVgzeGZXiIw+xrfkZLYlytWsGt4r66HAJu3RQhDR0h1Wj41AY/XO00Vwy3QMVoHMYs51msdrXh2tVNle8gpRopNq6ebm6VJkwkCpaJK8VXa7kbF4SutPKO1PLU6bh4phO/3N9o8MUgBYQNi8aRSaeBTAptyQweP5mq/OH1wv7kaupaZc5BQjKs0YT2eOEMF14/twFXznHhyrku/MscFy4gqRCDkSpslZavpx348ib/oJorw0IcokSmg5TxHKLRVWo8R70TL5/nwo2rvXjfah9uWu3Dm5d6MIGNtRKEifVm0/HKGU5cs9iNH+5vxiJXFIudUSx1RTFPi+Lh3U24YLZLxewMBUGxTdVouGtTAMGYOcXgIMR0DB9xUOsAUHW8GRcS0EokDn6Ja3V8YkMAuwIx7A7GsTeUwN9eimAyv8Kjvcx1OsbXavjgSh+eOhHBOk8HGuPdHXIHmxK4clGDoVkOhfCM9XfYdVw624U/mjEd2Wz5h9wPH3GIuRKzOBmO4d6tAcM2pqBVUqWbKvz9O01701QetwfimDrDNeoFaYJNx/tX+LDVHzNLVnjniKTw+oVuo44rqX5HclkY07F+8MyV4SMOtjFzxvPaEy2YxCUSRvsXOL8hmcTxpe25xLHWExv9xGHT8C8L3FiqR7uxRTCWhj+WRiCWgS+WxiI9iovnKI1jyD6KNFeqNXx5a8Csm+5aYLdKK/HE8BKH6edY7WzDq7mGLL3vlWD3SwKpVOIQDdOBuzYHEU9nO5scTel9oQQe3NGIr24N4Ws7GnHfthDet8qLSdSwKk2jlPU80vYmcXxxSwCxNCfqKH+37PAQR6ezJo10JouFZ1vx6vlU3SvEYSgbUqUSh03Ha+Y3oPZUWydp8OBUaxK3rQ9g3DQN455xYFyVuTFWp5I+CLJ+R/LepuPtSz1YpkVEHWVT5fVzDAtxZE3HaDiRwHItgg+t8mA8hazSGlclEodZpjs3h9Cc6JqqLp7O4LdHmw0/BmM5RrJQjYW8UZZsOu7fZporZR70NrTEQU3DnNpskzeKr28P4R2L3Ub0KBtkuSqUJg8bb09bXwOSekuH6RczrwZKHKz8Ynko1SfE+3vCRJalpzqgD4r3UHt42oF7toZytI3nAjG8cZHbCPziPby3p/yVq1z55WG6orfKzGt+WfubH5lOT89LzHorV1/bnUxvoPsqDZ/dYDpIy9yzMsTEkUEmm8UGTzuuX+rBuGkOo4ENFCD5PCvGruP8Oh0Xya1ex0Xc5P91OqbQJDLv7ablyMq3azgn/1n5vyW9C+t1jGdahRpVf4mjMw86LqhzduXd8l6WZwrfyXfzfolBob1535T8tPLSO0eml5/mDCcm1zMfTlxk13BBlQP3bg0h0+XewMqGDlxo13FhjWbcV6/j/OlOjLfmx1oukZ5ZL3n56Gu5zrGk8bJ6I4+sh4nMh6W+idXL6nRMzcfJmp+8+/PbDNMjfj1ibban8/LTsfwv8CUJ5efDilG5jvmOaiOew7RVcoh+oP8MCXFkhaaRFg1tsy+O67lmbFUZx6gQpDod59o0vGa+G79+oQVPHo/g7y9F8KS5MXaC/3P/wM5GXD7HhXNrNUzIW/Cay1Kea9Px2vkN+K/nm0R8Ap/h9o+XIvjn8Uhn2v84HsGfX2zFx9b6MYFfWTYea8X3hzhYFpsONsDrVnjxu6Ot4Hvk+1kGazleycCqYj6EOh2TbToumunCN59rEvlnOSQuMq2njrfhf/aG8ZZFbpxn043lOVkWlsGu4UNr/fi7iekfj7ZijTvG2RE6f1wciJj/7ViryB9x+tbuJpwzy+wtM8t1fr2OD63x4Q+8r4dyPbSrEZfObuhZa2Ge6nV8bVfIqIvjETx9IoIbVvswocqBT63148/HWo38mHU37WQbPrc5aBA8CZL5sTsxpUbDjctzcSYmxEhiQ/z/cqwVn98SxOSZJiaynkU6Os6x6aKX6VeHW0R9yTRkOvz/+8834fK5DRhXMwTkwXyNauIQpJFCOpvGGncUt2ztMNRZVp4Ef4B7fvFfNceFx/aHMc8RRTyT5cyL3X48R6u8oT2FutPt+PnBZly1yDKZUL0TVy924wf7wpintSMQS4t0ekpLpJcFDjQmcOfGACZySUuGlcvylEocrOwaDVfMdeE3L7TgWU8H6BTPf78shyeawtMn2nAFe6QY8p1HgiTTKXYd9+9oRPWpNng6jPLkA8P0uDF4a5kzit8cbsG/rvF3CVm1hv96PiywM3303fLENGW+eA+HE/z+hWZMJXGQUGs1vHpeA/7vhRbsDMTAzhjeb/3J5/0dKVSfbMPblngMQiYuElPuTc1oRUNH5zv57A/2NeOzmwLYG4yJj5RMj/nh8Z9ebDUw4le/RsNbFrrxn3uasNHb0Xk/77P++L/ctvo6cPEcV5eWzHzV6rhstguPHWjGfC2KVJH6iiTSot0Jk45kn19f1jIO9HhUEwdJI5MRPSeLHS24ZnGDALqsgNl1XDTLhd8faelGGGyciUxWbNbGwGM2Bl679dmA8cVmJdbp+OBaH46GOelr918qk0XSqp9bbjneksTnNgYxSXz9TVIshThM0rh8rgvPnGhFKq8F87XMr6X3U7yd5+vPtOOKeSZ5SCETmoKOe7cF4WxP5ZgVfFDiUqg4vPbbIy2GwFPIqjX8xx5zjgdLmYsdnmxN4p3LPJ1pvGZBA6adiHQrF9NIZbsTPfO10hXF7RsCmCj9FlKYTOKYr7XnZGF3MIYzkcK9B76ONL6yIyTyM75Kw7uXezFXa0NrkrTStx+jfl9BjUGaG7U6XjnLhb+8aNSXtcpk+ypUjwv1KN5Mf9BgksfoJg7jC8cGcO1SHybayzxegeDUanjjEjcYdGT9RVIZ/O3FCH64txk/5tfA0YZwPC3IRVbmnsYY3rHCYww8Y1p1Oi6d34AtXi5wA5AoqL2EYmmsc0fF1/Kxg81YoLXD19FdGF8IJ3HnpqAhLKY6zS9bXwLAxts0YT5Vn27LIQfmIZxI4+njrXhkb7NopIGOdA6BCfI43Y7LSB7Ueihgdh2T6nWsdecGaJF4Furt+OHzYfzv3rAQZr0tKcopSfFkSwJ3bAoY5aC2YNPwv/ubxT3EQ+In8eb7STa8xo3Hz4XixviUKgdePbcBtfnlygJtqQxWN0Txf0daMPtsG5oTafGsTJfCt78xjncs92ICyyVJ0SSOOY5c4rCaTiyLNT/UuC6hWVflwJsWuYVmlU+azHckmcHBxjgWae3Y6OsQ2inTYUAbx+GIiF++36bj5bNceMIkDZlnkmBLIoP60xE8sq8Zvz3SCr0t1a2+FusduJLRtMXMTEmU/dmPWuLIZEDfBtXAd9ERyqHWBLw/IPT0TJ2OC2e58P29TZ2BSGxsrck0KOAXznRhcrWGyTYNVy9y4xs7Q3hsf7OwXQOxFL61pxGTplscm8xfnRMLtChOtSTwxLFW/GR/M765qxHvXOHFudN1TLFpeONiN766PYSlzijaqZtafs+cbOsSuL5qHHYNr5rbgL/lNcK2VFb4JJjvS+YYZTl/llO8mzaztTuUhPDtPU04h19nCnu9E/eZ2obMHgVj9tl2ITiTpzkwudohzIfPbw3i0f1h/PaFFmhtSUEmAhfps6l34gNr/PjpgWY8spdmXC4ZUdv6+cEWgS3v+eWhFnxtZyMm1ut4+WyX8M9YyaYjlYXtVBt+sLcJ1y33Yup0pwhJf3BHCI+/0ILGeC6mcx3tuIpfaLNc0lTJJw6Wk+TxUksSf3upVZSJ+fn14RZ8eK1fCPuEZxx4eGej+ChIXNhmSPq/OdSC/97ThFvX+/HmxR68d6UPX9kews8ONuPBXY24SAzUM3wj581y4Uf7wjmEEEtnYT/dhv/c3Sh8ZGx750134gtbQ/jD0dxykbR+fqgZr2CaEuee2nl/zo9K4kinBWls9sXwHqqrgjTy7NT+gGF9hsDYNLxlqRcnWhLC9GBDoCD/6WiL8OjT/hSNzPxCTarVMbVWwwWzXOD4kSsXm6q0/JJR0Kc78dnNQXx6YwCXzHRiaq0Dk6iasnIFsfBr48TEag1vXugWo0BlA+SePofOrsi+EAffXaPh+pVeRJJdWhMb81pPBy6d58Ik+i/k++26ePcr5rqwLxTvLDfffagpjmtX+DCuxiHiYqjpWb+q8xzteMOCBqM+LOnxaz6l1uhFYtk/voHahulLMDGfWEcsNEz+5xl8aXMIXTkFlro6MNWuY2q1A1NtmtgmM/1qDdcs9+aYAyzX4aa4IN8pNWavGu+lhlSt4YJ6HX861ooWiwnBrzhNSg6oE2auWZ+FiGOjN4bPbWLd6aJMzM85Ng0T+A6bE+9Z4cMGb+7YmtORFO7eHMQ5NRom12gYTz+VmaeJNh1TbbphgvK9xKNWx9VLPKBmZv2daU3irUs94mPV2QZYXzU6LpzpxJyzbbCEvsDZlhJO507Tx9q+B3o82ohDBndt9cVww2CRBkE1ieO6lT60Wz5nJA5+OSfTZ0Hi4H1yMxucaKQ2HeN7cE5NsjsxQTaeHNKgMBlfHKFiPuMQ6qu18cw6246L5VeE7+vNVKl3YnydLsK3ExYHhrcjjTs2Bg0SYh74XlkOChCDe3aEQAep/PFr+1FGblYbxEEhsv5mnm3Da2ijs0dLpsW9BRcOXBPjhvIbLu+r1TCpThdfcmu67IoVAXyS4ISQapg03SkI2hqWTgfsN5+jNmIQv8iHrE/mgxrdEg+OhK1CmUX1qQheR9XeFGjmOZ84SErf2RPGxGqH6Sw2CZ/PEL8qDT/YHxY+FZl/PlN/uk104ZJwRfrCzDTxlthwL/Np1/GRdX6ELSxA8+S/nw9jMu8RjmpL22P91er44GofqJ1Zf5+haSs+cIPwYR1VvSrm+JMvbGYDHgTzRDZos+Fdu8KLRot/g8LDxvmTA2ERhzGesSJWApHPsyEwDfm/dc9rssHwC2Ru9Bmwe3HSDCfGs5H984zogbE2BJpmbydhyjSKEYdoUBresNiN1e5c7eBocxLncnzH06YQsDFat2ccuMCuC61Dvp92/UfWBYQdT0He5MslDhLs9NNtuGqBG+MZEi4auCkgsvwUMG7yf7kXeOt4/xof9oVy013v6egykXg/763V8KalXuzwx3O6bc9EkricvUCsE5m2dW/XMWWmCxyKb/1xzAWnJxBfZ/o7ChDHs94Yrl/uLew3YJlqNfzsULM1WRxpTuCOjXJ0doFyW/PGY5uOS+c14KnjkRzt4UxbyuhxYX2x3VvrisfTHDinVsfWPDKnpiPKVAjz/HeX8j/rYNQQh0kaM0+34pX8spHpSylsqffWOUGVnaYJnYjWXziREXblD/Y04eNr/aJbUoyhoLD2RBjy/RT6ag3XLfXgv/Y04cf7m/HIvrCwlekM+/0R+j7C+N6eJqzz5ArRNn8Hrl9pmkBMpzfiqNHwwTV+xMQ0A10laIim8L3nw2LA2MO7mpC/PbijEd9+rhGOtq4vGJ14t23gF8wQrO8+3wRv1GpUQNjkcxxRPPp8GCR3YWOTXBlbUKzxmmbXV7bTP9DlgwjFUnhkfxPGE1P5PI9rNNyw2o9IMrdeTkeSuILmEutB4m3d252YNNMp4mfy/Uef5teZz/VAHA/tbgLNUUHa1jSZH7uOKxe5RTd7F8oQTlsR2NVTfqzp8LhWF+agq61L02N6oXhGfEQe3N7Yra5Ydw/uaBK+lZOtuYT4beFnM7XY/HcN5H+WeTQQh2GiZLHFF8O7+cWV3v2BFL63Z6nm12rCrmSMQv6vI214yQ+E4vj1oRZ8d7fhjBO2ciFSMxv/lOlOfG5jAOs9UbQk08IU4teazi/Re5DOIprOgs5L2RMh373V34HrSiEOToSzxoeoGMUoUzF6dNhVSAdoTxv9AJW3ANUAACAASURBVGlLVwLzct/2ECawHDYd589ydbPn+Qb6c5l32uT/fKlV9LB8bJ3fiIzsSRMgcVRrwvToyiWwyRszByhaiIDvr9Xw3lW+HAcus7rW3SF6rop9VEhCNAWsPgTSz6c6TbfCGsc3nms0NBkStrXtmPm5Z2vAnMS3qwTsbRF5KYE4rl/pEz1dXalA+JJIkj3VlTxPf4319+vDzXgZY0MKtUdrGUo9ZplHB3EYDPzgzhDYT96N9UsteF/vZ4g5PdwHmnuMv2BFUfApaAxC+/7zYRH7IdRJAizfZX4xGVnKOISu76q1qosf94c4blrjy3EgFn9Dz1epdZE4Or/+Nie+tC0kujS7h1sZ6ZAMSVC7Q3HRo3HNUq9ocN20MpM47sublGiJs8Ooa2vDNwX1Pat8aLL0kERTGTz+QrNwTndqJxJ7677OKcy3/RZzpS/E8a09TabaX4A4anR8b284h2iJAHtBJNF2tgNrXvKPa3XQr8bgwHL8Hj/SbJg4Vvzy39mf/0cFcYjRrlmsbWjH29j1Kn0K/SlwP56hc/FlM5z4zMYApp2MwN2eq0ZaK5hjZejI+uORiOEolBVGwbDp+MLWIOhlt/7oQ1mkd+CvDNU2Q86fPN4qYip2B3NVz+EkDuaZvUFC22PDqXeC4yM+ud6Px4+04qVwl1ljLZ88jqayWNXQgeuXST+BRQCJT5WjW0zKMleHcILmfDF7II5IKovHDoZx7izG81gIO7/O65y4arEb+8pMHN/fF+b6ZrK4Yj/cxPGfexoxmdjma0n5mJT6/+ggDkPQvrQ1YNiYzHSpBR3I/XyfTQd7BBj++/WdIfztpTbUnGrHS825gi1bDTWQ6pMRw1FHs8quiwCq/J6ILf4YvrO7CVcvdONiTjw83dw4DX2tjp8fapFJin25iIM2tP10uyCqp060obeN3cAcU3E1iVuSITG166IrkgPU7toYxF+Pkfzacpyq1gLQVbTBE8MHV3tzv97EZ64Rk2G9f5W7w+hJsL6zB+Lg3Cuzzrbh5XMtYduF6r3OiWuXe/BCOYmj1jCzmmK5emS5iIOBYzPPllZfHB/0TgYgErtyywzTG9GminCIZjH/TASvXWBGwhVqDENxjhXAfvc6Jy6Z7sSls1yif54DxFipVMutP/5/1xY63AzioDORtqj19yAHatErLrpAzT2P2eX3jEOYSNb7+0McHEBG34n1tzsQF2NQXl6n4xXTnX3auOgwu0C7kTa/ZrXsZtVxCcmvnlqID3861iIGh7FHIP/HaE7RoEWjNsaafGZzEJ5ortayWG8vrHGYztG2POfosXDcaCc9+RTq2GvlwiMHmkTErjVfvfk4ejRViIldx/tX+7Azb35UDn4TGnJP+cnHs1bHu1d6RZSrNW8c5MegsZfb+l5frFcRaFdu0mCeRzxxmPOG3rctgAlDMeovvyIL/c/GTuEWcQcUFCdePceF3x9tzel7Z8VzFitGbZJwGMhkFV/asZ/kWBb2OlD4GJUp3yeEUeumcWzxd+BdJTlHddDZxohN6+9QU8J4J7tNzbL0vi/y5RLjPUxcajgqWBfk+so6HV/eGsKRvGAmRsW+bqHZM8ay1mhidK01j2dbk2KiaRHDYTU92GhrdVyzwoczrbmkdDaSxKt66Y6dOsuFbYHc0bd8L4nLEPLCztGixFHnFN3bHOVq/S13deA1DNWXBCnrt6e9Tcebl3gMjc3SWGjeTiHG7I7tc30xnsZiDvb0zv6en+bAHet8RnFH0nwcsidlg7sd72BPCgEbDPYsBpzJrJ1drbyXFSiF3BRwBv9wgNKBplwB5cjWt9Gmt+lY7zHGqMiGxVG0t3f6DPIq2Ez3Z3mmyjZ/THyRREM0Ba7oWBXO1zDHhV8cCudoHRyUJfwVsntRlqnYPh8nET9AArUQinxe5J89JQw918SYC1lu7g82xfHxZ31dWkeNhgd3NVlvwRJnFOcxvUJfa86JMduFnx5qBnu35K8hmhZry4jgu0JCY9dxzkynGHEsn6Fjd4uvA9cyRsNmaA8k8vwAsKLEwXZSpeGxg7mmJcfHPMTeGMZekDzyMcz/v86Jc2a68B97mmDVpqipfmOX6ZxlOhLnnvb56Zbzf5aVI8ZnN+B3B806G0kzgMl5DL+6zS/Ce4eeNHRcMNuJT60P4AubgkZkoZjn0kJgsuLYuGs0bPd3+TzYnDl2Q8QV2HVx3NVYIca/iK/cP88awmetXDaOaQ48ciA3oIiq8A0rvUYj7AtxsJJrNHxgrfllMDPALtN9jXH8K8dYUOORWg/v52am3XmNphPPM4+mQN6y1ocHtjfiGvo9zCCkTuGQuPDeJ8+KgYDWsrP36RoRyGa+q8qBf8/rUZmvR418FBI45qVWw42rfTmD9mgJ2k5FjEhTfp2lpsL7KbxcNHlbEK48B/dXd4SMiYt4P8tu7wdx1GhiOMHJvOjNPaE4bljhxbinzho4s63wHXwXj9lLKGJdzHZVq+P6FT4xIE5ixrbkaEvhS9uCRjmoKRIXloubqC9LWiwrz1vbVLmOmS7XkN0YAAdEjrzJilMp8Bv90XW+rjDmchW+t3QIDgevLfGIKEMOHaej69+3hfABCi4rSgqcGc13+4YgHG253Wj3bg9hEivYruPOzd17VDho7WOrfMaXVabHRlHlEAOYOALX+tvhj+HGUoiD5azVccXCBqzx5A4eY7rb/XE8sKMRH1vjFSQpGqONXz0nrl/mwT2bgrhva0isUH7ZfLfZ4I0GO19vF8sTUDP41i6m4TMiPFkOlkHsz4oh3gwbt/6ePBHBZFNA5WQ+392bq3FwtTbhUylEHGa5LpvfgGWu3HJxJPN39zThllUmwbJ+ajS8fbEb920N4kRLModsuJDVW0RvnSlsZr5K0jiYH85gNt0pBjlay0qFaLU7hq9va8Rta/2Gw7yO5pBTTMp854YAvrg5iGuXeYyuWw6nn9eA2Xmjc5nmqdYE/mNPIz6zzi+CE0V9MahtuhNvW+zB3RuN+rp/eyNeyxB6Ene5CYTpVWuCgEU5B2H92P7PAMbowWwW9jNteI0YQzBI7NkTgZjE8f7VctEZY2i3J5oG52X4j+eb8PlNIWPbGMDXdzTicFMiZ0g44zoYQyG+xnSqTtexxp0rQOy65XO/OtxsphXCPRtDgqA4Z0V+r832UjUOlq/eKRyX717uwfZAbiQqK55rkxxtjoth/ZzFi0sq/uxQGOvcHdDa03B3pOGOpvGO5b5OlZuRu4fChnZFwaC/5nA4gZ9bykF8KBALdI7y7TInOlIZMRuYMD351bXrYtlK+j2sv9XsUaHm0hNx1DvFGJD3LvcK7cn6LKcq4KA8RubesyGAr+9sFEPdacpYf8T/7i1BTK23xAb1lziIdZUmtLgTeb4X+qaJM0fJclW67+1twn/vbRJjZM62peCMplFzKoLzZho9QvQRvW2xGysacjFh3kPxNE60JkV3/UOsr+ea8OiBsBgQybRYXxyLxBnLRNuTWldPbb0/56dpuEvON5ozJNGKbv+P+08cKcNX8LmNPkOdKzdr9gaWIA4d71ruFcFa+RCw8vR2uaVAn0H+j47Ry9kTxIYv1FJN2LuFljFkkFRXemkxmxZnueoSNyN1diFyMJORpmEefTFvQaY1hRZkojDUasLzzzEXhX7s8iMB8ItNgcr/PXqgBRczRsKm4bULG0RMRv49JEtrOVxRTumYW4pVrna8dYmpvfCLWKvhi9tCaLYs70ieqTrVhgmCOIp8NExtjuNBqDnk/4x6MuonLxtwR1N4/EgLLhLTCFpmVjOJI/+LX9THIdsTR/nadXx+c0gMv8/PD/9nbxvbADfrAD0OvOM4FWG+MA/Vhpa0PE9bk2kyZF7WVzhhzLcrr3H/52MtYrY30VbKJT9Mh9NfTnfi+7vNCaXL7Bhl3gdMHHduMlmzXAWXFdyXPVXPOS4xNR7V4bN5gVvWSrIec4avWWfacc0yrxiZ2qkq1uu4eKZTjEvhgskU1L7+SCI7AjExE9lblnCQm+lrqNHw9V25K7k9F0wIB1u3LzWfqdXM2amiQtPp6/tPtqZEr5HQ/ji0fYYuptHj7GAvhLv8OsXS47iW+Y6omI9CTIEo1GhDQCiU1h/T/Oh6v6Fm91b39U7Ri8PZ1Yhrfpe3NV3j2Bi68M1dIVzKcGyBpYWcTOLgtAPW3/f2hbuEulj7YcxPjYYvbg5hrhbFyUiuw9yapvWYPidOc9DpDGa+OHXAEg+mn20vSIzW563HnNzHdjpimGAk194wLFYe6zWmU6vhA2t8MHw5tAz63o6teSx23C/iyDBSNJuBozWOW+jfsHrtrYUYomPGbbxxfoMIt17o7BAzbtNm3+aPi26zvaE41nti4jxDpDlc/TVySUI2Qms+bbpYBPsN8xrwi8PNnWlxfstCG99DH8JPDzbjxhVeXD7bJSamMZyUhv/ilvUB8SzvpS39f0dajUlv2fCs7+Yx81Or41/mNOATzwbEPJZ8Tr6bzzO6U/4v38/lChikJibyYePhJMX1Oq6Y04A7NgRQc7odqxpi4NeRQW6cy2N/KI5NXgMvpsvpAV83pyF3OU6SR1X3HpUFervR/diTmZJfLt5Xa8xh8uODYTDilHmXmMhjlosjT9/DCX74DJ2T+UIlyufETw511Q/zf4eYfc10Rua/3/q/aV5x6oV/meXCvVuDWOKKirzw/dY8yf9ZxzRfzuVkxdZ647FNx6tnu4SmOcvR3pkOny1UX6wDfkyuWezG+WLy4wLtwJrfUo+rNHx58+At/0hC6RdxZE0z5TeHmnAJowDzha/Ugg70frPHZFK9E1fOc+NN8924eoEb71rhEzM/fWiNXzjeeP6qeaZpwl6GnvLNgLBqB14204Wr5xvp8dlCG69fNa8BF7Ixsju6QLqcOEg+++YFbjHTdc6yAfnlp2DQ627T8fq5DTl54ORBLJtMj3u+n2H33d4tz9kNAmFe3zjPjXcs8Qhc/nWdH+9c6hFpMV/nsgzMv5UMSBzVDtBWt/5oJgjHHrHPz39P/zM/tZqY1OYNZj0x/yyTtTwM3BMfo17SvnROFzbMP+ee7UYyPeWFZWV+qo05RoihrGviK/Jk4izrmO2hYPqyvmp18UGylqVQfb1xvlssN9GtvnrKa1/PMx/cajX84JD0vXQ30a312N/jfhGHXCz69g1+Q1iY2b4WbjDvY4OnwLH7jHtqQiQBbhQIeZ4Nhg2nWF4EEZjdZ3yu2CaE3LTB89OVDdT6PPNV7N28Jp+T5ZHP8/9C51imQmnKdGT5mY7MLwWTZCfT5v85+Td6m7jS/Iwzucs9rnR3YCLfZyWZQu8vdI7vsZbBesy8MK99aVPEUead+/7kReJjzQOP5SbT5/9sRz3li+nwmjUdPpufjkyvP3kthKX1HN9v0/G+zW2gn4pWQSbdNzOsVAIZEHHcxgChvlaytYCDecwKlBvfI+10HlvP9zUP8pne9r2lZ32+t3ut163P8ZjX8s/J89bnCh3L53hN4FIgPetzvOcZB/5tS+5yj/RRcNBc5yhc6zN9PZZ5kXnP/7+/6fT1ufz7rO8vlCd5Lv+5/P/7kk5f08pPuy//P6Phq7vbwSU5kU0jbS63Wiox9Hb/gIjjMxtHmMbRF2DVPYU1E+IiNDRL1GONMRcpF4Wy/jjnylUL8gbTKVx7xnUosKG2Ue/ExTOc+MXeoFFdg9CbItuBIo6hqNQR/w7DAXnlArexhACDw546i/PrnPjO7kZw1i7rr4aT31DTHAx1e8Rj1YuJO5z5n6bh1rU+nG5ht/fg9KbIdtA/4jCdo59cL+dtGMFgDmdFjpZ30z9i0/D9fU347ZFmfGCpBzcscuNH+8MiUEk2Fu6DcXNhIz7Tk19ltJS7UvJpahvn1jnxMxndO4jaBttBycSRZcRoJgV3LI1bNzcb6i0zXimVMBbLQQKY5sAfj7WK5SUONCXA8RtNeUFmsUxWxIpcJLoke3DGjkX8RkKZqzS8b5UXhxupbXB9zdygPiv5l+O4ZOJIJY1gou2ednxgY0vhfvaRAKTKQ9/J3K7j7Ys96ClilQ2NpPHPExG8llMQ0EzhQlYK4+HHwNQ2ptqdePR5M1J0EELM88mmZOLImPNv7AoDb1liTrKqNI7hb0D9FWL2nNh0PPBco5iqj+NZOJ6Co1NfbEmC2gc3rizP4DbRvahIY2TVd5WG96z04qBYtoLaRvkjRQdMHGnTv/GsK4L3rGsyHGSKOEZWQyqFRMzuaq5AdstqPz68ygcuCXn/ziA+vt6Pm5b7cNMKH17FSFulaYy8eq534sI6J3613xzWMAgjYfNJg//3T+PIpnG4OYGbN0eUqVKKkI7UexlXwK7YaWYwGFexI6GQKHiOWy9RnMpsGQY/Hz/YVRo+vt6Hk83mwMgh0Db6RRyCfdJJcHjRR9awV6XAWIKRKiAqX337Yqoek77hNNztqcaByxY04pnTxmC/7BBpGwMgDmMeyds3cIBbkTDc4QZWvX90CICqp9LricFec/z45s4QzrbGhV8jO0TaxoCJQ0WODoN6qoSsdCGrNMxootRouPO5DnPoPB2igzOYTVgYBf6U7OMQaZg9K59WIeeqEVeaUI6G8tTqOL/eib8fNUYsZ8s8EXEBnuh2akDE8cmROMhtNFS8yqMi3P62AZuOKbU6vrMziIA5EkDMj9NNtAf3RP+Iw+ySvYPEoXwcSgj6KwTqudLajt0gja9uDcBnTuo2lH4NKxX1jziEqZLFP4+34LL5g7DStmpQpTUohVfl41Wni+VVv7jZD6+YujWLrFhF0SrOQ3fcP+Jg/tIpcI6hTzyrhtarGAblJB7UNmB3Ynytjk8968fRJnOeVY4ZG8bfgIiD+f4sHaQMFFLRo5X/1VOazdDXsd2Y1eumlT5s9bQbVDGMmobkqgETxxe2+DGJUYWKOIa+USlBrmzM7brQNLjA1zK9a+GvwZrVS5JCX/b9Jo4s/RzZLFY62/B2rrLFNT0VeVR2Q1ZENXT1a9cxuVYTq+9tkt0nyGI4elAKEUm/iUMkZsZz3L2Ni/Zy7VI11HpQbV0luEMnuMOJtSANHfdu8eNwSxowJxzOjAATRZLIgIhDLpPwrV0hnDNjBCyTMJyVrd49NoR6MOuZGrvd6D352tYA3DFzMp4hDCWXxNDbfkDEISb1yWawLxjDrTui5oA3pXUorUP1spTcBjiw0Azuup9xGnGz12QEkgZJZUDEIVgpkxKzlN27LYiJXENC+TnUl3cwv8qVljblpU4Xi3O/dn4DfnigBcG4Zdq/QZ4CsDfNoqfrAyaOjBlFus4ZwXXL6SRlD4vSOkr+4lSaQKjy9P4BIWnYaJpo+PetQSxr6EBThzFnqJjbd4SSRnk0DhYukxartn99VxgTbfR1WFYWVw2o9wakMBpbGAktw4kJtRq4JMUj+5vhi2WREURh0TZ6+tyPgPMD1jhYBhn6yukEr1tmLtSjTJaxJQyK/Hqvb8pEPaNANUyy6/jGjiBWNkTRHOfAk9FBGJKzykIcIrF0CqlMBj86EMbLlreqNTeUIPUuSGMBI5MshO+vRsPEWg33bwviyeMRBOMZZITzc3SRBuW9bMRhTGKcEes63L47acyGrXwdSnjGAjkUKqMkDHOB7Ul1Oh7cHsRfj7XC3Z5EnGu6ZjgufvSRRlmJg10r2XRa2GnrvR24ZonHHHKvHKXKUToGumclUXDPpTGrNWGSfGC1Fz/eH8Zfj7XAF00gxsWgU+aiSaOUNMpLHOROOne4QnYmiz8cCeOCWWrdFUUaI5A0rELO40IaQ0/n8p+V/9tdYsZxDvjkEIzvPx/G44ebsdXbgUgqiQQVi1TnJBrCuh/Nf8pmqnSCIMgjg9ZkFres8ymTpacGqM6XJrDlwss0HcTCUow74sjuvi6ezftqDG2i8/kqDefPcOGbOxvxi/3N+OWBMJbr7Yik0hAuT0EWRjDXcE260ymbZTwoP3FwnWxzDMsaVwRvW9xgkkeJzF6uhqLSGR4BHWm4UzOwabh+uRs/2duEx/aF8di+Jjy0M4Srl7iNqOcqc12ZQvsaDVcubBCOzR/ta8Sje5vwo71N+PmRDvz5SDMCHSlEkgnQa5FKSlOEkjo6fRi9ccygEIf0d/Dly50RvG2RW2keI02Qxlp+qjW8c7Eb/JjFkAUX+KCQhxJpLHC0CiL4/p5G/KDA9j+7G/GjvY2YdSYCd3tCaBJ8lhoF5xaPpjJAzurwlUkWVjIZHOKQbzDj7JfqEbx1odQ8lLO0JJt6rAl4uctLTaNOx+sWuFF/otlsmTQdKNz0yRlrBJEASAQkhPyN5427qE4LA6TreVSeGSLFt9h+kImjawHcpXqr0jzKLRQqvd7NMBLHNAe+safVFH5z8JiUChGtyX9MIim6ZwdA3vMynTG2H1ziEPVhIQ/NJA/akBwNqBq+wmCw20CVhg9saMMGN2fI5VS5nbrDGBP18hZ38ImDXM6JVU1mX6pFcMNyr+Gdpod7sBuOSn/sYlyl4er5DVjliSOZMWYFFyED5ZWhMZnakBAHkRXkYc7MvCOUwnf3RfD2VWGMq3Jg3HRFIIpAy9zrVqPhTfMbMPdMiyHY2Qyymcp3Wg4Viw0ZcXSSBw8ySQRiScx3tOGmDa0Y94zD6A5T2sHY1Q7KWffVDly7KowFTrEAidB2xYdrqKRqDLxnSImjC08yv+FkWudP4IHnWvHuda0Y9/RZYz6PcjYildbYIqNqDdeubsb00xEkzYXDpJnc1f7U0UARGCbioO3CeTwM8nBHE1igteELO9pw+RwXxk3TDA1khhPjuCnhVxj0pQ1Ua3jzAhcWuBJICauky7c2UEFRz+ciMHzEQZ2jczUqg0AaAfzjWBh3rvPhqvluw4RhDwxH2SoSUeRRjDzoCF3gwryzpk9DxGgon0auuJfvv2Eljs5idPalG11lQQD2482451kf3s/pCDlGYJrD0ERkT0x/NZH+Ples0aprw0NqrEuOHanS8JaFDZgnHaFsWJ1tqrOVqYMyIjAyiEMWqLOyGccHxAAcigIPbA/is+t8uHW1F5fONUchkkjYIyPHFZBQGOyTL8RijILRuMS94jnGkRS4N/9Z9X93PEcKJowDqnLgjfPduGuDH0scrbIVGaO0O/9TB4OBwMgiDlnCTgKhqpkW4wG4amZDBvjjC2F8ap0Pt60xtk+s8eKmFR5cPNtVeKCSXcfl81z44AovblvrxadJQGu8xpB/FYRWOjEMp8Ym312tCy30+qVuzD7VAmmcdEV/yoak9oOFwMgkjoKlNUiEl9hQOOqAG82a3f52/OpgI+7caGgl1Ezkds8WP544Gsa+QBT0obRxYBOAD64LYlytWn2um4ZWTKOQJmOtGXcjBbnYM+W4xvcIDUMTJutbF7rx0M4g9hvBoJ09dKrLtaDgDMrJUUQctFutGPCfLjLhFWolTXlbh/URobvwmQz+eiyMK5YE+j4XQzkEYDSnUe/E5fMa8InVXmPMEeexkL1fLFe5SUSmR+2C77HreNcSNz652ivMEg5EM8amKn9GThMfon9GF3H0AEranP/DiA1hD03+BnTdw0SyCHakcNOmiOEnKeQbGc1CXu68i4FiGj61wY8zrTHMd7Ti42u9+OhKL960qMGYDIfCzYlx5KQ4UvD7mhd5v5xox0zv7YvcuGWlB/duCWBvO9DlyeihMajTQ4JARRBHqUhlxJyPwHd2BvGKeX7lKO1NuOucuGS6E/93kPqc8aOZyP+WBzP4yCoPPrzcg3cvdeO8mU6DQKTT2ronscjNel4e1+i4ZLYLNyzz4MPLPLh5jQcrna3wAxCaY5ZOc0Pt7OrKlzlS+6FEYGwSB2eYzqbhaE3iw1vaMK6G42VUL0tBDIS2oePmNT6cbYkbK6dn2G1uaHXJVEL4juhrOhwF/uf5kHBEv3+pR3Slsztdbu9d6sH1Szy4cVnXOXmN939ktRe/OhTGqRQQMIlpKIVBvavvCIxJ4iA82TQnZAF+uDeEC+Z6u1RsRSC5JGo3tI3fHTK0jaz46lsbmKEBCCLJpgSd+AC42Atm2fj/yQSwJxiHlsm9xvt4neRjpEbNwggK5DSUakSrFe+RcTxmiUPMi5pNQ48k8bkdrZhMr72K7cglDWobVQ7cu7sNYSHHWWQyRoxNwebb2Y3Om3lfoa3YNcHoBZNWJ0cWAmOWOEQ1CJU7i3UN7bhsnunkUxpHF3nU6LhsURB1J41ICTkJdb+bcDarJtLpN3gj68GxTRz8wJlrXdy3LYCJ9OjLXoGxTiB2Jy6o0/Hr40k0xQ3NIU3fkPopBMq5BORoRTPDqeQyGZyJpPHJZ32myTLGJxaiiWLTcffmABpaGfjfi4kyWitf5bvfCIx5jYPIZVJGONFz/ijescwj1t8oOO5lLGghJI0aHa9e0IAlZ82oiW4O0X63N/VghSCgiMOsSGmy/OxAIyaSIGq1Llt/LBCGLGOtjnPrdDy6rxEJ+jGzWWSUiVIh4l6+YijiMLEUwpHNwhtN4+5NAYy3WaIgpVBV+t6m4xybjm/vDCIslDBjgt/yNTeVUqUgoIjDUpNGWHoWpyMpfHqDT6w2PmacpSZpPLwziCa5goBaQ8TSOtShFQFFHFY0RBgBpcYgj9ufHSPkQdKo1fHQjiBCgjSUppHXLNS/eQgo4sgDhP+KnhZBHkmQPCbQ31Gp3bQ2HVNrdTy8I4hGU9NQw9MLNAp1KgcBRRw5cHT9I4OdTkVSuGO9DxNJHj3NMjZafR8maQhNI2kEeyvS6GoD6qhnBBRx9IwNshyun83iVCSJuzb5cREXjiJ5jPbQdIbX23Sca6d5EkBQkEYWWdV7UqQ1qEtWBBRxWNEocCzMlmwWrgTw1PE23Ljcgwkkj9Gqfdh1TKlz4oq5Dfjp4VY0izEotM9UVGiB6lenekBAEUcPwFhPy0mAEokEDjXG+hI4hwAABG1JREFU8ekNfuEXMLSPURJlamoZU2062HOy2Z9AY5RRoebynNYCq2OFQC8IKOLoBaCcy+ZEMmejGfzvvha8fn4DJsh4D0ZcjkRfB80qu47JHB4/y4VHDrSgyQiU7Ry6nlNG9Y9CoA8IKOLoA0jWW7KmSu+PxrE9mMK/bW3E+XbdMF/Y8zJSCISEUadjol3HeQzq2hHCancMwahcT1XaKNbSqWOFQN8QUMTRN5wK3GUsL/hiUxQLnTH825aQiIUQ/g8xt8cwkAhJy3z3OTM9OK/Ohfu3BTHzTDsa41lzQhxFGAUqU50qEQFFHCUC1v32DDLZLI41RjHXEcVXdjRiit2JSaL3hT0wZi/MYGkigixIGKZJYnNiqt0pgrk4j0ZDNIV0xrRNOifa6V4KdUYhUAoCijhKQavYvdk00pkMjoejmHW2Hb893IJ3L/diUo2OiVyHhAQihZx7uZXiF5HPWNOx62IeERIV3/fHY22Yq8XgaU8hLSf3NUPH1RR8xSpQXSsFAUUcpaDVp3vTSGWyaIknsNUXQ82JNjxxtAW3rPWKCFRGoXIb36mRWEjESgyFju26eE6kUaNhot1YsuCvL0ZgOxXBVl8HIvG4SRjMrJwPtE8ZVzcpBPqMgCKOPkNV6o1p4VNIZhLoSMaxNxjDUy9F8PRLEfzzxRb8ZF8jblrtw/g6XQymG08y6Wmr0TCpXsfNa33iuadeahXpTDsRweGmGDqSCSQzaWSFSaLIotSaUveXjoAijtIx6+MTUoC5zwgSiaeTSKQSSKSTiCSS2OmP4enjEfzjxVY8WWTjdZLEnmAMbXEjjbhIJwOIqQ/lu/qYNXWbQmCACCjiGCCA/Xtc9mykkcqmkMyme91SchauJLtTFVH0D3f1VLkQUMRRLiSHKJ2smiNjiJBWrymGgCKOYuioawoBhUBBBBRxFIRFnVQIKASKIaCIoxg66ppCQCFQEAFFHAVhUScVAgqBYggo4iiGjrqmEFAIFERAEUdBWNRJhYBCoBgCijiKoaOuKQQUAgURUMRREBZ1UiGgECiGgCKOYuioawoBhUBBBBRxFIRFnVQIKASKIaCIoxg66ppCQCFQEAFFHAVhUScVAgqBYggo4iiGjrqmEFAIFERAEUdBWNRJhYBCoBgCijiKoaOuKQQUAgURUMRREBZ1UiGgECiGgCKOYuioawoBhUBBBBRxFIRFnVQIKASKIaCIoxg66ppCQCFQEAFFHAVhUScVAgqBYggo4iiGjrqmEFAIFERAEUdBWNRJhYBCoBgCijiKoaOuKQQUAgURUMRREBZ1UiGgECiGgCKOYuioawoBhUBBBBRxFIRFnVQIKASKIaCIoxg66ppCQCFQEAFFHAVhUScVAgqBYggo4iiGjrqmEFAIFERAEUdBWNRJhYBCoBgCijiKoaOuKQQUAgURUMRREBZ1UiGgECiGgCKOYuioawoBhUBBBBRxFIRFnVQIKASKIaCIoxg66ppCQCFQEAFFHAVhUScVAgqBYgj8P7tjCsmOEdVsAAAAAElFTkSuQmCC;fontStyle=1;fontSize=25;fontFamily=Tahoma;fontColor=#4D4D4D;labelBorderColor=#757575;whiteSpace=wrap;imageBorder=#757575;" parent="1" vertex="1">
          <mxGeometry x="949.37" y="935" width="184.09" height="150" as="geometry"/>
        </mxCell>
        <mxCell id="uaUtL9xpVAdAa3rIVJZg-48" style="edgeStyle=orthogonalEdgeStyle;curved=1;comic=1;orthogonalLoop=1;jettySize=auto;html=1;shadow=0;dashed=1;dashPattern=1 2;strokeColor=#006600;strokeWidth=6;fontFamily=Tahoma;fontSize=25;fontColor=#4D4D4D;endArrow=none;endFill=0;" parent="1" source="uaUtL9xpVAdAa3rIVJZg-15" target="uaUtL9xpVAdAa3rIVJZg-49" edge="1">
          <mxGeometry relative="1" as="geometry"/>
        </mxCell>
        <mxCell id="uaUtL9xpVAdAa3rIVJZg-15" value="" style="shape=image;verticalLabelPosition=bottom;labelBackgroundColor=#ffffff;verticalAlign=top;aspect=fixed;imageAspect=0;image=data:image/png,iVBORw0KGgoAAAANSUhEUgAAAI4AAABBCAYAAAAHQ5xpAAAWvElEQVR4Ae1ch1tbybXPn5a3u+7rbdkkL1+Sl10XMGtjmgEb22vjXa+NacbYgHuhCnWJLkASTSCKqBIgehUgeq+/952RriRkSWaJS+zc+33ilpk5M/fM7545bfgD+IPnwD448Id9tOGb8BwADxweBPviAA+cfbGNb8QDh8fAvjjAA2dfbOMb8cDhMbAvDvDA2Rfb+EY8cHgM7IsDPHD2xTa+EQ+cPWFgZ0+1/psq8cDxMNtb21vY3NpiJTs7HGi2PdT8733EA8dt7rd3djBonUFNRxeMg6OYnl+w1+AA5Nbgv/SWB47bxBNwZBU1+OVZFlLFeZiYm3erwd8SB3jguOFge3sHeVV6xGSI8VRZjJGpKbca/C0PHA8YIODk88DxwJndj3iJs5sfoKUqv1qP2xmij07iLC6vYOs9qWI8cNyBY5c4dz4i4BBWRqfnUFRnQGPfEMasM25v9fZveeC48ZRbqj4O4NjEy/LGBiQVdaAxx2YI0WAewNLqmtubvd1bHjhu/Px4gONck8anrHiqLMKdTBEDj7rViNmFRbc3e7u3PHDc+PnxAMc58I3NTXSNTSApR4LHskL0jFmYruas8fav9gScpbV16DtMqGrpQKG2Bv0jY6+NZH5xGe3dvejs7cfk9DQrH7fOoLKhGRpDO3TtJujbjS4OtddI7HqwurGJJmMXDN29aOzsQUWDAUOWCaxvbrJ6swtL6O4bxNTsHDa2bM8Wl5fROzSKtk4z5haXWL2tnW1YpmfQ0tmFpg4TjOZeEG1vx9sCztTMLCzWaVjnF7Bh90J769PT8/XNLaysb2ByZpa946r9vT3V5Z6NW6cxu7SMzW2b15t77n6mUuIb0aY+9uMTfyNwjP2DiHmRg6NnQnHILwTHf4pEWNwDKCv1mF9ZdYzJ0N0P/+uxOHczEc+l+ZCVaXE97QWOB4TjiF8oDvuF4PvgKKQIFTD2DjjauV/QS2gbm5GQIcS/Lv+GI/6hOOIfhu+CLiEsPgX3MnKh7+hCqlDJ+nosLWCTQ3RaO7txPfUFTl2Lgai8Ao3GTryUFyL64Sucjo7FD1du4dxvd3E3UwxhsdrRznUMvw84zuWCaCysrKHeZIbOZIZS1whplR4FdQZUG7vRNTyORY96x24aG9vb6BwaRWFtA1RNbVBUNyBP1wRtmwmVTS1YXntdd9nZ3sGIdRblDQaU1xswu+ScF+7dKHQyOTuPmjYjqozdUNY2QVHTgPIWI2qN3RifmeOqYgc7mJqdhXlgCGNTVmx5AL5P4PQOj+HnB8/w2Y+BOHY2Et+cv4TjgRdxyC8MX5wIRlKmCHOLtrVUVlaBw/5hrN7fwq/jr2HX8PmJIBw/G4k/BV/GV4FROHImHJ+fPI+IhDR0Dw47BspdrKyuQVSqZQCjtof8w3A0IBzHz13E0Z/C8cXJIHZPIPg++Ao+PxWE4Jh7jCFEw2DsxImrt3E44AJ+uHwTp6/fwaHTIaxPonUkIBwHTwfj8xPncSwgAreeZqJrYPc49gYcbrK5MzA8NY0CvQF3BXLcepVrU1TTSecQ4vYrAVKlBcirqceUI4TBvbXzvLC6hhqTGY8UJYjNFONOupC1J6X3dnou7onyINRUo2t4FCRJuWNrexuN5n78+jQTvz3PgXlskiti5/WNTRj7hyHW6hCXKWbjIZq2seUiJl2AFwWl0JvMWFhewfziIkxDw8jKL0GpTr+LFnfjEziFVXU4FhCOb85HISLuAbKURUjOyMXJq7dwxD8E0fefwGK1MlpSlQZfnYvEt0FR+DrwIpMSITHJeCyUQlRUhueSPFyIT2Fln/0QiFShHKsuX8/a+jpk6iocOh2MIwEX8PW5i4h++BJpOWK8lObjQbYY1x48t9EOuIBvgy7jy3MXEZGYhslZWzyp2dSNMzfi8HXgJfY75BeK74Ki8HPqc6QJ5UjJFuNBrgJ+N+Jx5MwFBqDIxLRdEpADTsxezfGdHfSMjEGgrsHtdCESsiXIKa+EttWI2k4zyprb8SyvBHFZtonKr23CxMwsx3/HeWZhESWNrQwgcVlivCrSQNXYhrpOM7StJogqdLgnUiImQ4hHskIMTNnUASLAgNMzgIQsCe4KpOi1OIFDZc3mfjzJUyEmXYh7uXJItLUob2mHtrWDSbQUcT5+eylAkkCCwUkrNja3UNfWgZcyJWSl5VjZ3IIz2Gsbsk/gyLQ6/M+PgfjHpV+gazOyFhQ1Lq2pg6i0AsPjFseL51foGHC+CYrCl2fDcSPtOVq6zI5yutAZWnHmRiyO/RSBf0ZGw9TT7yjXGzvxl7CrOBwQju9Dr+CZNB/WhUXHgOkLG7fO4n6WGH8KuYJvgy/jy7ORDDhT9ngSAcf/Rhy+CryErwIv4u8R0XgsVGBwfAKrGxusr7WtLWjrDUySfnk2AgdOBeNBrhzzdp3o9wKH9D+FroFNSpJAifKmNvSPjmNpZQXrmxuYX1pGR98A5NUNSMyRMkmiamjFmouetb61hea+YSZh4jIlkFTWoc3cxywjUnyJ1sCYBcoKHVIk+cx6ojqk09BB4GjqGUB8phiJOZJdwDH2DSBDVQH6EFIkeahq7cCwZRILy8sgh+H41DSb28wSNfRdvez5xsYmhi0TaOgwYdhqxYyHeJ1P4NBAD5wOZsvNy7wSTM87A37LLvoNDT6/shbHAyNx7GwEAm7Eoc3cy17K9Q+B7om0AEdJYgRegrahmRWTtHkoVuLAqRAc+ykSabkKxizXttz13MIi4l8IWD824KRi0v5iBgaceLZckqTJKlDtmiCOBp17h0dxMfEhW77+N/w6qgxtrJjW97zqOsZoz7EqWp6cS9TgzDxiM0VIyJahRN+CRTe+cH1OLSwhW1WJhCwZknMVGHWROoPjFmSWahGbJWb+mOFJpzTh2tN5eXUVRXVNuJsrs/tr+rC9vc0+roauPsRniZGQLUW/vT0Bt6i2AfHZUtzNkcLQ0w8CovtB0mRpfR2zLsvo+tq64y3pY3I/fAKnod2EH6/cxEG/EDbRMc8y0doz4LHzgspaJnEO+YciKUMId2BxHcu1NUxZJr1HXl7JHk/OzOH8rSTQ0hIae599bVx9T+f6NhPO/paEw2cuICJxN3D8bsQxHSw67QXGJt0DlDt2CWZjRFltPf4WEY0Dp0OQU6x1MMo3cJwjIt2hsN7AQJalqsTQhHt/zro0OQ1GM+7nKhjQCnV6ZtVYZ+ehsoPhHhkOw+PORh6uxmdm8URehLhsCYTqKswt2JZpfWcP4jMlSMpVMEWcmg5ZJiGrrme6TH5tI1bX1j1Q3N8jn8AhSVBUrcdfQq/gi1PBbGJP/nwbj0RKWOd3O5gIOMfPRbIvOF1ZjE0PyKYhKitswPk+5AoEhSo26v7xSfw19CrrIylLjPnlZZ9vM7OwgJuPM1h90nF2LVXX7+CwXyhySjRYty9P3oiNWCbgHx2Lg36hSBZIsbRqs0YoVuXdc+z8+uZX1/A8r4QBJ0/XiCUv0obrv39kHI/khUjMlSNFrISgrBIijQ6P5EVIFEiRU16B3pFRrrrH88raGgprmxCXJcGzAhUs9vCCDThiPM4rQV2bibVt7+lDukoL0pla+ofZkuaR6D4e+gQO0SMfRIWhFaGxyTjsH8qWk4OnQ9laOzQ+4eiyqKqO6RzHz0Ygt1jjyKBzVLBfKDR2icOAU8Ke9k9M4c8hlxkQUnLlb/R7kB/m9vNsZmUx5dhFx/Ej4PiHQVGheyOjJqzTCLyZyNwMSdlih4Voi457CnI6QUMDX9rcwlP6+jPEKKht2qXsu7833ZNu8TxfhbtCBRJyZLj9SsiU4QSBDHdz5RBrq5n566kt94z0GbK8yOp6mq/CmF1J9gSc5k4zXhSVIz5LAtPw2Bv5wfWxl/MbgcMRGRgdQ6negB+ifsXRgAgcOBmEpyKlw8bP19aAlM3jZ8MhKFZ7B462hkkEUnBzi0oZ+bHpWfzfpV+YonrrWTZGXltiuFHYziOWSVxLe4EDfiGvKcd+0bHMjH8kKcCSQ3I5J9yRCQrA1NePk9du4+DpEOZfWrNLKAIOJ3HG7M7M3SOw3c0trSC7RMPqymvqMb9kczp6qkvPSJqQWZ4gkCNNVgiVoQ2F+kakSQuQKJAjp6zSo5vClR7FoFQGI+KypQyE5GSkwxNw2nv6mWJM0qmpd2CXCe9Kcz/XewYOR7yquRWnfr7NJj/0VhJGLTapI1WpGXAIPDm+JA6n47gsVeQLItObdJx/XPwFZfomrjuP56JKHf4eeYOZ7RGJKZiatSntNnM8nkmcgF8S0OFitbkTIiU4s6AU3wVfBullUru+RfVswBEzM3rU7m5wb0/3ZA1VdnQzE/mJsgRDb4hKk+ROFioRmyVBcV0j5paWGNjqu3qZKZ0szofe1OOwJD31Sf6v5wVlTBkXa2scYPUEnOHJKbuOI0JeneGNKoCn/rw98wmciekZ5gkdn7T5aojI/OISriQ/xpEzYQi4fgc9dkeepETjAI5gL8AJjoKkVMPGRYqjoqIGh/yCmX/lUtJjtHb1eBwzOfkuJT1kJj1ZVZEJqW7AiWMOQ/I/peYqmNvfE6GSWj1O/HybSSeSdkN2Kcfl48Ski5BTXgXLzAwzomiMrj+OZteohZnZtByUtRgd+hZXzp1pwl8VlrElKlmgwMQcl8sMlp76qljNlp/0IjX6R50qANeezmTalzcZGQ2KgrcNDDnG1NDd/5pyTBZUeWML8yEli5SoaO7AlqvIdSHeNTgIq4vV7FLk8dIrcJZX1/FUms8cfQnpQhY3GrRMIF1RiH9e/IUplFeSn8A6Z3NVK8qr7ZMZAUGRBpubnuMlMlqq/MPwZUAYSuudkoWWp4j4FHxxOpjRCbqVhMqmNgyOjmPMMomBkTGo6hpx/mYiA+h3IVdw7OxFRCa4Kcd2Pw45CL8JjER0yjPmqqf4Gulkrd29yMhXsaWRrDKSkFn5Ksf6z/lxSLyTz0RRqYO6vhlqfTPU9TaXvqq2keW/EEcpJkb6DS1tZAoLy6tgGhjGwtISsywpSt09PIasYjUScqTMwqkz9uziD01wy8AI8wWR6ZxZrGEKLrUlE5y8uX0jY1A3tzPPNOk3sqo6WBdskpY5AM2DiM+UMhAPTDrzcczDI3iWr2K+n1RpEaraOzE0bgG5NUjSk47UZO7Hs4ISqJpaMLe84lPicSjyCpzZlTX8/cJVfHYyiPlMTl6NQXhCGv564Rqb2KNnLqBI18DRQWEleZkjcOyncOQUqXcxxlEJgFyjY6A76h+KUrclyWAyIygmGQdOhzLr7Pvgywj8NZGBI/DmXXx7PoqBjjzL35DnmAPOrqXK5gAk7zF5h8nC+nPoVQTF3Ed4YhpOXothYDnoF8bOSZlCUECSOwg4yspaxGaLkSiUIz5Hxr7wxBwZmxSa/JhXQlS1dzncOYOWSWQUlzsmniyn4oYWaFs7oaipx32REvHZEtxJz0VpczsLLHL9cUQWVlahbu1k9QgYD8T5thhVayeLWaUXq5mSSwAVanQYcPMOUw5ObIaY+XJ6xp2eY5KSnSNjeCDNw50sMRKzZSy8QB7s/DoDMkormX5FdOMyhBhfXGK+Ief4PF95BQ6Z4rpWIwsKkoT4/GQQ/vjjOTapX5+LRJpQ4fC2EumCSh2bJApoCorKvSrHck01vjhxHgdPnYe6seW1UZkGhnDp7kN8eS6CAYxiVv9z4jzzYJPZfOLKLTwQyPCvqF/xxx8CERyTDPID0UE6jl80LVWRCItNxq+P00FxM2r32Ynz7EduBQI3meG5Kg0L5rkOgr7egpp6Zh7flyjwQKzEffbLs5+VSMwSw9A76NoMUwuLKG9uR1KulDnyKPWUrCaKB5FjL1WSh6b+Icy+pkA7Ffe17W2o9M14WaxhJjRJPQIs+WxoaSLHoaatC70j44DLkkNjbu4bQmK2hKVWjNg/JG6AtPz2T1kh0tawj+AOxasyhOwDoCWZQP2qUI1ui5VJN66dr7NX4FAjGlvX0AheyYsQlZiGq8lPcDXpIfPtcMFNjnj30DBSskRIzRKho2cAW1vOIBxXh85dgyO4ny7AI4EM7eY+Z5ELIygxqVhXj6v3HiIyIQVR9x7iSlIaHokUMBi72fIgLdEg+v4j5BSWgVI66GDAuR7L9K9n8gKm31Q2trD4WlRiCqLupuLavUfILVHD1DfgSMewDcI2gfSFDlgsaOnpRau5Fy3mHvvZdk33nYPDHnWnzZ0dmAaHmb4m0lRBXlULUZmWRayNA7uB5nzx3Vdk2fWPWaBpbmNgIzOdJJZEUw19eyfWdqkANOYdlhaxuLYOQ5cZpsEhzC159oNNLyygtXcIkrJKSLTVUFTpIdfqoDd2Y3hi0uvHvnuEtjufwHFtQM4tim2s2J1krmXcNbm/6femg6uzO1zv/PK49iT1rHPzTLItvvalAhsbGw7lkNq0dJrhdz2W+ZsyC1UORtAXRwHVlbV1EE3Px+v9e65ne0oA83bQey2vrWJ1fZ39vNXz9Zyo51XVMwssR13N4nav16da3M9Z6mtsVIvFv1Zt43uTk9RJdffVnoGzu9l/5p0rcDIKSphi6Xuk3iffd7v3U1rR1onfXuWy3RYrXjzxtpG8//f4hIGj2gNw3g8Afm8vc8vLMJh7kFGiQXy2DJT2oG1qhXXxzdl9v7ev/dbngbNfzr2jdt2jFmaJUcCTrCtKDCMzn5Tj7NJKlDW2YH555R31vneyPHD2zqt3WpNyqSkyfl+kYPGr+BwpXhSWMbCkl2iQIi1g5j7l61A66eK6Lb/onQ7KB/FPDDjdDuU4o+DjWarIWBidX0JClhixWSKkiPOgbemAeWgUoxNToHydunYTi6aTh5r8SOQj+pCS55MCTnNnN05zVlWByqcF6ONjek9FTmuIkqhyVFrcySDHnxLmsQmsvSZRdjA1vwiRuob5XRKzxWj1EYt71y/xiQHHaY7/50scJ3Asi8uIzxSBlqeKVqMjoczT5JOfhkIhpPfkVdc7cog81X2Xzz4B4DgnoMVkA86hM6Eg4PjyOb1Lpv4e2hTiqDX2sKxA0mXIuejroPhVob6ZhR9eFpWDcoo+xPGJAMfGusY2E9vBQFthBCqNmzn+/n0de5lQ8rCXNXWwLTWUyEWpEL4OytuuMXYjlu3CUGFkwpm54Kvd2y77BIDjZMnYxCQkKg2eCKQsb3l3YvZ/LnDUzUa2tUaoqUH/mO+cY/L0UpScEuSfKlUYdUl5cXLi3V99UsB59+x6+z1QeIBSKmij3EN5MTr6h3x2QltiXuSrmIJM2Ye04/JDHDxwPgTX3fqcWlzGPYFtz5W6uRPTbhsBXKtTDtM9kYIBjXJrHPvSfcTOXNu/rWseOG+Lk/8GHQqGqhpbEZMpYnumlJV1sMzMOpLLiDTtbqCMP9qJSTlBlDHYM2rfEEmg4YHzb8zAR9yUNuE9o226GSIk5cpYxmBjdy/b6ts5Mo4CXQMeSPJYbvLTvFKWCrHpJXXlfbCBlzjvg8t76IPM8qGpaShoz1Sm2JHNR55i+lHyFYHqVZEa2uZWH+khe+jsLVThgfMWmPg2SdC/jqGcZNqs91hRzCLjD2VFeFlYBm2LEb1j444tSbRT40MdPHA+FOd99EtwoB0HgxNWNJm6QfujSOdxhwkB50OBhweOjwnki7xzgAeOd97wJT44wAPHB3P4Iu8c4IHjnTd8iQ8O8MDxwRy+yDsHeOB45w1f4oMDPHB8MIcv8s4BHjjeecOX+OAADxwfzOGLvHOAB4533vAlPjjw/6ERKjLgotbYAAAAAElFTkSuQmCC;labelBorderColor=#000000;imageBorder=#757575;" parent="1" vertex="1">
          <mxGeometry x="520" y="560" width="186.62" height="85.42" as="geometry"/>
        </mxCell>
        <mxCell id="uaUtL9xpVAdAa3rIVJZg-18" style="edgeStyle=orthogonalEdgeStyle;orthogonalLoop=1;jettySize=auto;html=1;dashed=1;strokeWidth=6;strokeColor=#0370FF;dashPattern=1 2;comic=1;curved=1;entryX=0.5;entryY=0;entryDx=0;entryDy=0;exitX=0.5;exitY=1;exitDx=0;exitDy=0;" parent="1" source="HDc9Nho8ilmy6_pK3tJT-8" target="uaUtL9xpVAdAa3rIVJZg-13" edge="1">
          <mxGeometry relative="1" as="geometry">
            <mxPoint x="1041.42" y="410" as="targetPoint"/>
            <mxPoint x="1041.8571428571431" y="240" as="sourcePoint"/>
            <Array as="points"/>
          </mxGeometry>
        </mxCell>
        <mxCell id="uaUtL9xpVAdAa3rIVJZg-52" style="edgeStyle=orthogonalEdgeStyle;curved=1;comic=1;orthogonalLoop=1;jettySize=auto;html=1;entryX=-0.001;entryY=0.534;entryDx=0;entryDy=0;entryPerimeter=0;shadow=0;dashed=1;dashPattern=1 2;endArrow=none;endFill=0;strokeColor=#FF804A;strokeWidth=6;fontFamily=Tahoma;fontSize=25;fontColor=#4D4D4D;" parent="1" source="uaUtL9xpVAdAa3rIVJZg-24" target="uaUtL9xpVAdAa3rIVJZg-38" edge="1">
          <mxGeometry relative="1" as="geometry"/>
        </mxCell>
        <mxCell id="uaUtL9xpVAdAa3rIVJZg-24" value="&lt;b&gt;Multi org&lt;br&gt;connector&lt;/b&gt;" style="icon;html=1;image=img/clipart/Gear_128x128.png;fontFamily=Tahoma;fontSize=25;fontColor=#4D4D4D;arcSize=20;strokeColor=#757575;" parent="1" vertex="1">
          <mxGeometry x="103.53" y="950" width="112.94" height="120" as="geometry"/>
        </mxCell>
        <mxCell id="uaUtL9xpVAdAa3rIVJZg-32" style="edgeStyle=orthogonalEdgeStyle;curved=1;comic=1;orthogonalLoop=1;jettySize=auto;html=1;shadow=0;dashed=1;dashPattern=1 2;strokeColor=#FF804A;strokeWidth=6;fontFamily=Tahoma;fontSize=15;fontColor=#4D4D4D;entryX=-0.003;entryY=0.432;entryDx=0;entryDy=0;entryPerimeter=0;" parent="1" source="uaUtL9xpVAdAa3rIVJZg-27" target="HDc9Nho8ilmy6_pK3tJT-24" edge="1">
          <mxGeometry relative="1" as="geometry">
            <mxPoint x="420.47058823529414" y="1415.294117647059" as="targetPoint"/>
          </mxGeometry>
        </mxCell>
        <mxCell id="uaUtL9xpVAdAa3rIVJZg-68" style="edgeStyle=orthogonalEdgeStyle;curved=1;comic=1;orthogonalLoop=1;jettySize=auto;html=1;entryX=-0.009;entryY=0.892;entryDx=0;entryDy=0;entryPerimeter=0;shadow=0;dashed=1;dashPattern=1 2;endArrow=block;endFill=1;strokeColor=#FF804A;strokeWidth=6;fontFamily=Tahoma;fontSize=25;fontColor=#4D4D4D;" parent="1" source="uaUtL9xpVAdAa3rIVJZg-38" target="uaUtL9xpVAdAa3rIVJZg-14" edge="1">
          <mxGeometry relative="1" as="geometry"/>
        </mxCell>
        <mxCell id="uaUtL9xpVAdAa3rIVJZg-38" value="&lt;b style=&quot;font-size: 25px&quot;&gt;&lt;font color=&quot;#ff804a&quot;&gt;Veeva &lt;br&gt;activities&lt;/font&gt;&lt;/b&gt;" style="text;html=1;align=center;verticalAlign=middle;resizable=0;points=[];;autosize=1;fontSize=15;fontFamily=Tahoma;fontColor=#4D4D4D;" parent="1" vertex="1">
          <mxGeometry x="440" y="1035" width="130" height="50" as="geometry"/>
        </mxCell>
        <mxCell id="uaUtL9xpVAdAa3rIVJZg-45" value="ID/Consent Hub" style="shape=image;verticalLabelPosition=bottom;labelBackgroundColor=#ffffff;verticalAlign=top;aspect=fixed;imageAspect=0;image=data:image/png,iVBORw0KGgoAAAANSUhEUgAAAQ4AAADcCAYAAACBME81AAAgAElEQVR4Ae1dCXhkRbWefdgFF0D0Kai4goIKissTFBVBUXi4IU8UEdT3ns+nT0Rx94k7LghMlu5k9n3fmX1jhtmZGZi97+1O7510kk46vff/vr/ureR2p9NJJ52tU/19N/fmLnWr/qrz33NOnaoaB/VTCCgEFAIlIjCuxPvV7QoBhYBCAIo4VCNQCCgESkZAEUfJkKkHFAIKAUUcqg0oBBQCJSOgiKNkyNQDCgGFgCIO1QYUAgqBkhFQxFEyZOoBhYBCQBGHagMKAYVAyQgo4igZMvWAQkAhoIhDtQGFgEKgZAQUcZQMmXpAIaAQUMSh2oBCQCFQMgKKOEqGTD2gEFAIKOJQbUAhoBAoGQFFHFbIshnzvzSA/m5AJiPTsSaujhUClYPAGCcOkgN/FPQM0qkEWgGcSQMnUsDJdN833u83UwNSnWnyVDot39N5gzpQCIxqBMYgcUghzqA1FoObRJEBzmaBuXoHvrTFj/csceP6RW5cv7iP2yI3rlvoxm3rfHjqxWYcak3jTBbQOptG0iQSIJ2S7++8qA4UAqMOgTFBHJnOL34GoWgcHgCOLPCXF1tx8yoP3rvIgxuWeHDVfDfG1TkxrlrDuKoSt2kOjLPpuGKeSxDPexd7cOMyD364L4RDLSk4AZA+DG2Ee2XOjDppURnuRKCiiSOb6fq60wQhWfz4YDM+vMKDG5d4cOkcF8bVaBg3zSSJGt0gjulOjJvRj63eiXG1ZlpMs1rDBbOceO9SN25a4sbDz4VwOJJGI4C2WNysBEUgna1RHYwaBCqSODIp+hiMXwuAXYEO3LXBh/ctcePCWS5Do6Bg23SMs5IEj8uxSdJhWnbd0F6mOTB5uhPvW+rBJ9d48cTxNngBNHXEzJyOHALpcu5mAZS6sTgjpywmuGpXZgQqkDiMRksN41l3Oz673o93L/ZgXK1uaBYUZEkW5SCJvqQhiYTvpklTreFVs134yAoPfnqoBQFqIHFTA7FoSWWu616SI0Hwx72hqYUB+ErcmoU2lTDJQ5IOe5q6tD/zRWo3ihGoIOIwCIONfW8ogbs2+vDORW6Mo/lB7YJmBAW4L4I+mPfIPJDIqjScN8OJW1d78ccXI2gXDcnwhAxtT0wWrfEEQoDYHHHgH8eahbP35hUe3Lyy79un1/vw9+NtggxpkgVNKkKW5TLIaWjLNoqlcwRnfdQTR7bT8QnhgPzi5iDet9RtaBh0cI4UwuiJjGguVWm4ZKYT923x44XmuOjMFep+usvkKlsb6vzyZxCOxdEEgFrC30514NZVHnx8lQcfW+XFFfMaukw6Em9ftxodl89xiTQ+scqLW1d58d09IbzYEhfvMejdKJfSQspWq0Oe0OgmDtOX0QZgpR7BLWu8XY19pBNGPpHQqWrX8aHlXnxjexBaO1V7ipkhagNvGWY64ssPEa/yhxPtuG2VB3es8eJVc12GGUVTiiTB/DCP0szq6564kwwtRDN5hgs3r/LijjU+fHtXAEebYjAMM0MDUQQy8Nod6hRGJXFks2xwhiAcCMVwzyY/3rGQWoaGcXX6yDBJ8omhL/9T6ChwNTq+sMmPk5EU0hnDdLFqVqU0kk6hzCaFocCu4R88H8Kda724ZLYL454mURhdyTkk0Zf8FrvHSjTs4qb2N03D+HodN6/w4v4tARwIdUC6hlmmzryWUkB177AgMPqIw0Ia+0MduGWNz2iUjL0o1pBHyzUKHJ2otRpuX+fF3LNtZvyHkKwSG0kXwT7fmMB/PRfCh1Z4MIVYkDCoGUgBH2x85HtIIs8Y5PihFV58dUsAe4NRC4EoJ2qJlTwst48y4qAgGOrtDl8U/7rKNE2oZQx2wx/q9FmmGg1vWODGgztDcLSb/o6+jIMx72mNx+GMZfHY/ka8f5kHEyi01C5ITBTkoS6TfB/fLbWrah0fXO7Bv28J4FhYxrYA1hicYZEM9dKiCIwK4jBME5bDME8WOCJ43wqSho5x9RVIGlLAKFzsfbHpuGeTz0Iexb7KJFbj+m+PtuLOdT6cS0ElYYw0M85KIFUabl3jwezTEeF/Ea2WjlyhYRZtw+riMCAwOojD8pV95qVmvHVxg9HNSsGSQlbJe2oI1Tru3uSHQzhNqXjlOk1lWH0qlYQnlsWje0M4j5jQLBhuDaMvdcO6rNbwhvlufHlLCEcaO8zw/NxyDoOMqFcWQGBUEAfNk1gqgyePt+JK4QSlpjFGSEMKnd0pyPKujX5o0mwxySNLYs0apsxCvR1f3hzAZGpismdEpjEa9oy7qW3Ax9f5sDcUQyIt4z8ME7VAG1anhgGBUUIcwOzTrbhqrJKGFHiTPO7e6IfeZgiU8AVkE2hJAT87GMbVMuiNWoZ8brTt6Yup1XDb1lbMPttmdt0aWlaX2ToM0qJe2YnAiCUO0UBM+3anL4rrlplh42NN08gXegpVjY4vbg7A12Y4E9uSKTy6r9HoLeGgvUrAiGWo1fGGhW48ui8MZ4Rh7PwpzcMEYlh3I5Y4pFPsQGMHPsouVxmjkS9IY/F/ah71On53OIyG9jh+cbAJU4WgVQhpWOvUpuO8GS48sCMILWL2uvCDopymijjyEaD6ze/KseYkPrHWZ0SDVmKXq1VASjk2NYqrFrlF8Nt5HPHLmIxK0DQK4WDXMaFexwM7Amiwkkd+w1H/DxkCI07jEL0D2TTcbUnc+1zE6D1RpFHYXyF6WxgtOwYcxXanmJbgR/sa0RozHMHCKTxkoqJeZEVgxBGHtGHnOdqMGA1FGoVJo9CXuZLPUZuyO3HZvAbMPctJE/hT/g4TiCHfjSDiyHKwAugUfbE5gds3BI34g0oO8KpkQR+MspE8bDpuWunF/oAxCcHwk8fYJK8RQxxigFM2DW80iW/si2JcjdOIdByMBqjSHL1aDMmjRsen1vlwLBxDhnKbzYoPTp8+u9k0kpksIqkE2gawRZIJdKSzQFr29vTp7RVz04ggDmoZ2WwG6WwWC862YiIFW5koo1e4B5uYTfK4Y50PJ5qN8bVsPwV/mRQ6Uhm0JRNoTyXgbo9j5tl2PLo/jJ9wO9DSr+1He8N44mgE7nYjXaYfTWVMIql8LWRkEIc5ucyJcAfu2hw0ewhGcQDTYAuOSr9zNvrq45yGiL8u4siaZNGRSuBQYzv++mIEPz3Ygl8fbsE3dzXh9QvcGF/tMLYaDeP7s1U58LLpTnxtRwi/OtyCnx5owR+PRHCihQSSEGSFzqhXQysyM1oRu+EnDtEnb1R6/ckWjOegLqVtKG2jN3IUzlIdt67z4YUg/R1JZNIJxNIJbPZE8PujETx+JILPbg7ighlOTKjWMIEEIeKBzNG5TGMgW51TpDehVhPpn1+n4982B/HLQ63407E2HGyiOZNEPJ0BUpVl0gw7ccjh08dCUXAcBj3nFT3itTeBUNf7Tpr1TlBoH94ZhCOSwHpPDH85FsGH1voxyaZhUo2O8YxvYXe13EgU5cSY6cm0SSQ2HZOqdZxj13HbhgB++UIEfz/eDn9HCgk6ZNJy6oDRbc4MO3EgawwBrz8VwURRycpEKWvDLqeQjMS06px4+ZwG3L0pgLcu8WAKB8nJdkTNtdxE0RsGgkgMshpv1zG5Rsf59U48sD2IJ0+0wRVNIUnTPCUJZHRaLsNKHMYArTQ87Ul872jC0DaUmVLeL2JvDb0SrtfrmMBgOGqrw0EWPWHYSSI6JtbqOM+u496tAfztRBu8HWmkhEOXc450+WdGC40MK3HAdIrOPt2CC+dw+UWlbShto5+mBIV0qLWLngij0Hm27TpdaNXn2nV8dVsAT5+KokUo3KPPbBkRxPHUyXaMs5kTDRcCXZ1TWkiltAH6Q+w6Jtl0nG/X8dDOILaHkogljUmpGQQ5Gn7DRhzGOIMs9gei+OSzflPFVBqH0jj6qXGMNmKhBmLTMcWu47plbvzmWDsigjNERNuI545hIw5ppjx5LIzJNhXwpQhjjBBGPsGZBHKezdA+zkRJHOacsiN46oBhJ46/v9hsTMir/BvKHMkXqrHyP30zpvbxmWf9qNPi4IyrYhzOCHWcDgtxyIV3OLfCw8+FjMFsijgUcYwVouipnHYdE+06LpnZgId3BdFkrogxEictGhbiyJprorI35dL5Dao3paeGpM6PPTI1TZepNh3f2B5Ao2m1jLQu22EhDunf+MORcFewjhKSsSckqs57rnObDkke4RFIHsNKHH85qohDOUXHqFO0L6QpyWNHAI2yl3aE+DyGlTgeP9yk/Bt9aUDqnp6/zJWOjd3QPB7YHkDTCCKPIScOI8w8C3ckhq/vMGf5YlBMpTcAVT5Vx/1tA9Q8anU82Kl5cLY8ab8MT8jH0BOH6Rhd4WjFm5eaYeYjOVS4v5WtnlNEUc42YJotP3whDncHu1syw0oeQ04ckimfOBrGRHqQVTesErByClilpsUFum06Lp7lw4/3NSEQjRuD44YpRH3YiON39G+o8SmKNCpV0AerXNUOvG5FMxY6jRAx+SEeaoNl2IjjDy+ElWN0sBqXSrdyCZlmfa2Oz++OQheLj3PB8aH3dyjiUEJWuUJWqXVb58Qlc4N4aGcjzrYMj8miiKNSG5cqV2UTYo2GS+c14omXzFEtGRmfPjRGiyIOJWCVLWCVXL9VDly3zIOjTZyGkAtxy0CPwScPRRyV3LBU2SqXFOnrqHdikp3xHUGE5FweQ0QeijiUcFWucI2Fuq3VcXG9E0+/GDbUjCFylCriGAuNS5WxcsmRmkeVhs9s9ONshGu3GGswD7axMmzEoeI4VJi9GmZQhjZA4mAvy3QnnjjcNGRax7ARxz+ONWEKV6JXkaOV+zVUms7Q1e0zDty+3g9Nah2DPO3gkBNHVqynCTzrasW7lnvMSYrLwLyqkQ5dI1VYjyysTa3j5TOc+LPUOga5e3boiYNe32wWoWgS3+qcNlARh1LbVRsYcBt4xoHPPutHoINLLWRhrCQwON6OIScOUQxzSLAKO1fCMmBhUdqPof1Q67A7ccXcBnAAqVXOBoM6hpU4/qxmABtZKq8SwtFfH9Mc+MrWoMkVgzeGZXiIw+xrfkZLYlytWsGt4r66HAJu3RQhDR0h1Wj41AY/XO00Vwy3QMVoHMYs51msdrXh2tVNle8gpRopNq6ebm6VJkwkCpaJK8VXa7kbF4SutPKO1PLU6bh4phO/3N9o8MUgBYQNi8aRSaeBTAptyQweP5mq/OH1wv7kaupaZc5BQjKs0YT2eOEMF14/twFXznHhyrku/MscFy4gqRCDkSpslZavpx348ib/oJorw0IcokSmg5TxHKLRVWo8R70TL5/nwo2rvXjfah9uWu3Dm5d6MIGNtRKEifVm0/HKGU5cs9iNH+5vxiJXFIudUSx1RTFPi+Lh3U24YLZLxewMBUGxTdVouGtTAMGYOcXgIMR0DB9xUOsAUHW8GRcS0EokDn6Ja3V8YkMAuwIx7A7GsTeUwN9eimAyv8Kjvcx1OsbXavjgSh+eOhHBOk8HGuPdHXIHmxK4clGDoVkOhfCM9XfYdVw624U/mjEd2Wz5h9wPH3GIuRKzOBmO4d6tAcM2pqBVUqWbKvz9O01701QetwfimDrDNeoFaYJNx/tX+LDVHzNLVnjniKTw+oVuo44rqX5HclkY07F+8MyV4SMOtjFzxvPaEy2YxCUSRvsXOL8hmcTxpe25xLHWExv9xGHT8C8L3FiqR7uxRTCWhj+WRiCWgS+WxiI9iovnKI1jyD6KNFeqNXx5a8Csm+5aYLdKK/HE8BKH6edY7WzDq7mGLL3vlWD3SwKpVOIQDdOBuzYHEU9nO5scTel9oQQe3NGIr24N4Ws7GnHfthDet8qLSdSwKk2jlPU80vYmcXxxSwCxNCfqKH+37PAQR6ezJo10JouFZ1vx6vlU3SvEYSgbUqUSh03Ha+Y3oPZUWydp8OBUaxK3rQ9g3DQN455xYFyVuTFWp5I+CLJ+R/LepuPtSz1YpkVEHWVT5fVzDAtxZE3HaDiRwHItgg+t8mA8hazSGlclEodZpjs3h9Cc6JqqLp7O4LdHmw0/BmM5RrJQjYW8UZZsOu7fZporZR70NrTEQU3DnNpskzeKr28P4R2L3Ub0KBtkuSqUJg8bb09bXwOSekuH6RczrwZKHKz8Ynko1SfE+3vCRJalpzqgD4r3UHt42oF7toZytI3nAjG8cZHbCPziPby3p/yVq1z55WG6orfKzGt+WfubH5lOT89LzHorV1/bnUxvoPsqDZ/dYDpIy9yzMsTEkUEmm8UGTzuuX+rBuGkOo4ENFCD5PCvGruP8Oh0Xya1ex0Xc5P91OqbQJDLv7ablyMq3azgn/1n5vyW9C+t1jGdahRpVf4mjMw86LqhzduXd8l6WZwrfyXfzfolBob1535T8tPLSO0eml5/mDCcm1zMfTlxk13BBlQP3bg0h0+XewMqGDlxo13FhjWbcV6/j/OlOjLfmx1oukZ5ZL3n56Gu5zrGk8bJ6I4+sh4nMh6W+idXL6nRMzcfJmp+8+/PbDNMjfj1ibban8/LTsfwv8CUJ5efDilG5jvmOaiOew7RVcoh+oP8MCXFkhaaRFg1tsy+O67lmbFUZx6gQpDod59o0vGa+G79+oQVPHo/g7y9F8KS5MXaC/3P/wM5GXD7HhXNrNUzIW/Cay1Kea9Px2vkN+K/nm0R8Ap/h9o+XIvjn8Uhn2v84HsGfX2zFx9b6MYFfWTYea8X3hzhYFpsONsDrVnjxu6Ot4Hvk+1kGazleycCqYj6EOh2TbToumunCN59rEvlnOSQuMq2njrfhf/aG8ZZFbpxn043lOVkWlsGu4UNr/fi7iekfj7ZijTvG2RE6f1wciJj/7ViryB9x+tbuJpwzy+wtM8t1fr2OD63x4Q+8r4dyPbSrEZfObuhZa2Ge6nV8bVfIqIvjETx9IoIbVvswocqBT63148/HWo38mHU37WQbPrc5aBA8CZL5sTsxpUbDjctzcSYmxEhiQ/z/cqwVn98SxOSZJiaynkU6Os6x6aKX6VeHW0R9yTRkOvz/+8834fK5DRhXMwTkwXyNauIQpJFCOpvGGncUt2ztMNRZVp4Ef4B7fvFfNceFx/aHMc8RRTyT5cyL3X48R6u8oT2FutPt+PnBZly1yDKZUL0TVy924wf7wpintSMQS4t0ekpLpJcFDjQmcOfGACZySUuGlcvylEocrOwaDVfMdeE3L7TgWU8H6BTPf78shyeawtMn2nAFe6QY8p1HgiTTKXYd9+9oRPWpNng6jPLkA8P0uDF4a5kzit8cbsG/rvF3CVm1hv96PiywM3303fLENGW+eA+HE/z+hWZMJXGQUGs1vHpeA/7vhRbsDMTAzhjeb/3J5/0dKVSfbMPblngMQiYuElPuTc1oRUNH5zv57A/2NeOzmwLYG4yJj5RMj/nh8Z9ebDUw4le/RsNbFrrxn3uasNHb0Xk/77P++L/ctvo6cPEcV5eWzHzV6rhstguPHWjGfC2KVJH6iiTSot0Jk45kn19f1jIO9HhUEwdJI5MRPSeLHS24ZnGDALqsgNl1XDTLhd8faelGGGyciUxWbNbGwGM2Bl679dmA8cVmJdbp+OBaH46GOelr918qk0XSqp9bbjneksTnNgYxSXz9TVIshThM0rh8rgvPnGhFKq8F87XMr6X3U7yd5+vPtOOKeSZ5SCETmoKOe7cF4WxP5ZgVfFDiUqg4vPbbIy2GwFPIqjX8xx5zjgdLmYsdnmxN4p3LPJ1pvGZBA6adiHQrF9NIZbsTPfO10hXF7RsCmCj9FlKYTOKYr7XnZGF3MIYzkcK9B76ONL6yIyTyM75Kw7uXezFXa0NrkrTStx+jfl9BjUGaG7U6XjnLhb+8aNSXtcpk+ypUjwv1KN5Mf9BgksfoJg7jC8cGcO1SHybayzxegeDUanjjEjcYdGT9RVIZ/O3FCH64txk/5tfA0YZwPC3IRVbmnsYY3rHCYww8Y1p1Oi6d34AtXi5wA5AoqL2EYmmsc0fF1/Kxg81YoLXD19FdGF8IJ3HnpqAhLKY6zS9bXwLAxts0YT5Vn27LIQfmIZxI4+njrXhkb7NopIGOdA6BCfI43Y7LSB7Ueihgdh2T6nWsdecGaJF4Furt+OHzYfzv3rAQZr0tKcopSfFkSwJ3bAoY5aC2YNPwv/ubxT3EQ+In8eb7STa8xo3Hz4XixviUKgdePbcBtfnlygJtqQxWN0Txf0daMPtsG5oTafGsTJfCt78xjncs92ICyyVJ0SSOOY5c4rCaTiyLNT/UuC6hWVflwJsWuYVmlU+azHckmcHBxjgWae3Y6OsQ2inTYUAbx+GIiF++36bj5bNceMIkDZlnkmBLIoP60xE8sq8Zvz3SCr0t1a2+FusduJLRtMXMTEmU/dmPWuLIZEDfBtXAd9ERyqHWBLw/IPT0TJ2OC2e58P29TZ2BSGxsrck0KOAXznRhcrWGyTYNVy9y4xs7Q3hsf7OwXQOxFL61pxGTplscm8xfnRMLtChOtSTwxLFW/GR/M765qxHvXOHFudN1TLFpeONiN766PYSlzijaqZtafs+cbOsSuL5qHHYNr5rbgL/lNcK2VFb4JJjvS+YYZTl/llO8mzaztTuUhPDtPU04h19nCnu9E/eZ2obMHgVj9tl2ITiTpzkwudohzIfPbw3i0f1h/PaFFmhtSUEmAhfps6l34gNr/PjpgWY8spdmXC4ZUdv6+cEWgS3v+eWhFnxtZyMm1ut4+WyX8M9YyaYjlYXtVBt+sLcJ1y33Yup0pwhJf3BHCI+/0ILGeC6mcx3tuIpfaLNc0lTJJw6Wk+TxUksSf3upVZSJ+fn14RZ8eK1fCPuEZxx4eGej+ChIXNhmSPq/OdSC/97ThFvX+/HmxR68d6UPX9kews8ONuPBXY24SAzUM3wj581y4Uf7wjmEEEtnYT/dhv/c3Sh8ZGx750134gtbQ/jD0dxykbR+fqgZr2CaEuee2nl/zo9K4kinBWls9sXwHqqrgjTy7NT+gGF9hsDYNLxlqRcnWhLC9GBDoCD/6WiL8OjT/hSNzPxCTarVMbVWwwWzXOD4kSsXm6q0/JJR0Kc78dnNQXx6YwCXzHRiaq0Dk6iasnIFsfBr48TEag1vXugWo0BlA+SePofOrsi+EAffXaPh+pVeRJJdWhMb81pPBy6d58Ik+i/k++26ePcr5rqwLxTvLDfffagpjmtX+DCuxiHiYqjpWb+q8xzteMOCBqM+LOnxaz6l1uhFYtk/voHahulLMDGfWEcsNEz+5xl8aXMIXTkFlro6MNWuY2q1A1NtmtgmM/1qDdcs9+aYAyzX4aa4IN8pNWavGu+lhlSt4YJ6HX861ooWiwnBrzhNSg6oE2auWZ+FiGOjN4bPbWLd6aJMzM85Ng0T+A6bE+9Z4cMGb+7YmtORFO7eHMQ5NRom12gYTz+VmaeJNh1TbbphgvK9xKNWx9VLPKBmZv2daU3irUs94mPV2QZYXzU6LpzpxJyzbbCEvsDZlhJO507Tx9q+B3o82ohDBndt9cVww2CRBkE1ieO6lT60Wz5nJA5+OSfTZ0Hi4H1yMxucaKQ2HeN7cE5NsjsxQTaeHNKgMBlfHKFiPuMQ6qu18cw6246L5VeE7+vNVKl3YnydLsK3ExYHhrcjjTs2Bg0SYh74XlkOChCDe3aEQAep/PFr+1FGblYbxEEhsv5mnm3Da2ijs0dLpsW9BRcOXBPjhvIbLu+r1TCpThdfcmu67IoVAXyS4ISQapg03SkI2hqWTgfsN5+jNmIQv8iHrE/mgxrdEg+OhK1CmUX1qQheR9XeFGjmOZ84SErf2RPGxGqH6Sw2CZ/PEL8qDT/YHxY+FZl/PlN/uk104ZJwRfrCzDTxlthwL/Np1/GRdX6ELSxA8+S/nw9jMu8RjmpL22P91er44GofqJ1Zf5+haSs+cIPwYR1VvSrm+JMvbGYDHgTzRDZos+Fdu8KLRot/g8LDxvmTA2ERhzGesSJWApHPsyEwDfm/dc9rssHwC2Ru9Bmwe3HSDCfGs5H984zogbE2BJpmbydhyjSKEYdoUBresNiN1e5c7eBocxLncnzH06YQsDFat2ccuMCuC61Dvp92/UfWBYQdT0He5MslDhLs9NNtuGqBG+MZEi4auCkgsvwUMG7yf7kXeOt4/xof9oVy013v6egykXg/763V8KalXuzwx3O6bc9EkricvUCsE5m2dW/XMWWmCxyKb/1xzAWnJxBfZ/o7ChDHs94Yrl/uLew3YJlqNfzsULM1WRxpTuCOjXJ0doFyW/PGY5uOS+c14KnjkRzt4UxbyuhxYX2x3VvrisfTHDinVsfWPDKnpiPKVAjz/HeX8j/rYNQQh0kaM0+34pX8spHpSylsqffWOUGVnaYJnYjWXziREXblD/Y04eNr/aJbUoyhoLD2RBjy/RT6ag3XLfXgv/Y04cf7m/HIvrCwlekM+/0R+j7C+N6eJqzz5ArRNn8Hrl9pmkBMpzfiqNHwwTV+xMQ0A10laIim8L3nw2LA2MO7mpC/PbijEd9+rhGOtq4vGJ14t23gF8wQrO8+3wRv1GpUQNjkcxxRPPp8GCR3YWOTXBlbUKzxmmbXV7bTP9DlgwjFUnhkfxPGE1P5PI9rNNyw2o9IMrdeTkeSuILmEutB4m3d252YNNMp4mfy/Uef5teZz/VAHA/tbgLNUUHa1jSZH7uOKxe5RTd7F8oQTlsR2NVTfqzp8LhWF+agq61L02N6oXhGfEQe3N7Yra5Ydw/uaBK+lZOtuYT4beFnM7XY/HcN5H+WeTQQh2GiZLHFF8O7+cWV3v2BFL63Z6nm12rCrmSMQv6vI214yQ+E4vj1oRZ8d7fhjBO2ciFSMxv/lOlOfG5jAOs9UbQk08IU4teazi/Re5DOIprOgs5L2RMh373V34HrSiEOToSzxoeoGMUoUzF6dNhVSAdoTxv9AJW3ANUAACAASURBVGlLVwLzct/2ECawHDYd589ydbPn+Qb6c5l32uT/fKlV9LB8bJ3fiIzsSRMgcVRrwvToyiWwyRszByhaiIDvr9Xw3lW+HAcus7rW3SF6rop9VEhCNAWsPgTSz6c6TbfCGsc3nms0NBkStrXtmPm5Z2vAnMS3qwTsbRF5KYE4rl/pEz1dXalA+JJIkj3VlTxPf4319+vDzXgZY0MKtUdrGUo9ZplHB3EYDPzgzhDYT96N9UsteF/vZ4g5PdwHmnuMv2BFUfApaAxC+/7zYRH7IdRJAizfZX4xGVnKOISu76q1qosf94c4blrjy3EgFn9Dz1epdZE4Or/+Nie+tC0kujS7h1sZ6ZAMSVC7Q3HRo3HNUq9ocN20MpM47sublGiJs8Ooa2vDNwX1Pat8aLL0kERTGTz+QrNwTndqJxJ7677OKcy3/RZzpS/E8a09TabaX4A4anR8b284h2iJAHtBJNF2tgNrXvKPa3XQr8bgwHL8Hj/SbJg4Vvzy39mf/0cFcYjRrlmsbWjH29j1Kn0K/SlwP56hc/FlM5z4zMYApp2MwN2eq0ZaK5hjZejI+uORiOEolBVGwbDp+MLWIOhlt/7oQ1mkd+CvDNU2Q86fPN4qYip2B3NVz+EkDuaZvUFC22PDqXeC4yM+ud6Px4+04qVwl1ljLZ88jqayWNXQgeuXST+BRQCJT5WjW0zKMleHcILmfDF7II5IKovHDoZx7izG81gIO7/O65y4arEb+8pMHN/fF+b6ZrK4Yj/cxPGfexoxmdjma0n5mJT6/+ggDkPQvrQ1YNiYzHSpBR3I/XyfTQd7BBj++/WdIfztpTbUnGrHS825gi1bDTWQ6pMRw1FHs8quiwCq/J6ILf4YvrO7CVcvdONiTjw83dw4DX2tjp8fapFJin25iIM2tP10uyCqp060obeN3cAcU3E1iVuSITG166IrkgPU7toYxF+Pkfzacpyq1gLQVbTBE8MHV3tzv97EZ64Rk2G9f5W7w+hJsL6zB+Lg3Cuzzrbh5XMtYduF6r3OiWuXe/BCOYmj1jCzmmK5emS5iIOBYzPPllZfHB/0TgYgErtyywzTG9GminCIZjH/TASvXWBGwhVqDENxjhXAfvc6Jy6Z7sSls1yif54DxFipVMutP/5/1xY63AzioDORtqj19yAHatErLrpAzT2P2eX3jEOYSNb7+0McHEBG34n1tzsQF2NQXl6n4xXTnX3auOgwu0C7kTa/ZrXsZtVxCcmvnlqID3861iIGh7FHIP/HaE7RoEWjNsaafGZzEJ5ortayWG8vrHGYztG2POfosXDcaCc9+RTq2GvlwiMHmkTErjVfvfk4ejRViIldx/tX+7Azb35UDn4TGnJP+cnHs1bHu1d6RZSrNW8c5MegsZfb+l5frFcRaFdu0mCeRzxxmPOG3rctgAlDMeovvyIL/c/GTuEWcQcUFCdePceF3x9tzel7Z8VzFitGbZJwGMhkFV/asZ/kWBb2OlD4GJUp3yeEUeumcWzxd+BdJTlHddDZxohN6+9QU8J4J7tNzbL0vi/y5RLjPUxcajgqWBfk+so6HV/eGsKRvGAmRsW+bqHZM8ay1mhidK01j2dbk2KiaRHDYTU92GhrdVyzwoczrbmkdDaSxKt66Y6dOsuFbYHc0bd8L4nLEPLCztGixFHnFN3bHOVq/S13deA1DNWXBCnrt6e9Tcebl3gMjc3SWGjeTiHG7I7tc30xnsZiDvb0zv6en+bAHet8RnFH0nwcsidlg7sd72BPCgEbDPYsBpzJrJ1drbyXFSiF3BRwBv9wgNKBplwB5cjWt9Gmt+lY7zHGqMiGxVG0t3f6DPIq2Ez3Z3mmyjZ/THyRREM0Ba7oWBXO1zDHhV8cCudoHRyUJfwVsntRlqnYPh8nET9AArUQinxe5J89JQw918SYC1lu7g82xfHxZ31dWkeNhgd3NVlvwRJnFOcxvUJfa86JMduFnx5qBnu35K8hmhZry4jgu0JCY9dxzkynGHEsn6Fjd4uvA9cyRsNmaA8k8vwAsKLEwXZSpeGxg7mmJcfHPMTeGMZekDzyMcz/v86Jc2a68B97mmDVpqipfmOX6ZxlOhLnnvb56Zbzf5aVI8ZnN+B3B806G0kzgMl5DL+6zS/Ce4eeNHRcMNuJT60P4AubgkZkoZjn0kJgsuLYuGs0bPd3+TzYnDl2Q8QV2HVx3NVYIca/iK/cP88awmetXDaOaQ48ciA3oIiq8A0rvUYj7AtxsJJrNHxgrfllMDPALtN9jXH8K8dYUOORWg/v52am3XmNphPPM4+mQN6y1ocHtjfiGvo9zCCkTuGQuPDeJ8+KgYDWsrP36RoRyGa+q8qBf8/rUZmvR418FBI45qVWw42rfTmD9mgJ2k5FjEhTfp2lpsL7KbxcNHlbEK48B/dXd4SMiYt4P8tu7wdx1GhiOMHJvOjNPaE4bljhxbinzho4s63wHXwXj9lLKGJdzHZVq+P6FT4xIE5ixrbkaEvhS9uCRjmoKRIXloubqC9LWiwrz1vbVLmOmS7XkN0YAAdEjrzJilMp8Bv90XW+rjDmchW+t3QIDgevLfGIKEMOHaej69+3hfABCi4rSgqcGc13+4YgHG253Wj3bg9hEivYruPOzd17VDho7WOrfMaXVabHRlHlEAOYOALX+tvhj+HGUoiD5azVccXCBqzx5A4eY7rb/XE8sKMRH1vjFSQpGqONXz0nrl/mwT2bgrhva0isUH7ZfLfZ4I0GO19vF8sTUDP41i6m4TMiPFkOlkHsz4oh3gwbt/6ePBHBZFNA5WQ+392bq3FwtTbhUylEHGa5LpvfgGWu3HJxJPN39zThllUmwbJ+ajS8fbEb920N4kRLModsuJDVW0RvnSlsZr5K0jiYH85gNt0pBjlay0qFaLU7hq9va8Rta/2Gw7yO5pBTTMp854YAvrg5iGuXeYyuWw6nn9eA2Xmjc5nmqdYE/mNPIz6zzi+CE0V9MahtuhNvW+zB3RuN+rp/eyNeyxB6Ene5CYTpVWuCgEU5B2H92P7PAMbowWwW9jNteI0YQzBI7NkTgZjE8f7VctEZY2i3J5oG52X4j+eb8PlNIWPbGMDXdzTicFMiZ0g44zoYQyG+xnSqTtexxp0rQOy65XO/OtxsphXCPRtDgqA4Z0V+r832UjUOlq/eKRyX717uwfZAbiQqK55rkxxtjoth/ZzFi0sq/uxQGOvcHdDa03B3pOGOpvGO5b5OlZuRu4fChnZFwaC/5nA4gZ9bykF8KBALdI7y7TInOlIZMRuYMD351bXrYtlK+j2sv9XsUaHm0hNx1DvFGJD3LvcK7cn6LKcq4KA8RubesyGAr+9sFEPdacpYf8T/7i1BTK23xAb1lziIdZUmtLgTeb4X+qaJM0fJclW67+1twn/vbRJjZM62peCMplFzKoLzZho9QvQRvW2xGysacjFh3kPxNE60JkV3/UOsr+ea8OiBsBgQybRYXxyLxBnLRNuTWldPbb0/56dpuEvON5ozJNGKbv+P+08cKcNX8LmNPkOdKzdr9gaWIA4d71ruFcFa+RCw8vR2uaVAn0H+j47Ry9kTxIYv1FJN2LuFljFkkFRXemkxmxZnueoSNyN1diFyMJORpmEefTFvQaY1hRZkojDUasLzzzEXhX7s8iMB8ItNgcr/PXqgBRczRsKm4bULG0RMRv49JEtrOVxRTumYW4pVrna8dYmpvfCLWKvhi9tCaLYs70ieqTrVhgmCOIp8NExtjuNBqDnk/4x6MuonLxtwR1N4/EgLLhLTCFpmVjOJI/+LX9THIdsTR/nadXx+c0gMv8/PD/9nbxvbADfrAD0OvOM4FWG+MA/Vhpa0PE9bk2kyZF7WVzhhzLcrr3H/52MtYrY30VbKJT9Mh9NfTnfi+7vNCaXL7Bhl3gdMHHduMlmzXAWXFdyXPVXPOS4xNR7V4bN5gVvWSrIec4avWWfacc0yrxiZ2qkq1uu4eKZTjEvhgskU1L7+SCI7AjExE9lblnCQm+lrqNHw9V25K7k9F0wIB1u3LzWfqdXM2amiQtPp6/tPtqZEr5HQ/ji0fYYuptHj7GAvhLv8OsXS47iW+Y6omI9CTIEo1GhDQCiU1h/T/Oh6v6Fm91b39U7Ri8PZ1Yhrfpe3NV3j2Bi68M1dIVzKcGyBpYWcTOLgtAPW3/f2hbuEulj7YcxPjYYvbg5hrhbFyUiuw9yapvWYPidOc9DpDGa+OHXAEg+mn20vSIzW563HnNzHdjpimGAk194wLFYe6zWmU6vhA2t8MHw5tAz63o6teSx23C/iyDBSNJuBozWOW+jfsHrtrYUYomPGbbxxfoMIt17o7BAzbtNm3+aPi26zvaE41nti4jxDpDlc/TVySUI2Qms+bbpYBPsN8xrwi8PNnWlxfstCG99DH8JPDzbjxhVeXD7bJSamMZyUhv/ilvUB8SzvpS39f0dajUlv2fCs7+Yx81Or41/mNOATzwbEPJZ8Tr6bzzO6U/4v38/lChikJibyYePhJMX1Oq6Y04A7NgRQc7odqxpi4NeRQW6cy2N/KI5NXgMvpsvpAV83pyF3OU6SR1X3HpUFervR/diTmZJfLt5Xa8xh8uODYTDilHmXmMhjlosjT9/DCX74DJ2T+UIlyufETw511Q/zf4eYfc10Rua/3/q/aV5x6oV/meXCvVuDWOKKirzw/dY8yf9ZxzRfzuVkxdZ647FNx6tnu4SmOcvR3pkOny1UX6wDfkyuWezG+WLy4wLtwJrfUo+rNHx58+At/0hC6RdxZE0z5TeHmnAJowDzha/Ugg70frPHZFK9E1fOc+NN8924eoEb71rhEzM/fWiNXzjeeP6qeaZpwl6GnvLNgLBqB14204Wr5xvp8dlCG69fNa8BF7Ixsju6QLqcOEg+++YFbjHTdc6yAfnlp2DQ627T8fq5DTl54ORBLJtMj3u+n2H33d4tz9kNAmFe3zjPjXcs8Qhc/nWdH+9c6hFpMV/nsgzMv5UMSBzVDtBWt/5oJgjHHrHPz39P/zM/tZqY1OYNZj0x/yyTtTwM3BMfo17SvnROFzbMP+ee7UYyPeWFZWV+qo05RoihrGviK/Jk4izrmO2hYPqyvmp18UGylqVQfb1xvlssN9GtvnrKa1/PMx/cajX84JD0vXQ30a312N/jfhGHXCz69g1+Q1iY2b4WbjDvY4OnwLH7jHtqQiQBbhQIeZ4Nhg2nWF4EEZjdZ3yu2CaE3LTB89OVDdT6PPNV7N28Jp+T5ZHP8/9C51imQmnKdGT5mY7MLwWTZCfT5v85+Td6m7jS/Iwzucs9rnR3YCLfZyWZQu8vdI7vsZbBesy8MK99aVPEUead+/7kReJjzQOP5SbT5/9sRz3li+nwmjUdPpufjkyvP3kthKX1HN9v0/G+zW2gn4pWQSbdNzOsVAIZEHHcxgChvlaytYCDecwKlBvfI+10HlvP9zUP8pne9r2lZ32+t3ut163P8ZjX8s/J89bnCh3L53hN4FIgPetzvOcZB/5tS+5yj/RRcNBc5yhc6zN9PZZ5kXnP/7+/6fT1ufz7rO8vlCd5Lv+5/P/7kk5f08pPuy//P6Phq7vbwSU5kU0jbS63Wiox9Hb/gIjjMxtHmMbRF2DVPYU1E+IiNDRL1GONMRcpF4Wy/jjnylUL8gbTKVx7xnUosKG2Ue/ExTOc+MXeoFFdg9CbItuBIo6hqNQR/w7DAXnlArexhACDw546i/PrnPjO7kZw1i7rr4aT31DTHAx1e8Rj1YuJO5z5n6bh1rU+nG5ht/fg9KbIdtA/4jCdo59cL+dtGMFgDmdFjpZ30z9i0/D9fU347ZFmfGCpBzcscuNH+8MiUEk2Fu6DcXNhIz7Tk19ltJS7UvJpahvn1jnxMxndO4jaBttBycSRZcRoJgV3LI1bNzcb6i0zXimVMBbLQQKY5sAfj7WK5SUONCXA8RtNeUFmsUxWxIpcJLoke3DGjkX8RkKZqzS8b5UXhxupbXB9zdygPiv5l+O4ZOJIJY1gou2ednxgY0vhfvaRAKTKQ9/J3K7j7Ys96ClilQ2NpPHPExG8llMQ0EzhQlYK4+HHwNQ2ptqdePR5M1J0EELM88mmZOLImPNv7AoDb1liTrKqNI7hb0D9FWL2nNh0PPBco5iqj+NZOJ6Co1NfbEmC2gc3rizP4DbRvahIY2TVd5WG96z04qBYtoLaRvkjRQdMHGnTv/GsK4L3rGsyHGSKOEZWQyqFRMzuaq5AdstqPz68ygcuCXn/ziA+vt6Pm5b7cNMKH17FSFulaYy8eq534sI6J3613xzWMAgjYfNJg//3T+PIpnG4OYGbN0eUqVKKkI7UexlXwK7YaWYwGFexI6GQKHiOWy9RnMpsGQY/Hz/YVRo+vt6Hk83mwMgh0Db6RRyCfdJJcHjRR9awV6XAWIKRKiAqX337Yqoek77hNNztqcaByxY04pnTxmC/7BBpGwMgDmMeyds3cIBbkTDc4QZWvX90CICqp9LricFec/z45s4QzrbGhV8jO0TaxoCJQ0WODoN6qoSsdCGrNMxootRouPO5DnPoPB2igzOYTVgYBf6U7OMQaZg9K59WIeeqEVeaUI6G8tTqOL/eib8fNUYsZ8s8EXEBnuh2akDE8cmROMhtNFS8yqMi3P62AZuOKbU6vrMziIA5EkDMj9NNtAf3RP+Iw+ySvYPEoXwcSgj6KwTqudLajt0gja9uDcBnTuo2lH4NKxX1jziEqZLFP4+34LL5g7DStmpQpTUohVfl41Wni+VVv7jZD6+YujWLrFhF0SrOQ3fcP+Jg/tIpcI6hTzyrhtarGAblJB7UNmB3Ynytjk8968fRJnOeVY4ZG8bfgIiD+f4sHaQMFFLRo5X/1VOazdDXsd2Y1eumlT5s9bQbVDGMmobkqgETxxe2+DGJUYWKOIa+USlBrmzM7brQNLjA1zK9a+GvwZrVS5JCX/b9Jo4s/RzZLFY62/B2rrLFNT0VeVR2Q1ZENXT1a9cxuVYTq+9tkt0nyGI4elAKEUm/iUMkZsZz3L2Ni/Zy7VI11HpQbV0luEMnuMOJtSANHfdu8eNwSxowJxzOjAATRZLIgIhDLpPwrV0hnDNjBCyTMJyVrd49NoR6MOuZGrvd6D352tYA3DFzMp4hDCWXxNDbfkDEISb1yWawLxjDrTui5oA3pXUorUP1spTcBjiw0Azuup9xGnGz12QEkgZJZUDEIVgpkxKzlN27LYiJXENC+TnUl3cwv8qVljblpU4Xi3O/dn4DfnigBcG4Zdq/QZ4CsDfNoqfrAyaOjBlFus4ZwXXL6SRlD4vSOkr+4lSaQKjy9P4BIWnYaJpo+PetQSxr6EBThzFnqJjbd4SSRnk0DhYukxartn99VxgTbfR1WFYWVw2o9wakMBpbGAktw4kJtRq4JMUj+5vhi2WREURh0TZ6+tyPgPMD1jhYBhn6yukEr1tmLtSjTJaxJQyK/Hqvb8pEPaNANUyy6/jGjiBWNkTRHOfAk9FBGJKzykIcIrF0CqlMBj86EMbLlreqNTeUIPUuSGMBI5MshO+vRsPEWg33bwviyeMRBOMZZITzc3SRBuW9bMRhTGKcEes63L47acyGrXwdSnjGAjkUKqMkDHOB7Ul1Oh7cHsRfj7XC3Z5EnGu6ZjgufvSRRlmJg10r2XRa2GnrvR24ZonHHHKvHKXKUToGumclUXDPpTGrNWGSfGC1Fz/eH8Zfj7XAF00gxsWgU+aiSaOUNMpLHOROOne4QnYmiz8cCeOCWWrdFUUaI5A0rELO40IaQ0/n8p+V/9tdYsZxDvjkEIzvPx/G44ebsdXbgUgqiQQVi1TnJBrCuh/Nf8pmqnSCIMgjg9ZkFres8ymTpacGqM6XJrDlwss0HcTCUow74sjuvi6ezftqDG2i8/kqDefPcOGbOxvxi/3N+OWBMJbr7Yik0hAuT0EWRjDXcE260ymbZTwoP3FwnWxzDMsaVwRvW9xgkkeJzF6uhqLSGR4BHWm4UzOwabh+uRs/2duEx/aF8di+Jjy0M4Srl7iNqOcqc12ZQvsaDVcubBCOzR/ta8Sje5vwo71N+PmRDvz5SDMCHSlEkgnQa5FKSlOEkjo6fRi9ccygEIf0d/Dly50RvG2RW2keI02Qxlp+qjW8c7Eb/JjFkAUX+KCQhxJpLHC0CiL4/p5G/KDA9j+7G/GjvY2YdSYCd3tCaBJ8lhoF5xaPpjJAzurwlUkWVjIZHOKQbzDj7JfqEbx1odQ8lLO0JJt6rAl4uctLTaNOx+sWuFF/otlsmTQdKNz0yRlrBJEASAQkhPyN5427qE4LA6TreVSeGSLFt9h+kImjawHcpXqr0jzKLRQqvd7NMBLHNAe+safVFH5z8JiUChGtyX9MIim6ZwdA3vMynTG2H1ziEPVhIQ/NJA/akBwNqBq+wmCw20CVhg9saMMGN2fI5VS5nbrDGBP18hZ38ImDXM6JVU1mX6pFcMNyr+Gdpod7sBuOSn/sYlyl4er5DVjliSOZMWYFFyED5ZWhMZnakBAHkRXkYc7MvCOUwnf3RfD2VWGMq3Jg3HRFIIpAy9zrVqPhTfMbMPdMiyHY2Qyymcp3Wg4Viw0ZcXSSBw8ySQRiScx3tOGmDa0Y94zD6A5T2sHY1Q7KWffVDly7KowFTrEAidB2xYdrqKRqDLxnSImjC08yv+FkWudP4IHnWvHuda0Y9/RZYz6PcjYildbYIqNqDdeubsb00xEkzYXDpJnc1f7U0UARGCbioO3CeTwM8nBHE1igteELO9pw+RwXxk3TDA1khhPjuCnhVxj0pQ1Ua3jzAhcWuBJICauky7c2UEFRz+ciMHzEQZ2jczUqg0AaAfzjWBh3rvPhqvluw4RhDwxH2SoSUeRRjDzoCF3gwryzpk9DxGgon0auuJfvv2Eljs5idPalG11lQQD2482451kf3s/pCDlGYJrD0ERkT0x/NZH+Ples0aprw0NqrEuOHanS8JaFDZgnHaFsWJ1tqrOVqYMyIjAyiEMWqLOyGccHxAAcigIPbA/is+t8uHW1F5fONUchkkjYIyPHFZBQGOyTL8RijILRuMS94jnGkRS4N/9Z9X93PEcKJowDqnLgjfPduGuDH0scrbIVGaO0O/9TB4OBwMgiDlnCTgKhqpkW4wG4amZDBvjjC2F8ap0Pt60xtk+s8eKmFR5cPNtVeKCSXcfl81z44AovblvrxadJQGu8xpB/FYRWOjEMp8Ym312tCy30+qVuzD7VAmmcdEV/yoak9oOFwMgkjoKlNUiEl9hQOOqAG82a3f52/OpgI+7caGgl1Ezkds8WP544Gsa+QBT0obRxYBOAD64LYlytWn2um4ZWTKOQJmOtGXcjBbnYM+W4xvcIDUMTJutbF7rx0M4g9hvBoJ09dKrLtaDgDMrJUUQctFutGPCfLjLhFWolTXlbh/URobvwmQz+eiyMK5YE+j4XQzkEYDSnUe/E5fMa8InVXmPMEeexkL1fLFe5SUSmR+2C77HreNcSNz652ivMEg5EM8amKn9GThMfon9GF3H0AEranP/DiA1hD03+BnTdw0SyCHakcNOmiOEnKeQbGc1CXu68i4FiGj61wY8zrTHMd7Ti42u9+OhKL960qMGYDIfCzYlx5KQ4UvD7mhd5v5xox0zv7YvcuGWlB/duCWBvO9DlyeihMajTQ4JARRBHqUhlxJyPwHd2BvGKeX7lKO1NuOucuGS6E/93kPqc8aOZyP+WBzP4yCoPPrzcg3cvdeO8mU6DQKTT2ronscjNel4e1+i4ZLYLNyzz4MPLPLh5jQcrna3wAxCaY5ZOc0Pt7OrKlzlS+6FEYGwSB2eYzqbhaE3iw1vaMK6G42VUL0tBDIS2oePmNT6cbYkbK6dn2G1uaHXJVEL4juhrOhwF/uf5kHBEv3+pR3Slsztdbu9d6sH1Szy4cVnXOXmN939ktRe/OhTGqRQQMIlpKIVBvavvCIxJ4iA82TQnZAF+uDeEC+Z6u1RsRSC5JGo3tI3fHTK0jaz46lsbmKEBCCLJpgSd+AC42Atm2fj/yQSwJxiHlsm9xvt4neRjpEbNwggK5DSUakSrFe+RcTxmiUPMi5pNQ48k8bkdrZhMr72K7cglDWobVQ7cu7sNYSHHWWQyRoxNwebb2Y3Om3lfoa3YNcHoBZNWJ0cWAmOWOEQ1CJU7i3UN7bhsnunkUxpHF3nU6LhsURB1J41ICTkJdb+bcDarJtLpN3gj68GxTRz8wJlrXdy3LYCJ9OjLXoGxTiB2Jy6o0/Hr40k0xQ3NIU3fkPopBMq5BORoRTPDqeQyGZyJpPHJZ32myTLGJxaiiWLTcffmABpaGfjfi4kyWitf5bvfCIx5jYPIZVJGONFz/ijescwj1t8oOO5lLGghJI0aHa9e0IAlZ82oiW4O0X63N/VghSCgiMOsSGmy/OxAIyaSIGq1Llt/LBCGLGOtjnPrdDy6rxEJ+jGzWWSUiVIh4l6+YijiMLEUwpHNwhtN4+5NAYy3WaIgpVBV+t6m4xybjm/vDCIslDBjgt/yNTeVUqUgoIjDUpNGWHoWpyMpfHqDT6w2PmacpSZpPLwziCa5goBaQ8TSOtShFQFFHFY0RBgBpcYgj9ufHSPkQdKo1fHQjiBCgjSUppHXLNS/eQgo4sgDhP+KnhZBHkmQPCbQ31Gp3bQ2HVNrdTy8I4hGU9NQw9MLNAp1KgcBRRw5cHT9I4OdTkVSuGO9DxNJHj3NMjZafR8maQhNI2kEeyvS6GoD6qhnBBRx9IwNshyun83iVCSJuzb5cREXjiJ5jPbQdIbX23Sca6d5EkBQkEYWWdV7UqQ1qEtWBBRxWNEocCzMlmwWrgTw1PE23Ljcgwkkj9Gqfdh1TKlz4oq5Dfjp4VY0izEotM9UVGiB6lenekBAEUcPwFhPy0mAEokEDjXG+hI4hwAABG1JREFU8ekNfuEXMLSPURJlamoZU2062HOy2Z9AY5RRoebynNYCq2OFQC8IKOLoBaCcy+ZEMmejGfzvvha8fn4DJsh4D0ZcjkRfB80qu47JHB4/y4VHDrSgyQiU7Ry6nlNG9Y9CoA8IKOLoA0jWW7KmSu+PxrE9mMK/bW3E+XbdMF/Y8zJSCISEUadjol3HeQzq2hHCancMwahcT1XaKNbSqWOFQN8QUMTRN5wK3GUsL/hiUxQLnTH825aQiIUQ/g8xt8cwkAhJy3z3OTM9OK/Ohfu3BTHzTDsa41lzQhxFGAUqU50qEQFFHCUC1v32DDLZLI41RjHXEcVXdjRiit2JSaL3hT0wZi/MYGkigixIGKZJYnNiqt0pgrk4j0ZDNIV0xrRNOifa6V4KdUYhUAoCijhKQavYvdk00pkMjoejmHW2Hb893IJ3L/diUo2OiVyHhAQihZx7uZXiF5HPWNOx62IeERIV3/fHY22Yq8XgaU8hLSf3NUPH1RR8xSpQXSsFAUUcpaDVp3vTSGWyaIknsNUXQ82JNjxxtAW3rPWKCFRGoXIb36mRWEjESgyFju26eE6kUaNhot1YsuCvL0ZgOxXBVl8HIvG4SRjMrJwPtE8ZVzcpBPqMgCKOPkNV6o1p4VNIZhLoSMaxNxjDUy9F8PRLEfzzxRb8ZF8jblrtw/g6XQymG08y6Wmr0TCpXsfNa33iuadeahXpTDsRweGmGDqSCSQzaWSFSaLIotSaUveXjoAijtIx6+MTUoC5zwgSiaeTSKQSSKSTiCSS2OmP4enjEfzjxVY8WWTjdZLEnmAMbXEjjbhIJwOIqQ/lu/qYNXWbQmCACCjiGCCA/Xtc9mykkcqmkMyme91SchauJLtTFVH0D3f1VLkQUMRRLiSHKJ2smiNjiJBWrymGgCKOYuioawoBhUBBBBRxFIRFnVQIKASKIaCIoxg66ppCQCFQEAFFHAVhUScVAgqBYggo4iiGjrqmEFAIFERAEUdBWNRJhYBCoBgCijiKoaOuKQQUAgURUMRREBZ1UiGgECiGgCKOYuioawoBhUBBBBRxFIRFnVQIKASKIaCIoxg66ppCQCFQEAFFHAVhUScVAgqBYggo4iiGjrqmEFAIFERAEUdBWNRJhYBCoBgCijiKoaOuKQQUAgURUMRREBZ1UiGgECiGgCKOYuioawoBhUBBBBRxFIRFnVQIKASKIaCIoxg66ppCQCFQEAFFHAVhUScVAgqBYggo4iiGjrqmEFAIFERAEUdBWNRJhYBCoBgCijiKoaOuKQQUAgURUMRREBZ1UiGgECiGgCKOYuioawoBhUBBBBRxFIRFnVQIKASKIaCIoxg66ppCQCFQEAFFHAVhUScVAgqBYggo4iiGjrqmEFAIFERAEUdBWNRJhYBCoBgCijiKoaOuKQQUAgURUMRREBZ1UiGgECiGgCKOYuioawoBhUBBBBRxFIRFnVQIKASKIaCIoxg66ppCQCFQEAFFHAVhUScVAgqBYgj8P7tjCsmOEdVsAAAAAElFTkSuQmCC;fontStyle=1;fontSize=25;fontFamily=Tahoma;fontColor=#4D4D4D;labelBorderColor=#757575;whiteSpace=wrap;imageBorder=#757575;" parent="1" vertex="1">
          <mxGeometry x="949.3699999999999" y="520" width="184.09" height="150" as="geometry"/>
        </mxCell>
        <mxCell id="uaUtL9xpVAdAa3rIVJZg-49" value="&lt;span style=&quot;font-size: 25px&quot;&gt;&lt;b&gt;&lt;font color=&quot;#006600&quot;&gt;MC &lt;br&gt;Activities&lt;/font&gt;&lt;/b&gt;&lt;/span&gt;" style="text;html=1;align=center;verticalAlign=middle;resizable=0;points=[];;autosize=1;fontSize=15;fontFamily=Tahoma;fontColor=#4D4D4D;" parent="1" vertex="1">
          <mxGeometry x="273.84000000000003" y="577.71" width="130" height="50" as="geometry"/>
        </mxCell>
        <mxCell id="uaUtL9xpVAdAa3rIVJZg-58" value="" style="group" parent="1" vertex="1" connectable="0">
          <mxGeometry x="80" y="1240" width="200" height="390" as="geometry"/>
        </mxCell>
        <mxCell id="uaUtL9xpVAdAa3rIVJZg-28" value="&lt;font size=&quot;1&quot;&gt;&lt;b style=&quot;font-size: 20px&quot;&gt;TEVA Mobile apps&lt;/b&gt;&lt;/font&gt;" style="text;html=1;align=center;verticalAlign=middle;resizable=0;points=[];;autosize=1;fontSize=25;fontFamily=Tahoma;fontColor=#4D4D4D;" parent="uaUtL9xpVAdAa3rIVJZg-58" vertex="1">
          <mxGeometry x="-5.252405190962907" y="39.996896551724134" width="190" height="40" as="geometry"/>
        </mxCell>
        <mxCell id="uaUtL9xpVAdAa3rIVJZg-29" value="&lt;font style=&quot;font-size: 18px&quot;&gt;Various techniques, local developed and hosted.&lt;br&gt;&amp;nbsp;Template missing. &lt;br&gt;Connection to ID/Consent Hub missing. Data lost&lt;/font&gt;" style="text;align=center;verticalAlign=middle;resizable=1;points=[];;autosize=0;fontSize=15;fontFamily=Tahoma;fontColor=#4D4D4D;spacing=2;aspect=fixed;html=1;resizeHeight=1;resizeWidth=1;imageAspect=1;direction=west;collapsible=0;container=0;whiteSpace=wrap;" parent="uaUtL9xpVAdAa3rIVJZg-58" vertex="1">
          <mxGeometry x="10.258640398063443" y="181.0344827586207" width="157.41581966110817" height="27.782758620689656" as="geometry"/>
        </mxCell>
        <mxCell id="uaUtL9xpVAdAa3rIVJZg-65" style="edgeStyle=orthogonalEdgeStyle;curved=1;comic=1;orthogonalLoop=1;jettySize=auto;html=1;entryX=0.193;entryY=1.018;entryDx=0;entryDy=0;shadow=0;dashed=1;dashPattern=1 2;endArrow=blockThin;endFill=1;strokeColor=#0370FF;strokeWidth=6;fontFamily=Tahoma;fontSize=25;fontColor=#4D4D4D;entryPerimeter=0;" parent="1" source="uaUtL9xpVAdAa3rIVJZg-62" target="uaUtL9xpVAdAa3rIVJZg-15" edge="1">
          <mxGeometry relative="1" as="geometry"/>
        </mxCell>
        <mxCell id="uaUtL9xpVAdAa3rIVJZg-67" style="edgeStyle=orthogonalEdgeStyle;curved=1;comic=1;orthogonalLoop=1;jettySize=auto;html=1;entryX=0;entryY=0.5;entryDx=0;entryDy=0;shadow=0;dashed=1;dashPattern=1 2;endArrow=block;endFill=1;strokeColor=#0370FF;strokeWidth=6;fontFamily=Tahoma;fontSize=25;fontColor=#4D4D4D;exitX=0.487;exitY=1;exitDx=0;exitDy=0;exitPerimeter=0;" parent="1" source="uaUtL9xpVAdAa3rIVJZg-62" target="uaUtL9xpVAdAa3rIVJZg-14" edge="1">
          <mxGeometry relative="1" as="geometry"/>
        </mxCell>
        <mxCell id="uaUtL9xpVAdAa3rIVJZg-62" value="&lt;span style=&quot;font-size: 25px&quot;&gt;&lt;b&gt;&lt;font color=&quot;#0370ff&quot;&gt;Identity&lt;br&gt;+ Consent&lt;/font&gt;&lt;/b&gt;&lt;/span&gt;" style="text;html=1;align=center;verticalAlign=middle;resizable=0;points=[];;autosize=1;fontSize=15;fontFamily=Tahoma;fontColor=#4D4D4D;spacingBottom=8;spacingTop=3;" parent="1" vertex="1">
          <mxGeometry x="460" y="820" width="150" height="60" as="geometry"/>
        </mxCell>
        <mxCell id="uaUtL9xpVAdAa3rIVJZg-72" style="edgeStyle=orthogonalEdgeStyle;curved=1;comic=1;orthogonalLoop=1;jettySize=auto;html=1;entryX=0.832;entryY=0.998;entryDx=0;entryDy=0;shadow=0;dashed=1;dashPattern=1 2;endArrow=block;endFill=1;strokeColor=#006600;strokeWidth=6;fontFamily=Tahoma;fontSize=25;fontColor=#4D4D4D;entryPerimeter=0;exitX=0;exitY=0.5;exitDx=0;exitDy=0;exitPerimeter=0;" parent="1" source="uaUtL9xpVAdAa3rIVJZg-70" target="uaUtL9xpVAdAa3rIVJZg-15" edge="1">
          <mxGeometry relative="1" as="geometry"/>
        </mxCell>
        <mxCell id="uaUtL9xpVAdAa3rIVJZg-70" value="&lt;span style=&quot;font-size: 25px&quot;&gt;&lt;b&gt;&lt;font color=&quot;#006600&quot;&gt;MC &lt;br&gt;Activities&lt;/font&gt;&lt;/b&gt;&lt;/span&gt;" style="text;html=1;align=center;verticalAlign=middle;resizable=0;points=[];;autosize=1;fontSize=15;fontFamily=Tahoma;fontColor=#4D4D4D;spacingTop=6;spacingBottom=6;" parent="1" vertex="1">
          <mxGeometry x="670" y="780" width="130" height="60" as="geometry"/>
        </mxCell>
        <mxCell id="uaUtL9xpVAdAa3rIVJZg-77" style="edgeStyle=orthogonalEdgeStyle;curved=1;comic=1;orthogonalLoop=1;jettySize=auto;html=1;entryX=0.5;entryY=0;entryDx=0;entryDy=0;shadow=0;dashed=1;dashPattern=1 2;endArrow=block;endFill=1;strokeColor=#0370FF;strokeWidth=6;fontFamily=Tahoma;fontSize=25;fontColor=#4D4D4D;" parent="1" source="uaUtL9xpVAdAa3rIVJZg-75" target="uaUtL9xpVAdAa3rIVJZg-15" edge="1">
          <mxGeometry relative="1" as="geometry"/>
        </mxCell>
        <mxCell id="uaUtL9xpVAdAa3rIVJZg-78" style="edgeStyle=orthogonalEdgeStyle;curved=1;comic=1;orthogonalLoop=1;jettySize=auto;html=1;shadow=0;dashed=1;dashPattern=1 2;endArrow=block;endFill=1;strokeColor=#0370FF;strokeWidth=6;fontFamily=Tahoma;fontSize=25;fontColor=#4D4D4D;exitX=0;exitY=0.17;exitDx=0;exitDy=0;exitPerimeter=0;entryX=1.022;entryY=0.598;entryDx=0;entryDy=0;entryPerimeter=0;" parent="1" source="uaUtL9xpVAdAa3rIVJZg-75" target="HDc9Nho8ilmy6_pK3tJT-13" edge="1">
          <mxGeometry relative="1" as="geometry">
            <Array as="points"/>
            <mxPoint x="480" y="170" as="targetPoint"/>
          </mxGeometry>
        </mxCell>
        <mxCell id="uaUtL9xpVAdAa3rIVJZg-75" value="&lt;span style=&quot;font-size: 25px&quot;&gt;&lt;b&gt;&lt;font color=&quot;#0370ff&quot;&gt;Identity&lt;br&gt;+ Consent&lt;/font&gt;&lt;/b&gt;&lt;/span&gt;" style="text;html=1;align=center;verticalAlign=middle;resizable=0;points=[];;autosize=1;fontSize=15;fontFamily=Tahoma;fontColor=#4D4D4D;spacingBottom=8;spacingTop=3;" parent="1" vertex="1">
          <mxGeometry x="556.62" y="365" width="150" height="60" as="geometry"/>
        </mxCell>
        <mxCell id="uaUtL9xpVAdAa3rIVJZg-27" value="" style="verticalLabelPosition=bottom;verticalAlign=top;html=1;shadow=0;dashed=0;strokeWidth=1;shape=mxgraph.android.phone2;strokeColor=#c0c0c0;fontFamily=Tahoma;fontSize=25;fontColor=#4D4D4D;" parent="1" vertex="1">
          <mxGeometry x="64.09" y="1210.49" width="209.75" height="409.01" as="geometry"/>
        </mxCell>
        <mxCell id="uaUtL9xpVAdAa3rIVJZg-83" value="" style="endArrow=none;html=1;shadow=0;strokeColor=#4D4D4D;strokeWidth=2;fontFamily=Tahoma;fontSize=25;fontColor=#4D4D4D;dashed=1;" parent="1" edge="1">
          <mxGeometry width="50" height="50" relative="1" as="geometry">
            <mxPoint x="1200" y="1649" as="sourcePoint"/>
            <mxPoint x="1200" y="9" as="targetPoint"/>
          </mxGeometry>
        </mxCell>
        <mxCell id="HDc9Nho8ilmy6_pK3tJT-5" value="" style="edgeStyle=orthogonalEdgeStyle;curved=1;comic=1;orthogonalLoop=1;jettySize=auto;html=1;dashed=1;dashPattern=1 2;strokeColor=#0370FF;strokeWidth=6;" edge="1" parent="1" source="uaUtL9xpVAdAa3rIVJZg-84" target="uaUtL9xpVAdAa3rIVJZg-45">
          <mxGeometry relative="1" as="geometry"/>
        </mxCell>
        <mxCell id="uaUtL9xpVAdAa3rIVJZg-84" value="&lt;font color=&quot;#0370ff&quot;&gt;&lt;span style=&quot;font-size: 25px&quot;&gt;&lt;b&gt;Plus RMM&lt;br&gt;opt outs&lt;/b&gt;&lt;/span&gt;&lt;/font&gt;" style="text;html=1;align=center;verticalAlign=middle;resizable=0;points=[];;autosize=1;fontSize=15;fontFamily=Tahoma;fontColor=#4D4D4D;spacingBottom=8;spacingTop=3;" parent="1" vertex="1">
          <mxGeometry x="760" y="572.71" width="140" height="60" as="geometry"/>
        </mxCell>
        <mxCell id="uaUtL9xpVAdAa3rIVJZg-87" style="edgeStyle=orthogonalEdgeStyle;orthogonalLoop=1;jettySize=auto;html=1;dashed=1;strokeWidth=6;strokeColor=#0370FF;dashPattern=1 2;comic=1;curved=1;entryX=1;entryY=0.5;entryDx=0;entryDy=0;exitX=-0.007;exitY=0.417;exitDx=0;exitDy=0;exitPerimeter=0;" parent="1" source="uaUtL9xpVAdAa3rIVJZg-84" target="uaUtL9xpVAdAa3rIVJZg-15" edge="1">
          <mxGeometry relative="1" as="geometry">
            <mxPoint x="890" y="719" as="targetPoint"/>
            <mxPoint x="890" y="601" as="sourcePoint"/>
            <Array as="points"/>
          </mxGeometry>
        </mxCell>
        <mxCell id="uaUtL9xpVAdAa3rIVJZg-99" value="&lt;b style=&quot;color: rgb(3 , 112 , 255) ; font-size: 25px ; white-space: nowrap&quot;&gt;Segmentation query&lt;br&gt;checks for presence of&lt;br&gt;Valid consent for&lt;br&gt;Subsscriber in &lt;br&gt;the IDHUB data&lt;/b&gt;" style="text;align=center;verticalAlign=middle;resizable=1;points=[];;autosize=0;fontSize=15;fontFamily=Tahoma;fontColor=#4D4D4D;spacing=2;aspect=fixed;html=1;resizeHeight=1;resizeWidth=1;imageAspect=1;direction=west;collapsible=0;container=0;whiteSpace=wrap;absoluteArcSize=0;snapToPoint=0;portConstraintRotation=0;shadow=0;" parent="1" vertex="1">
          <mxGeometry x="1820" y="950" width="310" height="54.72" as="geometry"/>
        </mxCell>
        <mxCell id="uaUtL9xpVAdAa3rIVJZg-108" value="" style="shape=image;verticalLabelPosition=bottom;labelBackgroundColor=#ffffff;verticalAlign=top;aspect=fixed;imageAspect=0;image=data:image/png,iVBORw0KGgoAAAANSUhEUgAAAgAAAAIACAMAAADDpiTIAAAAAXNSR0IArs4c6QAAAARnQU1BAACxjwv8YQUAAAMAUExURQB51gh92hCB2hiF2iCJ3iiN3jCR3jiV4kCZ4kid4lCh5lml5mGq5mmu6nG26nm66n266oW+7o3G7pXK7p3O8qXS8q7W8rba8r7e9sbi9s7m9tbq+t7u+uby+u72//b6/////wAAAAAAAAAAAAAAAAAAAAAAAAAAAAAAAAAAAAAAAAAAAAAAAAAAAAAAAAAAAAAAAAAAAAAAAAAAAAAAAAAAAAAAAAAAAAAAAAAAAAAAAAAAAAAAAAAAAAAAAAAAAAAAAAAAAAAAAAAAAAAAAAAAAAAAAAAAAAAAAAAAAAAAAAAAAAAAAAAAAAAAAAAAAAAAAAAAAAAAAAAAAAAAAAAAAAAAAAAAAAAAAAAAAAAAAAAAAAAAAAAAAAAAAAAAAAAAAAAAAAAAAAAAAAAAAAAAAAAAAAAAAAAAAAAAAAAAAAAAAAAAAAAAAAAAAAAAAAAAAAAAAAAAAAAAAAAAAAAAAAAAAAAAAAAAAAAAAAAAAAAAAAAAAAAAAAAAAAAAAAAAAAAAAAAAAAAAAAAAAAAAAAAAAAAAAAAAAAAAAAAAAAAAAAAAAAAAAAAAAAAAAAAAAAAAAAAAAAAAAAAAAAAAAAAAAAAAAAAAAAAAAAAAAAAAAAAAAAAAAAAAAAAAAAAAAAAAAAAAAAAAAAAAAAAAAAAAAAAAAAAAAAAAAAAAAAAAAAAAAAAAAAAAAAAAAAAAAAAAAAAAAAAAAAAAAAAAAAAAAAAAAAAAAAAAAAAAAAAAAAAAAAAAAAAAAAAAAAAAAAAAAAAAAAAAAAAAAAAAAAAAAAAAAAAAAAAAAAAAAAAAAAAAAAAAAAAAAAAAAAAAAAAAAAAAAAAAAAAAAAAAAAAAAAAAAAAAAAAAAAAAAAAAAAAAAAAAAAAAAAAAAAAAAAAAAAAAAAAAAAAAAAAAAAAAAAAAAAAAAAAAAAAAAAAAAAAAAAAAAAAAAAAAAAAAAAAAAAAAAAAAAAAAAAAAAAAAAAAAAAAAAAAAAAAAAAAAAAAAAAAAAAAAAAAAANYLBa4AAAAhdFJOU///////////////////////////////////////////AJ/B0CEAAAAJcEhZcwAAXEYAAFxGARSUQ0EAABlvSURBVHhe7Z3noqq6FkYXVuzYsfv+T7lRP7eNkJACJHOOP/cemLCzyDCk83dlSENFgEOapssETONcZjidrLLgMy4MnWAF2D8yfJRlbPtPk+zaQXaPZeYD7hoegQlwTtN5Mo77yEGb9OJxskh3+IeCIQwBLukmSQZxB3nlln48yQqFPf5p3/FdgEOaTOIWsqZaunFWWbggHd7irQCXdJUMesiLGmnH00V6QqI8xEcB0sW4ph+9kCirIPipgWcCZHnfgF+9iM4w8a756I8Azc77F93R3KdGoxcC7DzJ+xe98cKTBmPjBdjNBxGeqm/0Z1v8EQ2m0QJ4nPlP4qThJUFjBQgg80E0mDdYgkYKsA8m85+0houGdh02T4DtpJoe3cppjdcN7DdslgDn9ahhPTx2iUarpvUTNEiA43KA5xQ0g2WjegybIsA+8aylb0J/ccSfXT+NEOAw056z4Svd5IA/vmbqF+C0JPTbf6e7bEJ9oG4B1kM8DpKM6u8qrFWA3SToOr8K7VnN1YH6BDgmgbb3yxKv6uweqEuATYw/n7l1EdXXV1yLAJcl//i/6K3wbKqmBgFOM/Jv/jzai1oaBZULsB/jD2a+aU1r6COsWIB17a/+zn0VmJCaRyHHlY8ZVinAZVH9qz/L01mSLNIbypXt4y16myTJOI67uFFVDCruGqhQgFVl2R/H02Se5SH+YVPO6W3h0TiuqMey2vpgZQJsnD++1u3Hvk6d9rGn6SKZOFl6+E6vwlKgIgFSp+/+eJhlfKW9KadMBJdvh0FldYFKBNi76vBvD5JlnQtyDmkydVRvHFf0Z1UgwNFJw68/njdlFc5xmwztlwbRrJI/z7kA55ntX0gUJ+vmzbC8pIuJ5bpBe4F7u8S1ABu7Uz3ao0avuLmkycBmN2dngxu7w60AJ5uz/LqTVXNmUhVwWE3svRAGrqsCTgWYWyv9O+N106bTFnJejy0VfdEct3SEQwGOtl6Jg0VD5s+V47CwU/71nL703AmwsvIy7E49WGAp5LKd2uj+THA7F7gS4GzD/sZMnTVhb8GBvrvKjyMBduZvwCBy/8F+avo4Ws7GB9wIsDSt/XXCyf0Hqen817Gjrm4XAlxGSLQuDZgtbZ/LyqxS3HPzGnAgwMls3K8zb9TaOZscjIqBlpNeIfsC7I3qPAP3fV91clma9BG56BKwLsDWRPKxF119ZphMjBjjHhaxLcAKSdWBQvbfMFBgaL0qaFkAg/ynkv039BXo2+4RtyuAfv4PCGX/jY1uXaBn2QCrAmjnv7t+jsZy0Z0nYdkAmwJskcTSjIJt+BVx0OwXsGuARQH2mkq3Q+z2UWKp12Lq2awJ2hPgqNn+i70a6LfLUa8mMMTlNrAmwEWzVjPB9TQ5602Xn+JyC1gTQHPq7xKXk2WCB1EOe4/NlgB6DYBWuJ9jU2aBZ1GKyNosIUsCnLQqABHnf8YcT6MUHVs1J0sC6C39odf6z0Vr9NxWRdCOAHo9ADNcTZ2LVk3Q0q/HigB6LQCbjRm/OeuMoLftvASsCKBXjyHZ/ZfPBs+kFHbagjYEuGhNebTYlvUfndHByMoCSRsCaPnLBcA7Wo/QyjvUhgBag9tcAHyg9QxtzJy2IMABySlHkxf51oBWZ4CNH5EFARIkpxyEh4DyqO01akEArTZgCxczD/SKUQtDAuYCHJGYcvRxNfPggudSjhhXG2AuwBqJKccIVzNAqykdmb9IzQWYIjHl6OFq5sEZz6Uka1yuj7kAelMaIlzNPNjhuZTEvB1gLoDmSrDAVv+assRjKYl5JcBcACSlLOaFV1DoTQyy0JgyFkCv+sqVgE9OuhsqGK+nMRZArxWYEfYy4JLo1aQzPBaAi4AX2gXAn/GkuvoE4CLghXYB4LUAbWLrQcVor6nzWwC7S5w85mCwp4bXAvCswDtaMwKf+C0AzwvO0JsT/MRzAZztfucPhnuq+S6A/S1PPGNvuIeo9wL8dZr38Y8KWZtuqeq/AI72P/QDvdl07wQgQAVfxWgoO92Not4IQgCKe0Rltf8Z/nojwhDg7y8mNz1ga/4VgRuhCPAXJaSaA9Y+pRmMANl7gI4CFr+kGpAAZBSw+iHdoAS4KRB8g8Dyd5QDEyAjyK+FPDH9asgv4Qnw99dZBPomOE5NvqWQT4gCZE2CcYBrh9c2P6P7nzAFyOhMgxoj2Izt//jvBCtARjAOOMv9jJAFyAjAAZe5nxG4ABmt0crbpqGtz0cXEL4AN3oefkH6vB7b6e0vhoYAGdFw4U/L4JImttv7IsgIcCOKk23j5xCe1lOzWX7lICXAnd503dg6wX45qqLYf4eeADda8WzdrObBJV1MjKZ360JTgAf98TxtQKfxYZMMqv7dv6AswJ1WPE629VQPz+kqGVZV2RNBXgDQjqdJavwwFDmnm2QUm07otgML8EkvKxAWaeqkrXBKt0kyiOsr7vNgAQR043iSJKs0NVyDvkvTeZIM49hph64+LIAC7Tgj0yFJ5inI0SLL6jubW+Aty+NaqvUlYQGIwwIQhwUgDgtAHBaAOCwAcVgA4rAAxGEBiMMCEIcFIA4LQBwWgDgsAHFYAOKwAMRhAYjDAhCHBSAOC0AcFoA4LABxWADisADEYQGIwwIQhwUgDgtAHBaAOCwAcVgA4rAAxGEBiMMCEIcFIA4LQBwWgDgsAHFYAOKwAMRhAYjDAhCHBSAOC0AcFoA4LABxWADisADEYQGIwwIQhwUgDgtAHBaAOCwAcVgA4rAAxGEBiMMCEIcFIA4LQBwWgDgsAHFYAOKwAMRhAYjDAhCHBSAOC0AcFoA4LABxWADisADEYQGIwwIQhwUgDgtAHBaAOCwAcVgA4rAAxGEBiMMCEIcFIA4LQBwWgDgsAHFYAOKwAMRhAYjDAhCHBSAOC0AcFoA4LABxWADisADEYQGIwwIQhwUgDgtAHBaAOCwAcVgA4rAAxGEBiMMCEIcFIA4LQJzQBWjHcTxKnsyy/2rhjAWi172zO3dx1C/CFaA9nAv+uFO6nBl6EMXJ5vfux3Q59k2DMAXozTZH3F7IOZ0P9SwYLna4Rx7n7bSDQGVwqQhEOSFAAdqzA24tZ78YRrhMkeHqjGsL2Jd0AJeJQJQTQhMgGm1xX1UuK1yqQEcl9x+kQ1yjAq4RgSgnhCVAa6GcQS+UE9Bb4wo1jhPlwgVXiECUE4ISYHzCPUuhmIB++Ud1muBaGYgXgSgnBCRAV/NvUUpAe4XocuxjXF8MokUgygnBCBAlF9ywLCoJmGq8Wh6sVVoaiBWBKCeEIkBHveb/jTwB3T1CdTj1cZcCECoCUU4IRICOtNkvRpqAkfbP/8EM9xGDQBGIckIYApjkvywB0RJx+mxkzQHEiUCUE4IQwCj/JQlomRT/T3aSigDCRCDKCSEIYJb/xQmwkv9Za6DYAESJQJQTQhCgqGdegaIEWMr/7B8p7BtGkAhEOSEAAaa4kS4FCWjbyv/r9VBUBiBGBKKc4L8AHd32/xNxAiJ7+Z/VAwpqgggRgSgn+C+A8V8gTkDZcaViNrhrDogQgSgneC/AGLfRR5gA8/bfJ3Pc9xcEiECUE3wXoGXYSZMhSoBp3eIX4cAAzotAlBN8F8C8ABAloG9at/jlJKoI4rwIRDnBdwEsvKbzExCZdS7kI6oG4LQIRDnBcwHauIkJ+QnQG/6VIZgmhLMiEOUEzwWY4CYSjunmPnl7keYMGuYmYIiTljnltwVxVgSinOC5ACqdgIdZG9F3etPN58ShvAREWnOLFMgfGcRJEYhygt8CdHCPAg55w/HdyfrVeshLgP0WALh8yPgEJ0Ugygl+CzDCPcSkoor3a/pwTgLaZVoAaVrmIS7wT3yAcyIQ5QS/BVjgHkKORT3w7dm9pp+TANUuoO3oWb7EU8VWQ24RgHMiEOUEvwWQNgKnCBQxyP7+3wSoFQCn+ecI30ht5CCvPxCnRCDKCX4LIP3VyRfo9La/CZjj6kJ2vz9laYF0I68hgFMiEOUEvwWQ9gMjrpAe/vc/Sk2ARV6DbqxSdOSUSjgjAlFO8FsA3EJMbp1bhkrnwhixX6j0Hx8Q+wbOiECUEwIXYIDAUii8y4UTfVXGJn5XkOOECEQ5IXABCsbghXRxbQFLhOag0IWcIPQFTohAlBMCF0BhTv4PCS4VkyIyj0i+QmWH0Bc4IQJRTvBbAIW29wih6shz8Kfa+I7CKMJP2wTHRSDKCX4LoLAe7CLrCvhG/gaQvFfkVYifJOG4CEQ5wW8BlFK/LfzB/iB/A0juJy8CfrakwHERiHKC3wIo9bxkP9kyOzdJn8gagUKk5dJPQxDHRSDKCX4LoDwhbKNcCkTSlrx07xd5GfI9QoHDIhDlBL8FUBgOfrJVrA32EC/kIlvpKb/FT/cEDotAlBP8FkClGfCf0+fEEAHSmQBbBBYgTdV34xSHRSDKCZ4LUG7q/mUlfxNIN4JSaFVIU/VdC8RhEYhygucCyEvbL3ayN4G0BqdQoZS2A757knBYBKKc4LkAKv32XxwF4zhAVge8IK4I6Vzl72YADotAlBN8F0BxWvAHRQpI826PwEJkw9TfFuGwCEQ5wXcBIq2lYWIF+ogQIu0FuCGdrPxVHcVREYhygu8CaBUBGTvBq1z6+lYaXZLWAr+mKuOoCEQ5wXsBdPcHueTnpLQVWFyDADMEC/laJoqjIhDlBP8FKN0QeJJbCEh78ZT2gJb2ULIAL0wFUJvCmccl59csHV1Q2vtVKsBXYxRHRSDKCQEI8LfBncrzO0VbOqFHSYABgoV8qYejIhDlhBAEiPTXiK+/O/alAigNLMYIFsICvDAXwGQzt++lY9LSROlTICxACSwIYGTAZxkgfR5cAnzRCAH+onIf83jns2dH+jzs1AG+xoNxVASinBCIACqzMER81ASlIimtNOBmYAksCfA3VFrRmcf7h12klcCcpuMv0u7Jr2FpHBWBKCeEI8BfR7cx8L5i244A0uLoqyqJoyIQ5YSABMhevZobu7wt9JFm3e+ynhyk3UlfbQ8cFYEoJwQlwF+k2Sv4KpGlAuTu8PGNtCaBuCc4KgJRTghLgOw9sNSpCryWekirb7/runKQTQrk+QBv2BXg76/12PilHP+LAGkLXmVGUAuxQr4twmERiHJCeAJkjEoPEf9vCsonmiusMJBOKvh+j+CwCEQ5IUgB/v66i3L1wVcicECMQjNAWpH4npmKwyIQ5YRABcgo9xXp/1N0pO+Pgr0Bnkj/5e/+ZBwWgSgnhCtAVpwv1CuE/98B0tEgwW6vb0g3GTsj8D84LgJRTghZgCwrFPbrePA/FfI9QqVrzKQTwn42mMBxEYhyQtgCZKWAqgKIlzcD5GvDpG+Rn3koOC4CUU4IXYC/v75adfDZOStfHSybEiAdCvydV4jjIhDlhPAFUPz22//WnTxa0hkofaS/64txQgSinEBAgL+2Ss/Q/2FehXHlwq4A+UKFnw1CWADHqMwc/9+8V9glbl/QEOjKXyG/UwpwQgSinOC5AFOl0VmVecOvUT6FN0bB8iB5J+T5Vx+cEYEoJ3guQHJdFW0I/0Rh/dhr2b+0FZe9xYXzghQaHb9vABZAm+yFfVIoBORtu7ceXpV9Z0QGqDQ6c2YV4owIRDnBfwGu11Q6PqPwXn/LUZWFJpe8JWKRSv6fEPwOTolAlBNCEOB63eR9GOgNhd073yRSW234u/fcUKnHIW+LGZwSgSgnhCFAVgoI38o3FF7r7zUzxVUGiw8FYrXBp9yhBJwTgSgnhCJA1jYT99ErfAX0Y9MWhQLjwSGJ7xJ0YuXh59zVxTgnAlFOCEeA7E7L/LXbKmsHP/f/1V9oJCN/hxmcFHH/6GUxSivW8ghJgIzLZvKzGWBbZX7QZ8teulGMNvlvKpw0QGnBUh6BCXBjPx++STBYKU0K+GpI6K80K0aw0TjOGsACfHJK03lWMG5VJwd+t81KfTlSnYtgaSlOG8ACmPHTO6fQbtBAtMsoThvAApjx25Wkv+2IGOFUEpw3gAUwIufVrPDtn7KchJtVI8AAFsCIvLp5R2sLyiLEG4whwAAWwIT85V7K3UGK5IwCPkGEASyAARfBYJKtCsaDbcEsEoQYwAIYIJzjZ7Mi+LUX0SeIMYAF0Ee80qNlryK4L5y3giADWABtRC+AGy3dTUe+Kc5/FkAbcwHEs7vuKH6YToIk/1kAbcwFkE0o09yO/oONbN4i4gxgATSRTyiMTfsDFD5ei0gDWAAtzsXl/4Ouxo4jbxwl09VuINQAFkCHU0H9742WSXNQWvzfQKwBLIAGW+VpNLHuFKGjdC35HUQbwAKU5iTums9hpLMF4Xla1PvzBuINYAFKcpkr5s2TaFa2MniZq5T+d3CFAVQFaE20OutOc41JlO2SfQLvWxBLwBUGUBUgo7coW0vfjUv++p90pqXqAgpfGQa4wADCAmT0ZuobA6aJYF6eGqUcWKqKhngDaAuQEcWzjbQk2M0Hmr/9d0o48P1BGhGpMWoN2hxCEeBOFE+TbZo3oXe/SUYKHTKqtOPpPFVpFxy0F2xURVAC/KcTx/HssWRmkP1f7Z+HhHg0l00fP1vUzglhClAd0nljF7WuoNpgAQyR7i+v9rnp2mABTJEvIVlZqHk6gwUwRt4bqdoYqAMWwBz5xjAHo74Hp7AAFpCvJT5rd9S4hgWwgMIOFHmfqm8ELIANIoWu6N9P1TcCFsAKKl+v/vlUfSNgAezQUhiS3DWxMcACWKKjYMCxgY0BFsAWXYUZQw1sDLAA1uipzBkrMU2oGlgAewxUdpZS+vZwhbAAFpF/LShj06zGAAtgE/nQYMZeuFVQHbAAVpF/dTDj6GqCig4sgF2UFiooLUmsCBbAMkv8WcU0pzHAAthG7VOljWkMsADWUdtWZtuQfmEWwDoqnyfI2DdjxjgLYB+VocEMxd0JHMMCOKC1wXqdYtT3J3AIC0AcFoA4LABxWADisADEYQGIwwIQhwUgDgtAHBaAOCwAcVgA4rAAxGEBiMMCEIcFIA4LQBwWgDgsAHFYAOKwAMRhAYjDAhCHBSAOC0AcFoA4LABxWADisADEYQGIwwIQhwUgDgtAHBaAOCwAcVgA4rAAxGEBiMMCEIcFIA4LQBwWgDgsAHFYAOKwAMRhAYjDAhCHBSAOC0AcFoA4LABxWADisADEYQGIwwIQhwUgDgtAHBaAOCwAcVgA4rAAxGEBiMMCEIcFIA4LQBwWgDgsAHFYAOKwAMRhAYjDAhCHBSAOC0AcFoA4LABxWADisADEYQGIwwIQhwUgDgtAHBaAOCwAcVgA4tQvwAUpYWqhfgGuSAlTCw0QoIOkMHWwQy5oYy5AH0lh6uCIXNDGXIApksLUwQm5oI25ACskhamBNjJBH3MB9kgLUwNDZII+5gJwLbBGEuSBPhYEmCExTPUYtwJtCLBDYpjKaV2QB/pYEODaRnKYqhkjBwywIcACyWGqZoscMMCGABcuAuqhbf4GsCIAFwE1scDzN8GKAFwE1IKNAsCOANc1ksRUiY0CwJIA1xhpYqqja6MAsCXAPkKqmMqw0ATIsCQA1wMrx3wY4I4tAa5DpIuphrbxQPADawKcuCVQKeajAA+sCXDdcTWgQsyHAYE9Aa4bpI1xT4xnbo5FAbgiWBmdMx65OTYF4OmBFdEyngr6wqoA1zFSyLgkMp4L/oZdAdiACojs9AABywKwAc6xm//WBeB6gGMs5799Aa5LpJRxQctWB9AT+wJct9wj5IzOAQ/ZGg4EuO55pYAjevba/09cCHA98/QAJwytzAD4xIkAXBV0QWRlBtA3jgS4rltINmOJjs3unxeuBLgeed8Aqwztv/7vOBPgep1za8Aa0RIP1ToOBbgeekg+Y0jfeuvvPy4F4ELAEjM8The4FeB6GOBvYLTpu6n9AccCXK8rbg4Y0XL29n/gXIDrecrvAX0mjir//3EvQNYiHOGvYUoS7/EI3VGFANfrnvuGNejZHvnLoxoBrtctNwlL0tng0bmlKgGy2iCvHClB23Hd7z/VCXC9zLlBoEhr7mDcL58KBcgaBAsuBRSIZq6r/m9UKkDGiusCEtpzS8s+1ahagOs15c7BAvorPKaqqF6A6/Uw5q6hfEZOe31zqUOA6/U04/rgD61ZpWU/qEeArEmw7OLvZu50V5VV/D+oS4CM/YSLARCNLC/3UKdGATLWvLFMRryqsNn3Tb0CZLWBBfFXQSexuNZbg7oFyCD8KmhNqq/2f9EAATJovgqG63rqfR80Q4CsVbAe0yoHBss6Gn2/NEWAG+mEyKLC1nhdY7XvkyYJkLFPgh8r6E5rf++/0zABMo6LgKcPDRb11vl/aZ4AGef1JMDGYbtBBf+LRgpw47QaB1QjaI+W7hb3GNFYAW4cg5CgM141NPNvNFqAG8flyONpRFnmN+2l/0XjBbhxWE09XGzen6yb0dQvxAsB7uyWY2+aiPF02ai2XgH+CHAnXYya3T6I4tnK/XIei3gmwI1LmgybWBa04mTd4NqeAA8FeHBIk3HckLmF/UGyShswsKODtwI8OKfLWVxfU7ETz+Zpw6v5EjwXAOw2ySyusDyI4niabL1614sIQ4Anh3STJHHsamC5Gw+TZOv5T/6LsAT4zyndJkkyjM2LhU52j3GSLNMq1mrXQKACfHBJ03Sd+TDK8vKOoA3Rx+lbhme1ujSsn7oACgIwQq7Xf16ibkER9X1DAAAAAElFTkSuQmCC;" parent="1" vertex="1">
          <mxGeometry x="1890" y="1150" width="110" height="110" as="geometry"/>
        </mxCell>
        <mxCell id="uaUtL9xpVAdAa3rIVJZg-109" value="" style="group" parent="1" vertex="1" connectable="0">
          <mxGeometry x="1570" y="1390" width="250" height="200" as="geometry"/>
        </mxCell>
        <mxCell id="uaUtL9xpVAdAa3rIVJZg-93" value="" style="shape=datastore;whiteSpace=wrap;html=1;strokeColor=#C73500;fontFamily=Tahoma;fontSize=25;fontColor=#ffffff;fillColor=#fa6800;" parent="uaUtL9xpVAdAa3rIVJZg-109" vertex="1">
          <mxGeometry width="212.5" height="200" as="geometry"/>
        </mxCell>
        <mxCell id="uaUtL9xpVAdAa3rIVJZg-100" value="" style="shape=datastore;whiteSpace=wrap;html=1;fontFamily=Tahoma;fontSize=25;align=center;" parent="uaUtL9xpVAdAa3rIVJZg-109" vertex="1">
          <mxGeometry x="14.5" y="100" width="54.75" height="80" as="geometry"/>
        </mxCell>
        <mxCell id="uaUtL9xpVAdAa3rIVJZg-101" value="" style="shape=datastore;whiteSpace=wrap;html=1;fontFamily=Tahoma;fontSize=25;" parent="uaUtL9xpVAdAa3rIVJZg-109" vertex="1">
          <mxGeometry x="80.25999999999999" y="110" width="51.99" height="80" as="geometry"/>
        </mxCell>
        <mxCell id="uaUtL9xpVAdAa3rIVJZg-102" value="" style="shape=datastore;whiteSpace=wrap;html=1;fontFamily=Tahoma;fontSize=25;" parent="uaUtL9xpVAdAa3rIVJZg-109" vertex="1">
          <mxGeometry x="144.5" y="100" width="54.75" height="80" as="geometry"/>
        </mxCell>
        <mxCell id="uaUtL9xpVAdAa3rIVJZg-103" value="&lt;font style=&quot;font-size: 12px ; line-height: 50%&quot;&gt;Object&lt;br style=&quot;font-size: 12px;&quot;&gt;1&lt;/font&gt;" style="text;html=1;align=center;verticalAlign=middle;resizable=1;points=[];;autosize=1;fontSize=12;fontFamily=Tahoma;fontColor=#4D4D4D;resizeHeight=1;resizeWidth=1;horizontal=1;spacing=0;container=0;fontStyle=1" parent="uaUtL9xpVAdAa3rIVJZg-109" vertex="1">
          <mxGeometry x="11.88000000000011" y="135" width="60" height="30" as="geometry"/>
        </mxCell>
        <mxCell id="uaUtL9xpVAdAa3rIVJZg-105" value="&lt;font style=&quot;font-size: 12px ; line-height: 50%&quot;&gt;Object&lt;br style=&quot;font-size: 12px;&quot;&gt;2&lt;br style=&quot;font-size: 12px;&quot;&gt;&lt;/font&gt;" style="text;html=1;align=center;verticalAlign=middle;resizable=1;points=[];;autosize=1;fontSize=12;fontFamily=Tahoma;fontColor=#4D4D4D;resizeHeight=1;resizeWidth=1;horizontal=1;spacing=0;container=0;fontStyle=1" parent="uaUtL9xpVAdAa3rIVJZg-109" vertex="1">
          <mxGeometry x="75.25" y="140" width="62" height="30" as="geometry"/>
        </mxCell>
        <mxCell id="uaUtL9xpVAdAa3rIVJZg-106" value="&lt;font style=&quot;font-size: 12px; line-height: 50%;&quot;&gt;Object&lt;br style=&quot;font-size: 12px;&quot;&gt;3&lt;br style=&quot;font-size: 12px;&quot;&gt;&lt;/font&gt;" style="text;html=1;align=center;verticalAlign=middle;resizable=1;points=[];;autosize=1;fontSize=12;fontFamily=Tahoma;fontColor=#4D4D4D;resizeHeight=1;resizeWidth=1;horizontal=1;spacing=0;container=0;fontStyle=1" parent="uaUtL9xpVAdAa3rIVJZg-109" vertex="1">
          <mxGeometry x="141.87000000000035" y="135" width="60" height="30" as="geometry"/>
        </mxCell>
        <mxCell id="uaUtL9xpVAdAa3rIVJZg-132" value="&lt;span style=&quot;white-space: nowrap&quot;&gt;&lt;b&gt;&lt;font color=&quot;#ffffff&quot; style=&quot;font-size: 15px&quot;&gt;Activity Data Extensions&lt;/font&gt;&lt;/b&gt;&lt;/span&gt;" style="text;align=center;verticalAlign=middle;resizable=1;points=[];;autosize=0;fontSize=15;fontFamily=Tahoma;fontColor=#4D4D4D;spacing=2;aspect=fixed;html=1;resizeHeight=1;resizeWidth=1;imageAspect=1;direction=west;collapsible=0;container=0;whiteSpace=wrap;absoluteArcSize=0;snapToPoint=0;portConstraintRotation=0;shadow=0;" parent="uaUtL9xpVAdAa3rIVJZg-109" vertex="1">
          <mxGeometry x="-48.75" y="55.28" width="310" height="54.72" as="geometry"/>
        </mxCell>
        <mxCell id="uaUtL9xpVAdAa3rIVJZg-114" style="edgeStyle=orthogonalEdgeStyle;curved=1;comic=1;orthogonalLoop=1;jettySize=auto;html=1;dashed=1;dashPattern=1 2;endArrow=block;endFill=1;strokeColor=#0370FF;strokeWidth=6;fontSize=12;" parent="1" source="uaUtL9xpVAdAa3rIVJZg-113" target="uaUtL9xpVAdAa3rIVJZg-91" edge="1">
          <mxGeometry relative="1" as="geometry"/>
        </mxCell>
        <mxCell id="uaUtL9xpVAdAa3rIVJZg-115" style="edgeStyle=orthogonalEdgeStyle;curved=1;comic=1;orthogonalLoop=1;jettySize=auto;html=1;entryX=1;entryY=0.25;entryDx=0;entryDy=0;dashed=1;dashPattern=1 2;endArrow=none;endFill=0;strokeColor=#0370FF;strokeWidth=6;fontSize=12;" parent="1" source="uaUtL9xpVAdAa3rIVJZg-113" target="uaUtL9xpVAdAa3rIVJZg-14" edge="1">
          <mxGeometry relative="1" as="geometry"/>
        </mxCell>
        <mxCell id="uaUtL9xpVAdAa3rIVJZg-113" value="&lt;span style=&quot;font-size: 25px&quot;&gt;&lt;b&gt;&lt;font color=&quot;#0370ff&quot;&gt;Identity&lt;br&gt;+ Consent&lt;/font&gt;&lt;/b&gt;&lt;/span&gt;" style="text;html=1;align=center;verticalAlign=middle;resizable=0;points=[];;autosize=1;fontSize=15;fontFamily=Tahoma;fontColor=#4D4D4D;spacingBottom=8;spacingTop=3;" parent="1" vertex="1">
          <mxGeometry x="1380" y="930" width="150" height="60" as="geometry"/>
        </mxCell>
        <mxCell id="uaUtL9xpVAdAa3rIVJZg-117" value="" style="group" parent="1" vertex="1" connectable="0">
          <mxGeometry x="1730" y="540" width="212.5" height="200" as="geometry"/>
        </mxCell>
        <mxCell id="uaUtL9xpVAdAa3rIVJZg-91" value="" style="shape=datastore;whiteSpace=wrap;html=1;strokeColor=#006EAF;fontFamily=Tahoma;fontSize=25;fontColor=#ffffff;fillColor=#1ba1e2;" parent="uaUtL9xpVAdAa3rIVJZg-117" vertex="1">
          <mxGeometry width="212.5" height="200" as="geometry"/>
        </mxCell>
        <mxCell id="uaUtL9xpVAdAa3rIVJZg-110" value="" style="shape=datastore;whiteSpace=wrap;html=1;fontFamily=Tahoma;fontSize=25;" parent="uaUtL9xpVAdAa3rIVJZg-117" vertex="1">
          <mxGeometry x="10" y="100" width="51.99" height="80" as="geometry"/>
        </mxCell>
        <mxCell id="uaUtL9xpVAdAa3rIVJZg-111" value="" style="shape=datastore;whiteSpace=wrap;html=1;fontFamily=Tahoma;fontSize=25;" parent="uaUtL9xpVAdAa3rIVJZg-117" vertex="1">
          <mxGeometry x="80.25" y="110" width="51.99" height="80" as="geometry"/>
        </mxCell>
        <mxCell id="uaUtL9xpVAdAa3rIVJZg-112" value="" style="shape=datastore;whiteSpace=wrap;html=1;fontFamily=Tahoma;fontSize=25;" parent="uaUtL9xpVAdAa3rIVJZg-117" vertex="1">
          <mxGeometry x="150" y="100" width="51.99" height="80" as="geometry"/>
        </mxCell>
        <mxCell id="uaUtL9xpVAdAa3rIVJZg-120" value="&lt;b style=&quot;font-size: 25px&quot;&gt;Campaign Audience&lt;br&gt;created through&lt;br&gt;segmentation query&lt;/b&gt;" style="shape=image;html=1;verticalAlign=top;verticalLabelPosition=bottom;labelBackgroundColor=#ffffff;imageAspect=0;aspect=fixed;image=https://cdn2.iconfinder.com/data/icons/seo-flat-6/128/38_Target_Audience-128.png;shadow=0;strokeColor=#757575;fontFamily=Tahoma;fontSize=12;fontColor=#4D4D4D;imageBorder=#000000;labelBorderColor=#000000;spacingTop=4;spacingBottom=4;spacingLeft=4;spacingRight=4;spacing=2;whiteSpace=wrap;" parent="1" vertex="1">
          <mxGeometry x="2010" y="1070" width="248" height="248" as="geometry"/>
        </mxCell>
        <mxCell id="uaUtL9xpVAdAa3rIVJZg-127" style="edgeStyle=orthogonalEdgeStyle;curved=1;comic=1;orthogonalLoop=1;jettySize=auto;html=1;entryX=0.75;entryY=0;entryDx=0;entryDy=0;dashed=1;dashPattern=1 2;endArrow=block;endFill=1;strokeColor=#0370FF;strokeWidth=6;fontSize=12;" parent="1" source="uaUtL9xpVAdAa3rIVJZg-91" target="uaUtL9xpVAdAa3rIVJZg-120" edge="1">
          <mxGeometry relative="1" as="geometry"/>
        </mxCell>
        <mxCell id="uaUtL9xpVAdAa3rIVJZg-128" value="&lt;span style=&quot;font-size: 25px ; white-space: nowrap&quot;&gt;&lt;b&gt;&lt;font color=&quot;#ff804a&quot;&gt;If needed, segmentation&lt;br&gt;Query consumes Veeva&lt;br&gt;Activity data&lt;/font&gt;&lt;/b&gt;&lt;/span&gt;" style="text;align=center;verticalAlign=middle;resizable=1;points=[];;autosize=0;fontSize=15;fontFamily=Tahoma;fontColor=#4D4D4D;spacing=2;aspect=fixed;html=1;resizeHeight=1;resizeWidth=1;imageAspect=1;direction=west;collapsible=0;container=0;whiteSpace=wrap;absoluteArcSize=0;snapToPoint=0;portConstraintRotation=0;shadow=0;" parent="1" vertex="1">
          <mxGeometry x="1521.25" y="1300" width="310" height="54.72" as="geometry"/>
        </mxCell>
        <mxCell id="uaUtL9xpVAdAa3rIVJZg-130" style="edgeStyle=orthogonalEdgeStyle;curved=1;comic=1;orthogonalLoop=1;jettySize=auto;html=1;dashed=1;dashPattern=1 2;endArrow=block;endFill=1;strokeColor=#FF804A;strokeWidth=6;fontSize=12;" parent="1" source="uaUtL9xpVAdAa3rIVJZg-106" edge="1">
          <mxGeometry relative="1" as="geometry">
            <mxPoint x="2150" y="1480" as="targetPoint"/>
          </mxGeometry>
        </mxCell>
        <mxCell id="HDc9Nho8ilmy6_pK3tJT-7" value="" style="shape=image;verticalLabelPosition=bottom;labelBackgroundColor=#ffffff;verticalAlign=top;aspect=fixed;imageAspect=0;image=data:image/png,iVBORw0KGgoAAAANSUhEUgAAAJMAAACPCAYAAAD+8en1AAAdvklEQVR4Ae1diXdbxbnPX9LYCYQEAiHQAoWyFEqBhgaSFkq6QNvHK+81bekKLYW+btCWV2jfYWnpobR9JYktL/KSOLGdhITEtvZd8r7Eq7wv8r793vmNfFNFurIl617da7875+hIurqaO/N9v5n55ttmC4xiUEAhCmxRqB6jGoMCMMBkgEAxChhgUoyURkUGmAwMKEYBA0yKkdKoyACTgQHFKGCASTFSGhUZYDIwoBgFDDApRkqjIgNMBgYUo4CmYJqa60XXcDVaB/IQ7H4bro6XYWl5DrbWF+HtfB2NfX9Dx6AZQxEXlpbnFOv0RqpocXkOgxNOtA+a0dD7Hrydv4et7QXUNn0fzvZfItD1JloH8wQdJ2d7NO1a1sE0MdOBxvDfcCZwCKXuO1DgzEFJIBdmXy6Kvbko9qy8vNFrpYFc5FmuRlXwYVhbn0ff2AUsLE5pSjS1H76wOI3e0QuwtjyHyuA+HKu7KoFGRaTTCo1IP9Kx1HUHTge/gKbweyCds12yBqbhSR8sLT9GkeMGFHlyYPZGCXC0biuO1K7+yrPlREHmzYXJvhXVoUfR3H8UC4sz2aaXqs9jf1oGjqE6dAD59q0CLAQN+78WjUhHAop05X8KHTfA0vI8hiY8qrY5tnLVwTQ1G4aj7Zcw2XaJ0ZVvz0EqAEpGvKOWrVFiuXNwOvgoekfPxfZnw37uHT2P06EDKHTnCBAds6w+wJLRh9dJX9KZs3q+9RrY236Gydk+1WmjKpjCYxZU+D4V7ZR97dG1GoHifyOoOArz7dvg7vwZ5hcjqhNLjQfMLUbguvRzmBzbxVLPfsX3NZPvBFVZMBcnvPciPG5VowuX61QNTPU976LQuRPFXmVBFE9YLgHl9dtQHTyI6bnw5Y5thA8z8/2oDn5etF8sZTXKAimWVpSvyI/63ndVI40qYPJc+j0KXTkwOdQFUiyxSoO5OOl7ABPT7aoRS8mKJ6Y7cMr/INju2H6o+Zn8IF/IHzWK4mAK9bwjGpyfgtCoNOEoI5z0P4Cp2V41aKVYnVNzfTjpe0gs/0rTYK36yBcCKtD9J8X6I1WkKJg6R06hwLkdJoXlo7UIFPs7AVXlfwKLS/rc6bFd1VSLZHFGiqUPP5M/BY7t6ByqkHCgyLtiYIrMdKDYeZPYjRxRce2PJ0z8d+5kSvy5cLX/RhECKV2Jq+N3on2Z7Gjj+5z295qtKHTnothxEyZmlBMLFAHTMpZxvuEZTaZtOUJyB5Nn24b+MXV3L+kCbXDCgXzbVWLbLtfubF/jLH6u/hsg/5QoioCpa6QaJmcO8qzZE7jXIjw16tW+xwEsKUGnjOsgw7j8lviyJ3CvRaNj1q0ocOWgc7gy4/6xgozBRJtZdeBxMXWv1fhs/k6ln9mzHd0j1YoQKtNKukfOwuy9CpkoI9WgH8FdHXgMi0uzmXYxczANjNuEGl9TGUDOHFOzVSgBaQNcXtZ2dlpaXsQH9U9GB5yG8qQcGMk3mmEGJjIXCTKemWqavivU/3IN1foaFYHH6rZjfLo141GXSQV8/tG6bSnZ2LSgGRWaNc3PZtJF8d+MwLSwNIUSx90ocutHVopnBmUnum1oWXxdr4tZ8kgKRu349mfjO/lX4rgrY5NURmDqGq6EybFNd3JALAO4Y7nQ9C0tsYSLjd/WVK8USw+5z5TjCpzbQH5mUjICU0v4mDAiyjVQL9e4yzQ7Po5JjbTiM/MDKHPfLeQSvdBErh00BpOfmZSMwOTu+I3udnHxhDpmyQGVqMMRfyZ0Wvd/R6eCOFqXqyu1STyN+J2KXvelzBS96wYTd0hnQ0/qWl4ikTiF80XnPC3KcMQL6nP0phKIBxTlJvITGSgw1w0m6iVO+fYLpVd8w/T0nf5B1IgPTbi1wBKGIh4hfBdk0YNiPfSn8vKkd19GNs11g2lhaRonvA/oXhagHqXIm4v+dTqGzS9OCD+pyGwnGAAxtzCWFig56Dydr6LIdY2uZ3Hqmo6779cGTEvLC6j0HxTuDOsZCdn6j/A1t12PsenmNUFAi/7IVAOa+v4u9C6ng4dwwvtplDrvhNlxG0qcd6Dccx+q/Y/jYuNhhHrexlDEmxLAwmMXUeG7Vzf2y3j60y2l0n8AS8vza9Ip2Q3rnploa7rYdFg4+sc3TC/fqWOqDDy4plP95GwXfF1/EN6a79fmiKWbijz+n7IElwCOXL7oo83rBCkZQFmowns/XJdexshUKBmdxXU+50zw80LY1ZvFgFFB5GcmZd1g4kPpYMUwG72AJ7YdZHhV4AAmZ7uT0icycwne7pdhsu6OAseTK4TlVBnN+wgmgor+SSb7Tljavo+RyWDSZ84tTODDxn8XdEv1ObH9Uusz9XHBnj8nbXcqP2QEppb+/CiYdKbZLeaM5N+XFEjLy8uo730PZsctKK9nUEJmETMSg+nFSKaYPdfD2/kaGP8mVyhHnW/8mn4GIn3AArlo7c+Xa27K1zIC0/CkB0WO63Xjn0N9EmPySpy3YmxKXkaanR9GTfN3RKBDoUudWVUoSn25OFv/BEanGmWZMbcwjqrAQV3YNTmYCh27MRTJbMebEZhIpQr3Pl0QhLMD3VGLnLtENKwcB8enW1Dp2y+WJLX1PlzCqAg87r8dDPmSK2NTTSi03yCWyfc19CagfHjC/Rm5JqZ1LWMw+bveEPKGNNVr9l7HCFhGXrwmSwBa7hnDRwZn0+BKRhU7r0f/uE22Xe2DZSj27hCymla0o3wZ7H5Dtn3pXMwYTPT9LrDt0nypo5xU4dkvm+BiZn4IlYHPRoEk5/uk4jXOOFFA7cVwRF4LX9v03aj8pMHsxCWO0dbkY6YlYzCxAdbWF1AWUkf+SGW00lxhsueib+xiAj2oOzpb/1VNrfYEFEd/ufs+zMwPJrSRMXTFzhuhhZacfLO2/CShTeu5oAiYIrMdYu3XghgUurl0nQs9Ldv/QNfbKA9tyyi/QSqATuUe7vTqWn4s204uz5xds6kuEHoz+x7FMqYoAiZSJ9DzZzH6skkMMvCYNQdmzw70j9clMGl0qgEm225NRrwcuBhwwVfP6NmEtjK03WS5AflZsuGJXA3+zHVLsR1RDExLS3PC6szRJ0dIta5RHqn2Pxbbp8ufaxqf1Z35gstdpe+ArA7K1vZi1uQ68uls6CksKRBIIBFcMTCxQmqby1x3wswdk4pCrVT30dqoXqltoEjqz+X3kYgPhQ7tNwZSW6X3Y3U5MDm3yno19o/VocCxA3k29RJYsB0EdJnrbkzOJLcOXCZkGh8UBROfSye0EtdtWQEUiW6yXYvxmcSAAWf7r3U3K0mA4mz6QeipBDZxs0DLvZo+9Rzo5M9wJJDw/EwvKA6mKKB8qPB/SvUdFE0A5+r/DctxgZYLi5ModX1Ct+4xzEZS5NiDsemmBP4x25sAkwomKtoPyZehCW/Cc5W4oAqY2LDITJcwJ0i2L2lUKvlOv2Vb20sJdAiP1wpXWaoMlHyeknWRsU3hfya0/dLQceGloORGhrokqgDOhp4QfEl4qEIXVAMT28ccje7OV1Do2CkES8XCx6nt9uQKoncMlSeQwtv1utCGK8kQJYHEuqjOcLT/PKHt9Dg4Vhf1Xsj0maQ3n1No3wlP528UidpNaHDMBVXBJD2HqYfPNX4N+baojxBtaOtJt8egyiL3ShZe151o6P2HrMZbhBZleVeZLuOp4znhSfRsnJrrQb5lt4j6YX/THRCkK+lLIZv0Pt/4dQyMOyVWqPqeFTBJPaC3YV3rd1Bg23PZB4jyAV03aHhNeDGxwkpqZ8pHJtsOVAUeRUPvXzE9NyBVe8U7PUBPB76gG+NzMpBx6Smw7sbswnBC+1sHilAVfETs7ITA7I9mJs5bCUyIpxPpR28JLvv0rSJ9SWfSO5slq2CSOkZf6ubwEdjbXkCV/yBM1uvECOQo5MgS7ysCaLn7XtS1PCuSzA9GnFheXpSqkX2fWxzHSd8+qOVekgwc6V4XYLJdD8bVyRXmJxiKOOHv+h/UNB8WppijtVFNfjyd6NxX5TsIe/sLgq6krxZFEzDFd3R2fgSR2XbhoTgc8WBkKoCJmTYROLm4lN7JBLR9lbk/qdudnAQ6YWC17k45qSt9s5lecXymWahfGPUyOhVCZKYdcwuj8STV5LtqYFpeXhBZybj9pd/O6FQThie9GJhwiOMbKEcNTriEQz6FThKGr5HJkPCllr4PT/qF01b0fv4n+uLvE9NtCWqB2YUhcDaj37bEOD2+S2CaksnPPTbdgqHJf9GJTmukg0Qn+pqTThKNeJ2BDaSnRB/SmfQm3Ul/8oFZ4sgXtYqCYFrGzEIY9T1/hbvz1zgT/CLyLDuuELTFWp9k3Y+XA9b6ThuWyXI95hZHrqANfaxP+h4Wafb0CCKpTdIyNx23zNEsVe2PBh2sRYNVf48L/KT4QH6QL57OX6O+5z3Br0yCLq8gvBLJvqbn+tAcfh9nQodgdkUFa+blppaXW9NVOywndKd4jYK5yboL3P3EFspUDFGiBV5inB7fJTDNLlw5GCiQ01Wl2KM87cgP8oX8oaBOfp0JHkJT+H2Qj5mWdc9MPOiFuovj3juE2YLndZBA6W5l18to7mDyLDsxJuNjXdP8XdW17+ttt/Q/LsMVnocSdD8Mhyq03aR6DnXyifwi32j0JR89na9k5I6SNpjm5iMI9b6FEvfNwv7GGUIiUDbfOeNRj9I2aE4YUP7uN8RWOVvAXk+/qepwtv8qoe0jkz7kWZVRWqbTLvKRuinyNdj7NuYW0j8+JC0w0WeoKrhPPDSbpw8kIwpNEjxkJr4MTNijmdr0ak6p2wqzPwfN4aPxTUf7gFksQVoNBPKVoCKfwzI+YgkNjrmQEpgoFPq73xJKNK65WnU0HlQ0FZyv/zqWcaXuaWFpBmXc0Wk0a8a3M/67MPTa98r6XVtafqiq10B8W+S+k7+MWDbZr4av602Q/6mUNcHE05KoNCOI9DAbxXaeAqXJfg0mZloS+srUf5y5Yu/Xy2fS8nz9MwltZjIQCt9quqCkQwPym2292PRNzKew7K0KJkZ1nA48IQQ0yijpNCQb93IEcdfDyOL4Qt1KgW237gYAk4/xYMK+0Q/jmyzi/QqdO0CzSTbol8ozyHeuAKeDT4ABrKuVpGDijMTkT5T09bKsyXWeI+eU76BsH60tLwhCyP1Pq2u0tZ0OfFE220hd8/O6ay/pRP5H3XyfXDWJqiyYGIt/ofE7KPHrI6pjNcZzFHM0y+VfEue52PcKgXa1OrL1G7fi+bbtsm3lYc35Fh2F2se5XRNQnKGIC+JDrsiCyd/5hlgrRT7IuEqzRfiUn7MS6vRBvXyoE3dMnL20XqYlZtCdWK64On4rdlHZjDZOmcYrGCAeSMtA55tyXUg8oSA8VgOTfbvmEbrpdJQelTxetW+0JqGT1IhfaDgssp2kU6eS9zIIk6OaHhJyx7/SWGt27hXnzyj5XDXq4uxqsl8F4iS+XDEzsaPHPQ+KbaEaDVGzTo6Yk56HsbicuI0V8l+9Nme8iWhef/Q4rpHJ+nj6i+8XGg/rJ71OCisRaX3C8yCYojG2XAGmQPcbYjutZ4E7KSCFbiQHng75xBXTc4MiM1y2NxSckY57b8VwRD4BWPtAKYq9V2uauCIpTZMBiwJ5MBeBriuTXVwGEw19+dbrdLeVTqejnIKL3TvBY93lCt09aDWnR6La22/KaCT4qeD9SDYj0a5YaN8j3GU4g6XTV63vpQ6KTnk8IlYql8HkvvSqEAA35KwkjSAm+3LnoNR1W9JkX/OLk3B2/Jc4FIdGTjUEXlrkmfvyQtMziCRJg8hkX5W+R4RAqzUw1vN84oRmF3fH7yQsRQXwmbkBFNtv0b1DWaqdFvKT/wGMr5Jht32wFMe99wqCkPmZDiL+n6OVy6jZdYtIc0jXW7lCZfCZ+i/pUqeUKo15H81VRbaPYnq+X3RTzEwdgyViJGVK0HQaosq9K24VXF7M3hzw+LJkDGXvZxdG4e9+E+Weu4QmnZZ8mmhSjZzhfVzOhLVdhBTdCM+ll8HEq8nLMjydvxO6L7aTDNmodGe7OQMTPywCTB+Evrphp1sJlFzeOCMV2/fC1vZTITdxKUnl/Nm5xTE0hf+BmpZncKw2qhZhXQQXBWhqrfldAg2v8zNDivj8c41fRrDnLZF0PjmI/vULd0FDERdcHa+g3H23cJdh/RsRVGw38SPARM++YsdtutESS+BI9V1aWir896Gh7y+gJjmTQj/p8HgN6lp+hAtNT+N8w9M4E/wKqvyfw5ngl8T3D5uexoXGb6FzuEIcjLja7LdWW7jkdQwxtGm/kPd4qrcaclyq9Ez3PooIxfZbRcjWlvC4RRgetdYQp9sJLkecHYocN6Mh/C5m1jBCrsVUrX9nOmce0XXcc5/oF3em6dJEi/uJG7a1f9yCLU3hIxtKYUaCcZ0mmOpafijrE5QMGAyD4ulOrf0m0Hzh7PgF7G0vwdr6E/lXS/Q6l03eZ2v9afS+lety/7O3vyTCvmk2oW88o0WYyGuteD+pzQz7cne8ApP1Gl2f/hALXC77xNEWS8tzIuQ69ke9fqZMwdmozHs7mOAhlcIDqev7/oSzoa+g0HYj8q07xUii8MtkDtQ58bOSL1FvaCUK17IDRY4bURX4HAI9r6Nv7BxSiQVkuufj7k8LmU3vqwZD9i0tP8KWk97Pbgg7nEg36MvFucYnRfzXakCanutHQ++7OOV9BPnWq8V2nQI65SspFD0bA0aEF9nov5QT3b0FaHD+CE54H4Sv67U1nfcZXGlt+4EwbzHvQDbavJ5nsH+nfJ/FFrPjVpEXcj2VZOs/UsIKZvWl0jFZ4VafJqHj3uhWn5lS9MYEDgoqS+kWW+zcC3v7zzA505msS+K659KrMDmisgkTwmaL7qk+h94EZuet2GKyXJeyXiXVypW8LwqkHPg6/7AqwTuGSlHh/6RYBrnDULINatXFmZLLbInzY+IQnKWl5MdzNfS9J2Y4PQrmFD+Ioy1HavVLeLqWEBieS/+dFEhTc/2oaf2mEMq5lG1EXQ0Vl9SccwlnaHiy0tj3dxQ4mSpHjzzLIZj0N22yTZKwbUmSN5sE7x+z4rjnXjG69ZwlLhUaS/0t9dyM9oGoRlkOVDzGi+lz1DZUp9Lm+Ht0Cybu2s6GvoyFpSk5mqJj8ARK3HtRovMw8HiCr/WdSstC5zbU9/5Vtt+8aG39qS59zvQHJmH5z0Wp+/Yr3BtiKdvaXyhi+IS2WKcz61qgWe13ykUU0nnIkVyhs99J3/6ooVhHArnuwMTpu8C5HZ3Dp+ToiO6RahErp/eUOauBJZXfBKDcOWjo/ZssHUYnG2B27dWV/5nuwETlYV3L87IEZI4hs3uvkBn0uEVOBSQp31MTzU1pcuSiY1BeQRvqfkfsXvWy6dAVmGgmKfPIL29Ts2GUuu4SxNtoXokpA0hmyeZu1uy6STZn+NLyHKr8B0Rm4UyeodR/dQMmji66MzT0vic7KzFAkbOWUh3fSPXQDabaf0g2cLN75Azy7dqHcpGeugETZaBSx11gvH186R4+jXzbVl1uh7MByn8NtET5SSQ3C3xZF8nNdAMmqgLqe96Nx5GIM6vwfmbDO+9lCjoOtiL7R0WS1HgidY9wsEUzzWX6nEz+rwswUQNsdt4im3mW7iIbVbOdCWPk/ktXD7rOxBemvGEWOq3TVesCTNToWpp/FE8jcVzGCfdD0d2bjHAqR/DNfI2DrthxM6ZkvEmD3X9GiU9bM4vmYKI8QCL1ycS6dQ1Xo9C1TfM8AXoCKDcptNHFF6ZxLrBep6k7keZgEkZO152ymfotzT/c8OFASgORYDrp3R+PJfG90ndQU+9MzcFEOeBi07cTiMPEUgXWGzUdaUoDQYn6hEuOc5fwuY4nmrPj5WjWORXOqkul7ZqCiUschetAd2KKlt6x8zhmUT+MOxUi6eqemq043rANjX3/G48lkdCUZhit3Hw1BZMIeKzdhr6xCwmEcbb/0ljikmw6mHrxYuO3EoIUmNPgaN02zZJgaAomjqJ8y7Wy3gFMM0MvRF3NCkmYm+020kOzyHYz5heuTGnDMP9yHkKkkaeppmAiUUqcn0jwWeLBx9WBxzQVJrMNkHSeR7oVWPckgCmaPvI/NZvRNQUTjZinfI8khP7wtKYC6w2G8J1kJqQQnm/ZhXEZF19r64uazejagsmdg9OBQwlr/3DEh6N1H8FRi7ZKuHRmi2zeK8ma4fFEWZOBoloZxLfQ7UOcmavBdpLBex/UM+nBldlbhyZcwumLu71sMmmjPIv+7ozJY0ROfKFLbzbBJCmduSnYcjr4BRQ59ogtOiMkqEQUjc0CIxnX9mFDYqZ+HrxHucAAk/xgkuL7GX4eX7IFJraBrsVUopqdH0eg681oSh2uvU19/4St7ccoc92NPOv2yxGoajJVgKnRAFO6M6JWYIrqBaNphuhDVRV8FI3hv1820F9OQyghnDmNRib94qDhC03fQLHjFoFAGmPJfKJRqShZA0zyM89a4MommDiZcPbhMsYN00n/p0UCj8GIVRjiJdzwPQFMsT/yc2SmU+Qr8nX9EZW+Azjp+4w4nrM8FD30jg/gAy/706SxPBpg0g+YOOtQsCcvKerQu5MJOArse1Dp3w/Ppd8iPFYHZmlJVtYEk9wfmVmkZeAogj1vo8K7DwW2vci37hKCPBtBAZDvbBRnMcbXU2Bkg4UctAI4A0xZBNMK7UXqROtWwRdp1qFymM6J1J4zU0yp604BHvJ4dKpBDgKy19YFptiaeEQ647jGp5tEsip3x6twtP8KFxr/QwQAmCzXih1Zni2aQJQzmVgyvbmobN0uUt3E1sfPhgC+OshWW+bqWp5DVft2AQ4CRCTI8FI8yRGaca4g79fy8OdrRVLcs6Evwdn2C/BINaa85oHZC4vyga/xfIr/njGY4iuM/c4UezwMZ3SqUdjfWgfyweWSibNqm76Hc/VPwt/1x9i/iM8GmNYPJtL3bPNDqA48jrPBp3Ch8ZsiKZqt9UVhUKeLL/nBM5aZFz3VJGQJTJK5oCqYZJ6X0iUDTOsHE8Pp5xeSpx1KiQHrvMkAUxKTxVo7Ki1/X22ZWycOFPmbASYDTIoAiZUYYDLAZIBJy2VG62cby1wa+DcE8PUL4GmQWfFbjWXOWOYUA5UBJgNMBpi0llu0fL4hM6WBf0NmMmSmNOCy+q0GmAwwrY6QNH41wGSAKQ24rH6rASYDTKsjJI1fDTCtDSYGWsplQ0mDzIrfqkvVQP+4FRXN24S7qAjrsaxOXC13Vtl+NndyDPygY1v7gFlxQGRSoS7BxCO+6Od0JnQIeZarhAcnvTfpWBfrqZltRmr5PIKHGWPoyH++6Su4NHQCS0sLmfBe8f/qEkxSL+nFOTXXg7b+fNQ0HxbnpNCxnV6DDGwguDb6mSnJAEr3WpHHUoQT5aDE/THh5DY06cKizkAk8UvXYJIaKb3Pzg+hf6IWoe4/oSrwGMrd94j0MZz2GUFBn3MppYyYwTaQdltSRBJAkv98mesOnA09ic7h42scby9RSNv3DQWmeFIxCwiPv6AgerHxMEpd98Bk2y0ARv9ngowzWCzAtAYZn88XZ1QuXWwnwcNjPkzW63DCfT9cHS+jfbAMPFN4I5UNDaZ4QjOH+NRcNzqGyuG99HvUtXwPlf4DKLLfLKJjyDwujYyKIROlpZLXhaCfRphWsuVJui7AsnKcKp8jOfZz5uHzjtTmwuy4HecanhIHPLcPmjE5250QixbfRz1/31RgkiM0AUYmDUW84pDoYPfbqG3+gUiYccr3MMpc96DQthdH67hURpcYEdXByA5fdPkUQYgiEDEKQIJDuhZ7Lz9zluE7Z59C2x6Uue8B85ifDj6GmqZnUd/zDnpGz4CJuabEqeJX5lmQ68NGubbpwbQaIyjgM4KGp09SHdE1cgptg0VoDh8RpymFet6Bt/M1MIudre0l8KT12ubvoa75B+K4eZ7QGeh+C6Gev4jz4ZrC/0BLfx46BsvRO3pRnHfC+heXZldrxqb57f81mDYNF3XSEQNMOmHEZmiGAabNwEWd9MEAk04YsRmaYYBpM3BRJ30wwKQTRmyGZhhg2gxc1EkfDDDphBGboRkGmDYDF3XSBwNMOmHEZmiGAabNwEWd9OH/ANAUD4wv+etuAAAAAElFTkSuQmCC;" vertex="1" parent="1">
          <mxGeometry x="79.00000000000001" y="93" width="147" height="143" as="geometry"/>
        </mxCell>
        <mxCell id="HDc9Nho8ilmy6_pK3tJT-8" value="" style="shape=image;verticalLabelPosition=bottom;labelBackgroundColor=#ffffff;verticalAlign=top;aspect=fixed;imageAspect=0;image=data:image/png,iVBORw0KGgoAAAANSUhEUgAAAJIAAACOCAYAAADab1FuAAAVu0lEQVR4Ae3dhdPcNhMG8PdvLjOmkDIzc5s2hZSZU0q5TSll5qYpg7/5eUb5rqp85/cs27rUmvH40F49+2i1Wq3ktWoqEwIZEFjLcI3pEhMC1USkiQRZEJiIlAXG6SITkSYOZEFgIlIWGKeLTESaOJAFgYlIWWCcLjIRaeJAFgQmImWBcbrIRKSJA1kQGI1If/75Z/XBBx9Ujz/+eHXfffdVt9xyS3XNNddUl156aXX11VfX733+xBNPVO+//371xx9/ZKnwKl1EndUdBrC4+eaba2wuvvji6sorr6zf33///TWGY2M0KJH++uuv6u233642b95cnXjiidVBBx1UHXzwwdUhhxxSv/b+wAMP3P3a57732QknnFAD984771Sus6eWv//+ezdG6qzusxh5Hw54zWIEU9iOgdEgRKL4559/vjr77LOrfffdtybKAQccUO23337V3nvvvfDwO78HnP+7juuxantKgdELL7xQ122fffbpjNFZZ51Vbdu2bbBG1zuRduzYUV100UXV/vvvX4MDpDbkafpNANn1zj///Oq9995beS7p4i+44IK6YYXG0lT/Np/PYnThhRfWFq5vkHojEhP92GOP1ZaEae5KoBhA1wvd3j333NM3Tr1dn++DPH1ixJrTBZ30VXoh0m+//VZde+21dV/OcsQkyPlet3fooYdWmzZtqn7//fe+cMp+XbLeeOONtY/TtotfFjc64FfRCd30UbIT6Zdffqm7sj5aWBOQrBOn87LLLlsJMiHRFVdcUcuc21LPw4hOuBk///xzdi5lJZLhKoCGJFEALnR17l+yEw4jQ/cxMXL/3OGUrES64447sjjUgRzrPQcykaPUUgJGfLItW7ZkhSgbkV5//fV61GF4vl4C5Px9CBW8/PLLWYHKcbHXXnut9lX69okW4UlHZHj11VdzVKu+RhYi6XOPP/74GqRFlRjie47lxo0be/EFlkUeRiHAOAQGi+4Bo+OOO6766aeflq3SP/6XhUj33ntv3ecvEn7I7/kgpg9KKQ8++GDtXA+JwaJ7wejuu+/OAlFnIn3//ffVMcccU8eLFgk+5PeGvIcddli1a9euLEB1uQhrdMQRR9RB2SExWHQv8aUNGzZU3333XZfq1f/tTKStW7cW19ICgJxKlmDs8uijjxbT7QdswlnY5Mknn+wMUWcinX766cVZowAS023Oqa8gXBv0xYzOPffc4rr+gBGrdOqpp7apytzfdCLSl19+WcQoJIASn4UDHJ9++ulcEPr80r3JMPZoNsYmvDd6Y7m/+OKLTjB0ItIjjzxSrMkGFAXylcyqj1VefPHFWgayBOWVdCaXEdzDDz/cCaJORLrrrruK9Y+CsoAkUW6scv311xfd2ODET6LLLmVpIsmfufzyy2uzGJRW4hmR5C+NVc4777ziiaRro8suCYNLE8nk7Mknn1ysox1IjUhnnHHGWDyqDEbIEOQp8czhPumkkzoFcJcm0o8//ljHIPpOE+kKPCWedtppoxHJiE08q1QfCb50eNRRR1U7d+5cGqelieSmRx99dOt02a6EWPb/QgBymddTJIAJGXz99dfVu+++W73xxhvV9u3bK9meRqq//vpr6wyDzz//vF7QoNWPPcfWhCG5RiOSORrmsGSLRDYKbDMNIPXEpOoDDzxQx300EiR0DUN3FgXgPjvyyCPr7pKD+tJLL7XqEmQo8kXI06TQsT5XR42tS57S0hYJ8JKkSu3/gUNxljvNK6yOOTmNAlkQhbL9H3GQaPbwme/8JhDNBPGtt95affbZZ/NuVQkFyOYsjUx0SJdd8riWJhLEbr/99iKH/xRNyRTXVAwWWBSWB+GAuUzQEPkQwzUMo609+/bbb5tuWy9WYNFKaoDkpssupRORzGNR2FgmOXVfFoNin3322UZc5OGccsopuy1K6jrLfObelGIS+7nnnmu8v3VnJnFLsUx02HVOshORPvroo7olLtOSl1HUov8E69CUPiJOIuWFwvu0CAjCKt5www21Y55ilMQ7vyPLonr1+T3dweLDDz9Midn6s05EchcJbSW1rKYotv4/RJmHUB4FsU7WlTUlj0m7ZQ00gD7JMu/adEeHXUtnIhnlAGyesEN8BxAZf+JbcWGJrrvuulppQ1tP2IhuCxnEBbnFmfhXQ2CUugf5mix4LO+8952J9NVXX1WHH354bcpTgg7xmRbNyhiKpwpHkrKGJlGoO2XZHCO17u7jjz+uCT6ElQzyhLPul+7osGvpTCQC2ElkTKcbSSzfTq0klXjHWo1FIkpDdDI2xbPGwo/ObDqRo2Qh0g8//FAzewxfiZKQRAQ6LlJItbgx5AqtPpxZHHLYfiYu5BSGYCHC7/s+k8XIUap0jpKFSAR56qmnaqCGdhy1qiZrFBYi9q2Uttdnlc4888xk4O+mm24azFeiI0Sis1wlG5EIZMQ0ZBcHEPdLBR7t8KGFj9mlxQQjL5lsyROXTz75ZHckPf5f7vcwaxrdxnK1fZ+VSOZq5P4MRSatSpeQcmKvuuqqwVr4ehTNKskjj6cj+Hcsa5/xLXLSzTnnnFOJ7OcsWYlEMP6SHJwhyAR02wXGxShE6saQPkdbMrFKrCSLGRehlD5xc225WXSUu2QnEgGlmJgENEHZZ9eidaeG/JbX+K6tcof+nQaQGi1JU+mjO6YDuqCTLjlH88jXC5HckOnmQAJGF5RbWUZBjtSObaV2awEDJGe14yJoacFiTksKe9eji7g7je/f5X1vRApCcSyteWdWVYppD4Auc/Z/1xHkM/0QR4z5S7mVsYyc8/5DsU2BwBypuQEjmMM+NRgJ+sl17p1IBDVtYYu7Y489tiaBFsmatCWV3/k9YCgBOJZCxSRyL/5RuP48ZY75XVB0qlvW5ZFfXZfByH81NFib+khNGeUiz+x1BiFSuKHJS3tGX3LJJbtJodIq7+A7hCN85nvkYYGsdJAeMi+Tz/bLfII+fbMcJFSfZ555JkCz+yzF1+fqyq9R97YYIR9s+YhNE8W7b5T5xaBEmpWd5bCn0p133lk7gYbEkvTlCRlZmMy00ytL9tZbb1XffPPN7N8bX8s1oujSiUTpKSLNVkyCnFxxqS8IIrSi64MRrGDGgZZFAMscc2az91/P69GItB4h1/Nbe0vrOtp2mzmsyzLXQKSnn356PVUr+rfZiSRlg3m28sK2xSyOQ6sxOSkVNRzeh0POs+O2226rz16H71L/c+1UhJjfsSoWKUUk1hcGOTCCecAfXnRCN3SUu2QjEgA4wBZNijazCFodX6CPQzqrCG1c3nzzzZXwkZq6NgSyNCg3Zu5HJ3RDR3RFZ7lKJyKZtbb3j36bkCofnOO+fRTOOB8qLtaRcdiNeJbpcob6D/lTm1uE/cn7kINOgvNOV3RGd3TYdbOtpYhkSCm3xhAzjLb6Jk4MLLJwOONtfoUEtGiAxf8p5T2SU2Rqux2DDI1xCFnpDI50SJd0umy4YN1EMtKwmI6pHFNZQACADMO4eAwVgIZQxjL3ILfNreJEPMHUEGtb5rpd/kOXdCpGt2g0GePtfWsimaOR96y1DNViFgFDIaktfplqoCz6/1jfIzks42IlB2zH7JaDfnWx65mXa0UkDmywQkN3YfOUTSFGOHHRZSDSmAppkptfQq6Uo1vKXpN0HKyTkV6bspBI4jJSMrT+JnDG+lzr0RWkikBdiTIjv4BiKofKs1RKkpksous4sKjMJZLVovrOMX2heSTVclQ01bpFhH3PAsy7xpDfkQWRTBPFReSe4kqzonRPpnkrh9WlkUh25lCxUkkUCGD0Y+FjXELGYUm+EhLZcCI12Sxg6PuSiB8wxgFcSPmjAfckkfgYJa1NDxVKnVkdlbRvUVzkQZfiK5FTy37llVdiMetJaAQrZRCTwplsUl9SIQsV+heRzBrrwykndcESPyOrdfapYtIXmcZu6WTwoL9UsaPsKuBNRmGLVPbFv4hkjquk7qANcbV0lUytGaO4oR+yF8us+6WAVGqHdWVDr2mL5VvPe9zAkbj8g0jSVinFsZ6Ll/Bb/oU0i1Q6qRGSIGWYFhhSXsDbpKEpxUO8hlxDytTlXrjBZ4ob7W4imRGW37IKJjYFhK6L7HJ3UsXDbSz3odghujn3cC/TOHaFSxVJepQyhDwpzJb9DM64MptFsJtIPPJVrNQsGFoLy9Q0urCWiwXgOKrr7H9zviYHsO1C0pSQZ2qnxCcmtcEB8WE4i3NNJBOfUjK0oDYXKvk3KsjnSK0bYxWEBWwMSonqazSVqz5hBKmrMpyPJ5SDVTLTLpVjVa0/vGDHlQiB1ZpI5niAsGomNkUAdRCkdKSWKgVlSjcx0qNMoLAiy9Tff2AXriElNvYfwj2dPTxGNN5Qepn7peo8xmdkd4Sd3moi8cJ1CWMIlOueKkWZuiwWSYLYPCIF5drFRECTFfFfBGTVAlBNZ7/1H7g5bFghb3pR0aWZH+SABwI658JhyOuodxjBrXGYbA28qkSiaFaFRTEyE8pPxTkWKdgyZlspW0hogtr1kCWc49cyNFk0y6zn7WLbdF/+mtkDoYlVJRTO4A4OrdkbWgsE2JBsznEvFaEEo7HUfFuTEhd9zreBi+7P2RInh0i5zxzLkLXpvroHu4PQg0ahceTAp+9rwJ7Mot1rdlddNacP6cksyLfex7JztmUBiuvwV4Cgu5k9EMX34TB8d4T34b+INfu/QDS/ZeFmh8dNJJr93LbJ4WlKLGDfRMhxfXqggzXplatEJFYIyPaFTEWKZxXjNetCwUZq/CZ53jZMR0YtKufBkriea/O1pM3qKu1hzV8LI5xYxtn3Aqrykvx/FfRCRhvfrwF2FdgffCE716YmPmeV4bXuwpJlw+zgFIdzHySKCekeSO+ewPaa7JYIsTyLikGAOU8DiJK7OtzhWqypHBBymLm+rgFIgBK4KcAXFMNXstyZ8vwn+H9jKwPGQCeT17owXUJqSifUhcU1GlSXUnVELuGMtdKfJRZIJMd53i5jnkIgw9DvAc8i9EXsrtcFPguF5KYapDI3FV2zLtlvSyQTvHXDayUDHkghzhOvuAjA8zvMrwULVCLYTcRTP4QiM7LM8/nEnkq1TORfa6pkCZ8DTpylyfyL38jN5oeU3CAWYUl2XZ4db+dFxZENJgi46JpDfr/XXnuVSySAWQXa1J1xWPXNFDAkaH3eS525Gk0bY7HK/L/S6lwskfgDpjnEa1JFRNikK+D7VOwY11Z33V3THtgCoaLJJdW9SCLpb5n61E4jSMUxNeEJ7DEUPcQ9je5g0LRyQ2YDDErpzoskErPdlH8t4sxS7ckkCkRFJvVkfVPFbiKsUgn+UnFEAp4NIFL7QMttDqt9A9h7+hmRWB4NKC5Gq7IvS+jiiiJSGOqnNp8Coi2Pjc72dPLE9WOhxZpS0yuCrxrf2CGPooik9ZkSSGUV2oWtBMBiJQ/xPjSwpmfOSqQb2yoVRSSjldR2KoJ0pnF8P4TiSryHRiQskFoEKr1l7EZWDJGQBFlSOT4Sx8ZucSWQSxfXtDRd7vSYA5BiiIQoqefOyxsySvsvW6NAYkN9PmJqyTS/ckyMiiASR5FpliAWF6mvACphiBsUOuYZkVINzqoUXd9YcaUiiIQocobibELvmeypW9t7t2+IKMIj8W4mpk7GHNUWQSR9vwy7uIjeItHYQ9sxLVB8b5YZmVKJfQKUY3VvoxMJMLq1VN61zaiQLAbzv/5e95Z6jKj8c0Qao+GNTiStS1KUlRpx8QitsVpYyWRlpQUo43ibgKVcdA1zaPlHJ5IhK/8oBsV768YmIv3fPwrkCN1bvCSdT+lhQGNgVgSR5GHHxShkVTdYCArv6xzcAYHIuGzZsmWUwUkRREo93NguF7q9Mfr7vgiQ67qIxOrM7gQSCCWHaQy/cnQiAUT6aFzEj3R7QMulgD3pOnCzTi8uApOjEUnLH0thAGGO42JPxf/iTH9bssPN47PiwiINHXfDHY1+jcJ4+t44huxOAJLaYc382kSkfzvagWhw27RpU8yjOj13KCIxQO6FSBbZrlmnLqXTag0jKMIyj4RFsD6J5R52nY3LRKRmEtEP3FLPMunbIuGCe+OHw0KEkMG5e+s/yhR6tzpDMNBoyoQpxon1BGvlYrm6wolI8wkTLFB8hlsqEyA3keiZvuleD+G+Fh489NBD/5ob/QeRYssgrcPSGN0PYrkQk+bswkxbF2K5zmSR1k8muPVBJMRxBOIEXQuA2myEkYnnRANn5hIp/MjZBcR3hOJ1PYbtos+6P4fKESAcoVucZ70mIq2fRKFr60KkYGnoKOiLLrz3HeLQ79atW2udxwHjWV6E162JFP4Qn+XH2DnD0NOOsTY1FWHdsGFDLRThQp/KghE8CM2q2bQzLpOPNJ9g8EsRieK5ISwJ3MPh93CHf/B/EVLQ1wICvU2wOCLmbYgT66wzkeILhvdWfUhOtz5N3617tMyIFbOC1pMKzQ3pb+MyEWk5IklVtuoEmZDENBOfBllsiyiXiS48S5eTnErdjXXR9n1vRJongG4S6zn3qdURE5GWI5KMUgmClnMFbO2b0OTXzNPRer8bhUiLhJyItByRFuHa5/cTkfaer7R46F3C+yYfqU+iLLr2RKSJSIs40ur7iUgTkVoRZdGPJiJNRFrEkVbfT0SaiNSKKIt+NBFpItIijrT6fiLSRKRWRFn0o4lIE5EWcaTV9xORJiK1IsqiH01Emoi0iCOtvp+INBGpFVEW/Wgi0goSSUqIlJ2SSpFEkhsjBSIkWpUwv1WKDDCxhU3Tzr9jkatIIsljktwuX2k2KUtabykKHVKOkP4qMU3CoLwi2aollSKJFADyrBHZl5beyLxEJFmVTLuWKRNwXirvkMrOfS91VceQFy/r1KKMZZ6fG/Ds81w0keKK79ixo9q2bVu9DCZs3I5UIX00LERYNXKR16FhhPogke7dQsjt27fHUBT3fqWINIueDEtPiZSqu3nz5jqllBIoRHeIXMFyldYlkpFM5GRxnH1GZosNpSVrNE1PhZrFoZTXK0ukGEBPUeI38K8sKLAVntUQtsrT7SBV8LfC69A9BkuWq3sKRAlJ+LP3nb23vHX7ZLM6dhchf9Nz6eL6lvZ+jyFSCli5ynwKz0CzK5wUXqsvEIwSOa4S5YN14H85WIZwsBiUHx8+d4TfhXPw4ZDJtXXBGzdurBc88PVskKGrklu9a9eulNgr+dkeTaR5GtFt7Ny5s94tjhXje9nhww77uhb7WnpqI+LZas+SdtbDgwY9Z9bndlIxgmJRhCws9vSEbKs5PMXJM0Qk4qcWOMyTbRW/+88SaRWVVbLME5FK1s4KyTYRaYWUVbKoE5FK1s4KyTYRaYWUVbKoE5FK1s4KyTYRaYWUVbKoE5FK1s4KyTYRaYWUVbKoE5FK1s4KyTYRaYWUVbKo/wMO8s6H2SiAdgAAAABJRU5ErkJggg==;" vertex="1" parent="1">
          <mxGeometry x="968.42" y="80" width="146" height="142" as="geometry"/>
        </mxCell>
        <mxCell id="HDc9Nho8ilmy6_pK3tJT-13" value="Service Cloud" style="shape=image;verticalLabelPosition=bottom;labelBackgroundColor=#ffffff;verticalAlign=top;aspect=fixed;imageAspect=0;image=data:image/png,iVBORw0KGgoAAAANSUhEUgAAAQ4AAADcCAYAAACBME81AAAgAElEQVR4Ae1dCXhkRbWefdgFF0D0Kai4goIKissTFBVBUXi4IU8UEdT3ns+nT0Rx94k7LghMlu5k9n3fmX1jhtmZGZi97+1O7510kk46vff/vr/ureR2p9NJJ52tU/19N/fmLnWr/qrz33NOnaoaB/VTCCgEFAIlIjCuxPvV7QoBhYBCAIo4VCNQCCgESkZAEUfJkKkHFAIKAUUcqg0oBBQCJSOgiKNkyNQDCgGFgCIO1QYUAgqBkhFQxFEyZOoBhYBCQBGHagMKAYVAyQgo4igZMvWAQkAhoIhDtQGFgEKgZAQUcZQMmXpAIaAQUMSh2oBCQCFQMgKKOEqGTD2gEFAIKOJQbUAhoBAoGQFFHFbIshnzvzSA/m5AJiPTsSaujhUClYPAGCcOkgN/FPQM0qkEWgGcSQMnUsDJdN833u83UwNSnWnyVDot39N5gzpQCIxqBMYgcUghzqA1FoObRJEBzmaBuXoHvrTFj/csceP6RW5cv7iP2yI3rlvoxm3rfHjqxWYcak3jTBbQOptG0iQSIJ2S7++8qA4UAqMOgTFBHJnOL34GoWgcHgCOLPCXF1tx8yoP3rvIgxuWeHDVfDfG1TkxrlrDuKoSt2kOjLPpuGKeSxDPexd7cOMyD364L4RDLSk4AZA+DG2Ee2XOjDppURnuRKCiiSOb6fq60wQhWfz4YDM+vMKDG5d4cOkcF8bVaBg3zSSJGt0gjulOjJvRj63eiXG1ZlpMs1rDBbOceO9SN25a4sbDz4VwOJJGI4C2WNysBEUgna1RHYwaBCqSODIp+hiMXwuAXYEO3LXBh/ctcePCWS5Do6Bg23SMs5IEj8uxSdJhWnbd0F6mOTB5uhPvW+rBJ9d48cTxNngBNHXEzJyOHALpcu5mAZS6sTgjpywmuGpXZgQqkDiMRksN41l3Oz673o93L/ZgXK1uaBYUZEkW5SCJvqQhiYTvpklTreFVs134yAoPfnqoBQFqIHFTA7FoSWWu616SI0Hwx72hqYUB+ErcmoU2lTDJQ5IOe5q6tD/zRWo3ihGoIOIwCIONfW8ogbs2+vDORW6Mo/lB7YJmBAW4L4I+mPfIPJDIqjScN8OJW1d78ccXI2gXDcnwhAxtT0wWrfEEQoDYHHHgH8eahbP35hUe3Lyy79un1/vw9+NtggxpkgVNKkKW5TLIaWjLNoqlcwRnfdQTR7bT8QnhgPzi5iDet9RtaBh0cI4UwuiJjGguVWm4ZKYT923x44XmuOjMFep+usvkKlsb6vzyZxCOxdEEgFrC30514NZVHnx8lQcfW+XFFfMaukw6Em9ftxodl89xiTQ+scqLW1d58d09IbzYEhfvMejdKJfSQspWq0Oe0OgmDtOX0QZgpR7BLWu8XY19pBNGPpHQqWrX8aHlXnxjexBaO1V7ipkhagNvGWY64ssPEa/yhxPtuG2VB3es8eJVc12GGUVTiiTB/DCP0szq6564kwwtRDN5hgs3r/LijjU+fHtXAEebYjAMM0MDUQQy8Nod6hRGJXFks2xwhiAcCMVwzyY/3rGQWoaGcXX6yDBJ8omhL/9T6ChwNTq+sMmPk5EU0hnDdLFqVqU0kk6hzCaFocCu4R88H8Kda724ZLYL454mURhdyTkk0Zf8FrvHSjTs4qb2N03D+HodN6/w4v4tARwIdUC6hlmmzryWUkB177AgMPqIw0Ia+0MduGWNz2iUjL0o1pBHyzUKHJ2otRpuX+fF3LNtZvyHkKwSG0kXwT7fmMB/PRfCh1Z4MIVYkDCoGUgBH2x85HtIIs8Y5PihFV58dUsAe4NRC4EoJ2qJlTwst48y4qAgGOrtDl8U/7rKNE2oZQx2wx/q9FmmGg1vWODGgztDcLSb/o6+jIMx72mNx+GMZfHY/ka8f5kHEyi01C5ITBTkoS6TfB/fLbWrah0fXO7Bv28J4FhYxrYA1hicYZEM9dKiCIwK4jBME5bDME8WOCJ43wqSho5x9RVIGlLAKFzsfbHpuGeTz0Iexb7KJFbj+m+PtuLOdT6cS0ElYYw0M85KIFUabl3jwezTEeF/Ea2WjlyhYRZtw+riMCAwOojD8pV95qVmvHVxg9HNSsGSQlbJe2oI1Tru3uSHQzhNqXjlOk1lWH0qlYQnlsWje0M4j5jQLBhuDaMvdcO6rNbwhvlufHlLCEcaO8zw/NxyDoOMqFcWQGBUEAfNk1gqgyePt+JK4QSlpjFGSEMKnd0pyPKujX5o0mwxySNLYs0apsxCvR1f3hzAZGpismdEpjEa9oy7qW3Ax9f5sDcUQyIt4z8ME7VAG1anhgGBUUIcwOzTrbhqrJKGFHiTPO7e6IfeZgiU8AVkE2hJAT87GMbVMuiNWoZ8brTt6Yup1XDb1lbMPttmdt0aWlaX2ToM0qJe2YnAiCUO0UBM+3anL4rrlplh42NN08gXegpVjY4vbg7A12Y4E9uSKTy6r9HoLeGgvUrAiGWo1fGGhW48ui8MZ4Rh7PwpzcMEYlh3I5Y4pFPsQGMHPsouVxmjkS9IY/F/ah71On53OIyG9jh+cbAJU4WgVQhpWOvUpuO8GS48sCMILWL2uvCDopymijjyEaD6ze/KseYkPrHWZ0SDVmKXq1VASjk2NYqrFrlF8Nt5HPHLmIxK0DQK4WDXMaFexwM7Amiwkkd+w1H/DxkCI07jEL0D2TTcbUnc+1zE6D1RpFHYXyF6WxgtOwYcxXanmJbgR/sa0RozHMHCKTxkoqJeZEVgxBGHtGHnOdqMGA1FGoVJo9CXuZLPUZuyO3HZvAbMPctJE/hT/g4TiCHfjSDiyHKwAugUfbE5gds3BI34g0oO8KpkQR+MspE8bDpuWunF/oAxCcHwk8fYJK8RQxxigFM2DW80iW/si2JcjdOIdByMBqjSHL1aDMmjRsen1vlwLBxDhnKbzYoPTp8+u9k0kpksIqkE2gawRZIJdKSzQFr29vTp7RVz04ggDmoZ2WwG6WwWC862YiIFW5koo1e4B5uYTfK4Y50PJ5qN8bVsPwV/mRQ6Uhm0JRNoTyXgbo9j5tl2PLo/jJ9wO9DSr+1He8N44mgE7nYjXaYfTWVMIql8LWRkEIc5ucyJcAfu2hw0ewhGcQDTYAuOSr9zNvrq45yGiL8u4siaZNGRSuBQYzv++mIEPz3Ygl8fbsE3dzXh9QvcGF/tMLYaDeP7s1U58LLpTnxtRwi/OtyCnx5owR+PRHCihQSSEGSFzqhXQysyM1oRu+EnDtEnb1R6/ckWjOegLqVtKG2jN3IUzlIdt67z4YUg/R1JZNIJxNIJbPZE8PujETx+JILPbg7ighlOTKjWMIEEIeKBzNG5TGMgW51TpDehVhPpn1+n4982B/HLQ63407E2HGyiOZNEPJ0BUpVl0gw7ccjh08dCUXAcBj3nFT3itTeBUNf7Tpr1TlBoH94ZhCOSwHpPDH85FsGH1voxyaZhUo2O8YxvYXe13EgU5cSY6cm0SSQ2HZOqdZxj13HbhgB++UIEfz/eDn9HCgk6ZNJy6oDRbc4MO3EgawwBrz8VwURRycpEKWvDLqeQjMS06px4+ZwG3L0pgLcu8WAKB8nJdkTNtdxE0RsGgkgMshpv1zG5Rsf59U48sD2IJ0+0wRVNIUnTPCUJZHRaLsNKHMYArTQ87Ul872jC0DaUmVLeL2JvDb0SrtfrmMBgOGqrw0EWPWHYSSI6JtbqOM+u496tAfztRBu8HWmkhEOXc450+WdGC40MK3HAdIrOPt2CC+dw+UWlbShto5+mBIV0qLWLngij0Hm27TpdaNXn2nV8dVsAT5+KokUo3KPPbBkRxPHUyXaMs5kTDRcCXZ1TWkiltAH6Q+w6Jtl0nG/X8dDOILaHkogljUmpGQQ5Gn7DRhzGOIMs9gei+OSzflPFVBqH0jj6qXGMNmKhBmLTMcWu47plbvzmWDsigjNERNuI545hIw5ppjx5LIzJNhXwpQhjjBBGPsGZBHKezdA+zkRJHOacsiN46oBhJ46/v9hsTMir/BvKHMkXqrHyP30zpvbxmWf9qNPi4IyrYhzOCHWcDgtxyIV3OLfCw8+FjMFsijgUcYwVouipnHYdE+06LpnZgId3BdFkrogxEictGhbiyJprorI35dL5Dao3paeGpM6PPTI1TZepNh3f2B5Ao2m1jLQu22EhDunf+MORcFewjhKSsSckqs57rnObDkke4RFIHsNKHH85qohDOUXHqFO0L6QpyWNHAI2yl3aE+DyGlTgeP9yk/Bt9aUDqnp6/zJWOjd3QPB7YHkDTCCKPIScOI8w8C3ckhq/vMGf5YlBMpTcAVT5Vx/1tA9Q8anU82Kl5cLY8ab8MT8jH0BOH6Rhd4WjFm5eaYeYjOVS4v5WtnlNEUc42YJotP3whDncHu1syw0oeQ04ckimfOBrGRHqQVTesErByClilpsUFum06Lp7lw4/3NSEQjRuD44YpRH3YiON39G+o8SmKNCpV0AerXNUOvG5FMxY6jRAx+SEeaoNl2IjjDy+ElWN0sBqXSrdyCZlmfa2Oz++OQheLj3PB8aH3dyjiUEJWuUJWqXVb58Qlc4N4aGcjzrYMj8miiKNSG5cqV2UTYo2GS+c14omXzFEtGRmfPjRGiyIOJWCVLWCVXL9VDly3zIOjTZyGkAtxy0CPwScPRRyV3LBU2SqXFOnrqHdikp3xHUGE5FweQ0QeijiUcFWucI2Fuq3VcXG9E0+/GDbUjCFylCriGAuNS5WxcsmRmkeVhs9s9ONshGu3GGswD7axMmzEoeI4VJi9GmZQhjZA4mAvy3QnnjjcNGRax7ARxz+ONWEKV6JXkaOV+zVUms7Q1e0zDty+3g9Nah2DPO3gkBNHVqynCTzrasW7lnvMSYrLwLyqkQ5dI1VYjyysTa3j5TOc+LPUOga5e3boiYNe32wWoWgS3+qcNlARh1LbVRsYcBt4xoHPPutHoINLLWRhrCQwON6OIScOUQxzSLAKO1fCMmBhUdqPof1Q67A7ccXcBnAAqVXOBoM6hpU4/qxmABtZKq8SwtFfH9Mc+MrWoMkVgzeGZXiIw+xrfkZLYlytWsGt4r66HAJu3RQhDR0h1Wj41AY/XO00Vwy3QMVoHMYs51msdrXh2tVNle8gpRopNq6ebm6VJkwkCpaJK8VXa7kbF4SutPKO1PLU6bh4phO/3N9o8MUgBYQNi8aRSaeBTAptyQweP5mq/OH1wv7kaupaZc5BQjKs0YT2eOEMF14/twFXznHhyrku/MscFy4gqRCDkSpslZavpx348ib/oJorw0IcokSmg5TxHKLRVWo8R70TL5/nwo2rvXjfah9uWu3Dm5d6MIGNtRKEifVm0/HKGU5cs9iNH+5vxiJXFIudUSx1RTFPi+Lh3U24YLZLxewMBUGxTdVouGtTAMGYOcXgIMR0DB9xUOsAUHW8GRcS0EokDn6Ja3V8YkMAuwIx7A7GsTeUwN9eimAyv8Kjvcx1OsbXavjgSh+eOhHBOk8HGuPdHXIHmxK4clGDoVkOhfCM9XfYdVw624U/mjEd2Wz5h9wPH3GIuRKzOBmO4d6tAcM2pqBVUqWbKvz9O01701QetwfimDrDNeoFaYJNx/tX+LDVHzNLVnjniKTw+oVuo44rqX5HclkY07F+8MyV4SMOtjFzxvPaEy2YxCUSRvsXOL8hmcTxpe25xLHWExv9xGHT8C8L3FiqR7uxRTCWhj+WRiCWgS+WxiI9iovnKI1jyD6KNFeqNXx5a8Csm+5aYLdKK/HE8BKH6edY7WzDq7mGLL3vlWD3SwKpVOIQDdOBuzYHEU9nO5scTel9oQQe3NGIr24N4Ws7GnHfthDet8qLSdSwKk2jlPU80vYmcXxxSwCxNCfqKH+37PAQR6ezJo10JouFZ1vx6vlU3SvEYSgbUqUSh03Ha+Y3oPZUWydp8OBUaxK3rQ9g3DQN455xYFyVuTFWp5I+CLJ+R/LepuPtSz1YpkVEHWVT5fVzDAtxZE3HaDiRwHItgg+t8mA8hazSGlclEodZpjs3h9Cc6JqqLp7O4LdHmw0/BmM5RrJQjYW8UZZsOu7fZporZR70NrTEQU3DnNpskzeKr28P4R2L3Ub0KBtkuSqUJg8bb09bXwOSekuH6RczrwZKHKz8Ynko1SfE+3vCRJalpzqgD4r3UHt42oF7toZytI3nAjG8cZHbCPziPby3p/yVq1z55WG6orfKzGt+WfubH5lOT89LzHorV1/bnUxvoPsqDZ/dYDpIy9yzMsTEkUEmm8UGTzuuX+rBuGkOo4ENFCD5PCvGruP8Oh0Xya1ex0Xc5P91OqbQJDLv7ablyMq3azgn/1n5vyW9C+t1jGdahRpVf4mjMw86LqhzduXd8l6WZwrfyXfzfolBob1535T8tPLSO0eml5/mDCcm1zMfTlxk13BBlQP3bg0h0+XewMqGDlxo13FhjWbcV6/j/OlOjLfmx1oukZ5ZL3n56Gu5zrGk8bJ6I4+sh4nMh6W+idXL6nRMzcfJmp+8+/PbDNMjfj1ibban8/LTsfwv8CUJ5efDilG5jvmOaiOew7RVcoh+oP8MCXFkhaaRFg1tsy+O67lmbFUZx6gQpDod59o0vGa+G79+oQVPHo/g7y9F8KS5MXaC/3P/wM5GXD7HhXNrNUzIW/Cay1Kea9Px2vkN+K/nm0R8Ap/h9o+XIvjn8Uhn2v84HsGfX2zFx9b6MYFfWTYea8X3hzhYFpsONsDrVnjxu6Ot4Hvk+1kGazleycCqYj6EOh2TbToumunCN59rEvlnOSQuMq2njrfhf/aG8ZZFbpxn043lOVkWlsGu4UNr/fi7iekfj7ZijTvG2RE6f1wciJj/7ViryB9x+tbuJpwzy+wtM8t1fr2OD63x4Q+8r4dyPbSrEZfObuhZa2Ge6nV8bVfIqIvjETx9IoIbVvswocqBT63148/HWo38mHU37WQbPrc5aBA8CZL5sTsxpUbDjctzcSYmxEhiQ/z/cqwVn98SxOSZJiaynkU6Os6x6aKX6VeHW0R9yTRkOvz/+8834fK5DRhXMwTkwXyNauIQpJFCOpvGGncUt2ztMNRZVp4Ef4B7fvFfNceFx/aHMc8RRTyT5cyL3X48R6u8oT2FutPt+PnBZly1yDKZUL0TVy924wf7wpintSMQS4t0ekpLpJcFDjQmcOfGACZySUuGlcvylEocrOwaDVfMdeE3L7TgWU8H6BTPf78shyeawtMn2nAFe6QY8p1HgiTTKXYd9+9oRPWpNng6jPLkA8P0uDF4a5kzit8cbsG/rvF3CVm1hv96PiywM3303fLENGW+eA+HE/z+hWZMJXGQUGs1vHpeA/7vhRbsDMTAzhjeb/3J5/0dKVSfbMPblngMQiYuElPuTc1oRUNH5zv57A/2NeOzmwLYG4yJj5RMj/nh8Z9ebDUw4le/RsNbFrrxn3uasNHb0Xk/77P++L/ctvo6cPEcV5eWzHzV6rhstguPHWjGfC2KVJH6iiTSot0Jk45kn19f1jIO9HhUEwdJI5MRPSeLHS24ZnGDALqsgNl1XDTLhd8faelGGGyciUxWbNbGwGM2Bl679dmA8cVmJdbp+OBaH46GOelr918qk0XSqp9bbjneksTnNgYxSXz9TVIshThM0rh8rgvPnGhFKq8F87XMr6X3U7yd5+vPtOOKeSZ5SCETmoKOe7cF4WxP5ZgVfFDiUqg4vPbbIy2GwFPIqjX8xx5zjgdLmYsdnmxN4p3LPJ1pvGZBA6adiHQrF9NIZbsTPfO10hXF7RsCmCj9FlKYTOKYr7XnZGF3MIYzkcK9B76ONL6yIyTyM75Kw7uXezFXa0NrkrTStx+jfl9BjUGaG7U6XjnLhb+8aNSXtcpk+ypUjwv1KN5Mf9BgksfoJg7jC8cGcO1SHybayzxegeDUanjjEjcYdGT9RVIZ/O3FCH64txk/5tfA0YZwPC3IRVbmnsYY3rHCYww8Y1p1Oi6d34AtXi5wA5AoqL2EYmmsc0fF1/Kxg81YoLXD19FdGF8IJ3HnpqAhLKY6zS9bXwLAxts0YT5Vn27LIQfmIZxI4+njrXhkb7NopIGOdA6BCfI43Y7LSB7Ueihgdh2T6nWsdecGaJF4Furt+OHzYfzv3rAQZr0tKcopSfFkSwJ3bAoY5aC2YNPwv/ubxT3EQ+In8eb7STa8xo3Hz4XixviUKgdePbcBtfnlygJtqQxWN0Txf0daMPtsG5oTafGsTJfCt78xjncs92ICyyVJ0SSOOY5c4rCaTiyLNT/UuC6hWVflwJsWuYVmlU+azHckmcHBxjgWae3Y6OsQ2inTYUAbx+GIiF++36bj5bNceMIkDZlnkmBLIoP60xE8sq8Zvz3SCr0t1a2+FusduJLRtMXMTEmU/dmPWuLIZEDfBtXAd9ERyqHWBLw/IPT0TJ2OC2e58P29TZ2BSGxsrck0KOAXznRhcrWGyTYNVy9y4xs7Q3hsf7OwXQOxFL61pxGTplscm8xfnRMLtChOtSTwxLFW/GR/M765qxHvXOHFudN1TLFpeONiN766PYSlzijaqZtafs+cbOsSuL5qHHYNr5rbgL/lNcK2VFb4JJjvS+YYZTl/llO8mzaztTuUhPDtPU04h19nCnu9E/eZ2obMHgVj9tl2ITiTpzkwudohzIfPbw3i0f1h/PaFFmhtSUEmAhfps6l34gNr/PjpgWY8spdmXC4ZUdv6+cEWgS3v+eWhFnxtZyMm1ut4+WyX8M9YyaYjlYXtVBt+sLcJ1y33Yup0pwhJf3BHCI+/0ILGeC6mcx3tuIpfaLNc0lTJJw6Wk+TxUksSf3upVZSJ+fn14RZ8eK1fCPuEZxx4eGej+ChIXNhmSPq/OdSC/97ThFvX+/HmxR68d6UPX9kews8ONuPBXY24SAzUM3wj581y4Uf7wjmEEEtnYT/dhv/c3Sh8ZGx750134gtbQ/jD0dxykbR+fqgZr2CaEuee2nl/zo9K4kinBWls9sXwHqqrgjTy7NT+gGF9hsDYNLxlqRcnWhLC9GBDoCD/6WiL8OjT/hSNzPxCTarVMbVWwwWzXOD4kSsXm6q0/JJR0Kc78dnNQXx6YwCXzHRiaq0Dk6iasnIFsfBr48TEag1vXugWo0BlA+SePofOrsi+EAffXaPh+pVeRJJdWhMb81pPBy6d58Ik+i/k++26ePcr5rqwLxTvLDfffagpjmtX+DCuxiHiYqjpWb+q8xzteMOCBqM+LOnxaz6l1uhFYtk/voHahulLMDGfWEcsNEz+5xl8aXMIXTkFlro6MNWuY2q1A1NtmtgmM/1qDdcs9+aYAyzX4aa4IN8pNWavGu+lhlSt4YJ6HX861ooWiwnBrzhNSg6oE2auWZ+FiGOjN4bPbWLd6aJMzM85Ng0T+A6bE+9Z4cMGb+7YmtORFO7eHMQ5NRom12gYTz+VmaeJNh1TbbphgvK9xKNWx9VLPKBmZv2daU3irUs94mPV2QZYXzU6LpzpxJyzbbCEvsDZlhJO507Tx9q+B3o82ohDBndt9cVww2CRBkE1ieO6lT60Wz5nJA5+OSfTZ0Hi4H1yMxucaKQ2HeN7cE5NsjsxQTaeHNKgMBlfHKFiPuMQ6qu18cw6246L5VeE7+vNVKl3YnydLsK3ExYHhrcjjTs2Bg0SYh74XlkOChCDe3aEQAep/PFr+1FGblYbxEEhsv5mnm3Da2ijs0dLpsW9BRcOXBPjhvIbLu+r1TCpThdfcmu67IoVAXyS4ISQapg03SkI2hqWTgfsN5+jNmIQv8iHrE/mgxrdEg+OhK1CmUX1qQheR9XeFGjmOZ84SErf2RPGxGqH6Sw2CZ/PEL8qDT/YHxY+FZl/PlN/uk104ZJwRfrCzDTxlthwL/Np1/GRdX6ELSxA8+S/nw9jMu8RjmpL22P91er44GofqJ1Zf5+haSs+cIPwYR1VvSrm+JMvbGYDHgTzRDZos+Fdu8KLRot/g8LDxvmTA2ERhzGesSJWApHPsyEwDfm/dc9rssHwC2Ru9Bmwe3HSDCfGs5H984zogbE2BJpmbydhyjSKEYdoUBresNiN1e5c7eBocxLncnzH06YQsDFat2ccuMCuC61Dvp92/UfWBYQdT0He5MslDhLs9NNtuGqBG+MZEi4auCkgsvwUMG7yf7kXeOt4/xof9oVy013v6egykXg/763V8KalXuzwx3O6bc9EkricvUCsE5m2dW/XMWWmCxyKb/1xzAWnJxBfZ/o7ChDHs94Yrl/uLew3YJlqNfzsULM1WRxpTuCOjXJ0doFyW/PGY5uOS+c14KnjkRzt4UxbyuhxYX2x3VvrisfTHDinVsfWPDKnpiPKVAjz/HeX8j/rYNQQh0kaM0+34pX8spHpSylsqffWOUGVnaYJnYjWXziREXblD/Y04eNr/aJbUoyhoLD2RBjy/RT6ag3XLfXgv/Y04cf7m/HIvrCwlekM+/0R+j7C+N6eJqzz5ArRNn8Hrl9pmkBMpzfiqNHwwTV+xMQ0A10laIim8L3nw2LA2MO7mpC/PbijEd9+rhGOtq4vGJ14t23gF8wQrO8+3wRv1GpUQNjkcxxRPPp8GCR3YWOTXBlbUKzxmmbXV7bTP9DlgwjFUnhkfxPGE1P5PI9rNNyw2o9IMrdeTkeSuILmEutB4m3d252YNNMp4mfy/Uef5teZz/VAHA/tbgLNUUHa1jSZH7uOKxe5RTd7F8oQTlsR2NVTfqzp8LhWF+agq61L02N6oXhGfEQe3N7Yra5Ydw/uaBK+lZOtuYT4beFnM7XY/HcN5H+WeTQQh2GiZLHFF8O7+cWV3v2BFL63Z6nm12rCrmSMQv6vI214yQ+E4vj1oRZ8d7fhjBO2ciFSMxv/lOlOfG5jAOs9UbQk08IU4teazi/Re5DOIprOgs5L2RMh373V34HrSiEOToSzxoeoGMUoUzF6dNhVSAdoTxv9AJW3ANUAACAASURBVGlLVwLzct/2ECawHDYd589ydbPn+Qb6c5l32uT/fKlV9LB8bJ3fiIzsSRMgcVRrwvToyiWwyRszByhaiIDvr9Xw3lW+HAcus7rW3SF6rop9VEhCNAWsPgTSz6c6TbfCGsc3nms0NBkStrXtmPm5Z2vAnMS3qwTsbRF5KYE4rl/pEz1dXalA+JJIkj3VlTxPf4319+vDzXgZY0MKtUdrGUo9ZplHB3EYDPzgzhDYT96N9UsteF/vZ4g5PdwHmnuMv2BFUfApaAxC+/7zYRH7IdRJAizfZX4xGVnKOISu76q1qosf94c4blrjy3EgFn9Dz1epdZE4Or/+Nie+tC0kujS7h1sZ6ZAMSVC7Q3HRo3HNUq9ocN20MpM47sublGiJs8Ooa2vDNwX1Pat8aLL0kERTGTz+QrNwTndqJxJ7677OKcy3/RZzpS/E8a09TabaX4A4anR8b284h2iJAHtBJNF2tgNrXvKPa3XQr8bgwHL8Hj/SbJg4Vvzy39mf/0cFcYjRrlmsbWjH29j1Kn0K/SlwP56hc/FlM5z4zMYApp2MwN2eq0ZaK5hjZejI+uORiOEolBVGwbDp+MLWIOhlt/7oQ1mkd+CvDNU2Q86fPN4qYip2B3NVz+EkDuaZvUFC22PDqXeC4yM+ud6Px4+04qVwl1ljLZ88jqayWNXQgeuXST+BRQCJT5WjW0zKMleHcILmfDF7II5IKovHDoZx7izG81gIO7/O65y4arEb+8pMHN/fF+b6ZrK4Yj/cxPGfexoxmdjma0n5mJT6/+ggDkPQvrQ1YNiYzHSpBR3I/XyfTQd7BBj++/WdIfztpTbUnGrHS825gi1bDTWQ6pMRw1FHs8quiwCq/J6ILf4YvrO7CVcvdONiTjw83dw4DX2tjp8fapFJin25iIM2tP10uyCqp060obeN3cAcU3E1iVuSITG166IrkgPU7toYxF+Pkfzacpyq1gLQVbTBE8MHV3tzv97EZ64Rk2G9f5W7w+hJsL6zB+Lg3Cuzzrbh5XMtYduF6r3OiWuXe/BCOYmj1jCzmmK5emS5iIOBYzPPllZfHB/0TgYgErtyywzTG9GminCIZjH/TASvXWBGwhVqDENxjhXAfvc6Jy6Z7sSls1yif54DxFipVMutP/5/1xY63AzioDORtqj19yAHatErLrpAzT2P2eX3jEOYSNb7+0McHEBG34n1tzsQF2NQXl6n4xXTnX3auOgwu0C7kTa/ZrXsZtVxCcmvnlqID3861iIGh7FHIP/HaE7RoEWjNsaafGZzEJ5ortayWG8vrHGYztG2POfosXDcaCc9+RTq2GvlwiMHmkTErjVfvfk4ejRViIldx/tX+7Azb35UDn4TGnJP+cnHs1bHu1d6RZSrNW8c5MegsZfb+l5frFcRaFdu0mCeRzxxmPOG3rctgAlDMeovvyIL/c/GTuEWcQcUFCdePceF3x9tzel7Z8VzFitGbZJwGMhkFV/asZ/kWBb2OlD4GJUp3yeEUeumcWzxd+BdJTlHddDZxohN6+9QU8J4J7tNzbL0vi/y5RLjPUxcajgqWBfk+so6HV/eGsKRvGAmRsW+bqHZM8ay1mhidK01j2dbk2KiaRHDYTU92GhrdVyzwoczrbmkdDaSxKt66Y6dOsuFbYHc0bd8L4nLEPLCztGixFHnFN3bHOVq/S13deA1DNWXBCnrt6e9Tcebl3gMjc3SWGjeTiHG7I7tc30xnsZiDvb0zv6en+bAHet8RnFH0nwcsidlg7sd72BPCgEbDPYsBpzJrJ1drbyXFSiF3BRwBv9wgNKBplwB5cjWt9Gmt+lY7zHGqMiGxVG0t3f6DPIq2Ez3Z3mmyjZ/THyRREM0Ba7oWBXO1zDHhV8cCudoHRyUJfwVsntRlqnYPh8nET9AArUQinxe5J89JQw918SYC1lu7g82xfHxZ31dWkeNhgd3NVlvwRJnFOcxvUJfa86JMduFnx5qBnu35K8hmhZry4jgu0JCY9dxzkynGHEsn6Fjd4uvA9cyRsNmaA8k8vwAsKLEwXZSpeGxg7mmJcfHPMTeGMZekDzyMcz/v86Jc2a68B97mmDVpqipfmOX6ZxlOhLnnvb56Zbzf5aVI8ZnN+B3B806G0kzgMl5DL+6zS/Ce4eeNHRcMNuJT60P4AubgkZkoZjn0kJgsuLYuGs0bPd3+TzYnDl2Q8QV2HVx3NVYIca/iK/cP88awmetXDaOaQ48ciA3oIiq8A0rvUYj7AtxsJJrNHxgrfllMDPALtN9jXH8K8dYUOORWg/v52am3XmNphPPM4+mQN6y1ocHtjfiGvo9zCCkTuGQuPDeJ8+KgYDWsrP36RoRyGa+q8qBf8/rUZmvR418FBI45qVWw42rfTmD9mgJ2k5FjEhTfp2lpsL7KbxcNHlbEK48B/dXd4SMiYt4P8tu7wdx1GhiOMHJvOjNPaE4bljhxbinzho4s63wHXwXj9lLKGJdzHZVq+P6FT4xIE5ixrbkaEvhS9uCRjmoKRIXloubqC9LWiwrz1vbVLmOmS7XkN0YAAdEjrzJilMp8Bv90XW+rjDmchW+t3QIDgevLfGIKEMOHaej69+3hfABCi4rSgqcGc13+4YgHG253Wj3bg9hEivYruPOzd17VDho7WOrfMaXVabHRlHlEAOYOALX+tvhj+HGUoiD5azVccXCBqzx5A4eY7rb/XE8sKMRH1vjFSQpGqONXz0nrl/mwT2bgrhva0isUH7ZfLfZ4I0GO19vF8sTUDP41i6m4TMiPFkOlkHsz4oh3gwbt/6ePBHBZFNA5WQ+392bq3FwtTbhUylEHGa5LpvfgGWu3HJxJPN39zThllUmwbJ+ajS8fbEb920N4kRLModsuJDVW0RvnSlsZr5K0jiYH85gNt0pBjlay0qFaLU7hq9va8Rta/2Gw7yO5pBTTMp854YAvrg5iGuXeYyuWw6nn9eA2Xmjc5nmqdYE/mNPIz6zzi+CE0V9MahtuhNvW+zB3RuN+rp/eyNeyxB6Ene5CYTpVWuCgEU5B2H92P7PAMbowWwW9jNteI0YQzBI7NkTgZjE8f7VctEZY2i3J5oG52X4j+eb8PlNIWPbGMDXdzTicFMiZ0g44zoYQyG+xnSqTtexxp0rQOy65XO/OtxsphXCPRtDgqA4Z0V+r832UjUOlq/eKRyX717uwfZAbiQqK55rkxxtjoth/ZzFi0sq/uxQGOvcHdDa03B3pOGOpvGO5b5OlZuRu4fChnZFwaC/5nA4gZ9bykF8KBALdI7y7TInOlIZMRuYMD351bXrYtlK+j2sv9XsUaHm0hNx1DvFGJD3LvcK7cn6LKcq4KA8RubesyGAr+9sFEPdacpYf8T/7i1BTK23xAb1lziIdZUmtLgTeb4X+qaJM0fJclW67+1twn/vbRJjZM62peCMplFzKoLzZho9QvQRvW2xGysacjFh3kPxNE60JkV3/UOsr+ea8OiBsBgQybRYXxyLxBnLRNuTWldPbb0/56dpuEvON5ozJNGKbv+P+08cKcNX8LmNPkOdKzdr9gaWIA4d71ruFcFa+RCw8vR2uaVAn0H+j47Ry9kTxIYv1FJN2LuFljFkkFRXemkxmxZnueoSNyN1diFyMJORpmEefTFvQaY1hRZkojDUasLzzzEXhX7s8iMB8ItNgcr/PXqgBRczRsKm4bULG0RMRv49JEtrOVxRTumYW4pVrna8dYmpvfCLWKvhi9tCaLYs70ieqTrVhgmCOIp8NExtjuNBqDnk/4x6MuonLxtwR1N4/EgLLhLTCFpmVjOJI/+LX9THIdsTR/nadXx+c0gMv8/PD/9nbxvbADfrAD0OvOM4FWG+MA/Vhpa0PE9bk2kyZF7WVzhhzLcrr3H/52MtYrY30VbKJT9Mh9NfTnfi+7vNCaXL7Bhl3gdMHHduMlmzXAWXFdyXPVXPOS4xNR7V4bN5gVvWSrIec4avWWfacc0yrxiZ2qkq1uu4eKZTjEvhgskU1L7+SCI7AjExE9lblnCQm+lrqNHw9V25K7k9F0wIB1u3LzWfqdXM2amiQtPp6/tPtqZEr5HQ/ji0fYYuptHj7GAvhLv8OsXS47iW+Y6omI9CTIEo1GhDQCiU1h/T/Oh6v6Fm91b39U7Ri8PZ1Yhrfpe3NV3j2Bi68M1dIVzKcGyBpYWcTOLgtAPW3/f2hbuEulj7YcxPjYYvbg5hrhbFyUiuw9yapvWYPidOc9DpDGa+OHXAEg+mn20vSIzW563HnNzHdjpimGAk194wLFYe6zWmU6vhA2t8MHw5tAz63o6teSx23C/iyDBSNJuBozWOW+jfsHrtrYUYomPGbbxxfoMIt17o7BAzbtNm3+aPi26zvaE41nti4jxDpDlc/TVySUI2Qms+bbpYBPsN8xrwi8PNnWlxfstCG99DH8JPDzbjxhVeXD7bJSamMZyUhv/ilvUB8SzvpS39f0dajUlv2fCs7+Yx81Or41/mNOATzwbEPJZ8Tr6bzzO6U/4v38/lChikJibyYePhJMX1Oq6Y04A7NgRQc7odqxpi4NeRQW6cy2N/KI5NXgMvpsvpAV83pyF3OU6SR1X3HpUFervR/diTmZJfLt5Xa8xh8uODYTDilHmXmMhjlosjT9/DCX74DJ2T+UIlyufETw511Q/zf4eYfc10Rua/3/q/aV5x6oV/meXCvVuDWOKKirzw/dY8yf9ZxzRfzuVkxdZ647FNx6tnu4SmOcvR3pkOny1UX6wDfkyuWezG+WLy4wLtwJrfUo+rNHx58+At/0hC6RdxZE0z5TeHmnAJowDzha/Ugg70frPHZFK9E1fOc+NN8924eoEb71rhEzM/fWiNXzjeeP6qeaZpwl6GnvLNgLBqB14204Wr5xvp8dlCG69fNa8BF7Ixsju6QLqcOEg+++YFbjHTdc6yAfnlp2DQ627T8fq5DTl54ORBLJtMj3u+n2H33d4tz9kNAmFe3zjPjXcs8Qhc/nWdH+9c6hFpMV/nsgzMv5UMSBzVDtBWt/5oJgjHHrHPz39P/zM/tZqY1OYNZj0x/yyTtTwM3BMfo17SvnROFzbMP+ee7UYyPeWFZWV+qo05RoihrGviK/Jk4izrmO2hYPqyvmp18UGylqVQfb1xvlssN9GtvnrKa1/PMx/cajX84JD0vXQ30a312N/jfhGHXCz69g1+Q1iY2b4WbjDvY4OnwLH7jHtqQiQBbhQIeZ4Nhg2nWF4EEZjdZ3yu2CaE3LTB89OVDdT6PPNV7N28Jp+T5ZHP8/9C51imQmnKdGT5mY7MLwWTZCfT5v85+Td6m7jS/Iwzucs9rnR3YCLfZyWZQu8vdI7vsZbBesy8MK99aVPEUead+/7kReJjzQOP5SbT5/9sRz3li+nwmjUdPpufjkyvP3kthKX1HN9v0/G+zW2gn4pWQSbdNzOsVAIZEHHcxgChvlaytYCDecwKlBvfI+10HlvP9zUP8pne9r2lZ32+t3ut163P8ZjX8s/J89bnCh3L53hN4FIgPetzvOcZB/5tS+5yj/RRcNBc5yhc6zN9PZZ5kXnP/7+/6fT1ufz7rO8vlCd5Lv+5/P/7kk5f08pPuy//P6Phq7vbwSU5kU0jbS63Wiox9Hb/gIjjMxtHmMbRF2DVPYU1E+IiNDRL1GONMRcpF4Wy/jjnylUL8gbTKVx7xnUosKG2Ue/ExTOc+MXeoFFdg9CbItuBIo6hqNQR/w7DAXnlArexhACDw546i/PrnPjO7kZw1i7rr4aT31DTHAx1e8Rj1YuJO5z5n6bh1rU+nG5ht/fg9KbIdtA/4jCdo59cL+dtGMFgDmdFjpZ30z9i0/D9fU347ZFmfGCpBzcscuNH+8MiUEk2Fu6DcXNhIz7Tk19ltJS7UvJpahvn1jnxMxndO4jaBttBycSRZcRoJgV3LI1bNzcb6i0zXimVMBbLQQKY5sAfj7WK5SUONCXA8RtNeUFmsUxWxIpcJLoke3DGjkX8RkKZqzS8b5UXhxupbXB9zdygPiv5l+O4ZOJIJY1gou2ednxgY0vhfvaRAKTKQ9/J3K7j7Ys96ClilQ2NpPHPExG8llMQ0EzhQlYK4+HHwNQ2ptqdePR5M1J0EELM88mmZOLImPNv7AoDb1liTrKqNI7hb0D9FWL2nNh0PPBco5iqj+NZOJ6Co1NfbEmC2gc3rizP4DbRvahIY2TVd5WG96z04qBYtoLaRvkjRQdMHGnTv/GsK4L3rGsyHGSKOEZWQyqFRMzuaq5AdstqPz68ygcuCXn/ziA+vt6Pm5b7cNMKH17FSFulaYy8eq534sI6J3613xzWMAgjYfNJg//3T+PIpnG4OYGbN0eUqVKKkI7UexlXwK7YaWYwGFexI6GQKHiOWy9RnMpsGQY/Hz/YVRo+vt6Hk83mwMgh0Db6RRyCfdJJcHjRR9awV6XAWIKRKiAqX337Yqoek77hNNztqcaByxY04pnTxmC/7BBpGwMgDmMeyds3cIBbkTDc4QZWvX90CICqp9LricFec/z45s4QzrbGhV8jO0TaxoCJQ0WODoN6qoSsdCGrNMxootRouPO5DnPoPB2igzOYTVgYBf6U7OMQaZg9K59WIeeqEVeaUI6G8tTqOL/eib8fNUYsZ8s8EXEBnuh2akDE8cmROMhtNFS8yqMi3P62AZuOKbU6vrMziIA5EkDMj9NNtAf3RP+Iw+ySvYPEoXwcSgj6KwTqudLajt0gja9uDcBnTuo2lH4NKxX1jziEqZLFP4+34LL5g7DStmpQpTUohVfl41Wni+VVv7jZD6+YujWLrFhF0SrOQ3fcP+Jg/tIpcI6hTzyrhtarGAblJB7UNmB3Ynytjk8968fRJnOeVY4ZG8bfgIiD+f4sHaQMFFLRo5X/1VOazdDXsd2Y1eumlT5s9bQbVDGMmobkqgETxxe2+DGJUYWKOIa+USlBrmzM7brQNLjA1zK9a+GvwZrVS5JCX/b9Jo4s/RzZLFY62/B2rrLFNT0VeVR2Q1ZENXT1a9cxuVYTq+9tkt0nyGI4elAKEUm/iUMkZsZz3L2Ni/Zy7VI11HpQbV0luEMnuMOJtSANHfdu8eNwSxowJxzOjAATRZLIgIhDLpPwrV0hnDNjBCyTMJyVrd49NoR6MOuZGrvd6D352tYA3DFzMp4hDCWXxNDbfkDEISb1yWawLxjDrTui5oA3pXUorUP1spTcBjiw0Azuup9xGnGz12QEkgZJZUDEIVgpkxKzlN27LYiJXENC+TnUl3cwv8qVljblpU4Xi3O/dn4DfnigBcG4Zdq/QZ4CsDfNoqfrAyaOjBlFus4ZwXXL6SRlD4vSOkr+4lSaQKjy9P4BIWnYaJpo+PetQSxr6EBThzFnqJjbd4SSRnk0DhYukxartn99VxgTbfR1WFYWVw2o9wakMBpbGAktw4kJtRq4JMUj+5vhi2WREURh0TZ6+tyPgPMD1jhYBhn6yukEr1tmLtSjTJaxJQyK/Hqvb8pEPaNANUyy6/jGjiBWNkTRHOfAk9FBGJKzykIcIrF0CqlMBj86EMbLlreqNTeUIPUuSGMBI5MshO+vRsPEWg33bwviyeMRBOMZZITzc3SRBuW9bMRhTGKcEes63L47acyGrXwdSnjGAjkUKqMkDHOB7Ul1Oh7cHsRfj7XC3Z5EnGu6ZjgufvSRRlmJg10r2XRa2GnrvR24ZonHHHKvHKXKUToGumclUXDPpTGrNWGSfGC1Fz/eH8Zfj7XAF00gxsWgU+aiSaOUNMpLHOROOne4QnYmiz8cCeOCWWrdFUUaI5A0rELO40IaQ0/n8p+V/9tdYsZxDvjkEIzvPx/G44ebsdXbgUgqiQQVi1TnJBrCuh/Nf8pmqnSCIMgjg9ZkFres8ymTpacGqM6XJrDlwss0HcTCUow74sjuvi6ezftqDG2i8/kqDefPcOGbOxvxi/3N+OWBMJbr7Yik0hAuT0EWRjDXcE260ymbZTwoP3FwnWxzDMsaVwRvW9xgkkeJzF6uhqLSGR4BHWm4UzOwabh+uRs/2duEx/aF8di+Jjy0M4Srl7iNqOcqc12ZQvsaDVcubBCOzR/ta8Sje5vwo71N+PmRDvz5SDMCHSlEkgnQa5FKSlOEkjo6fRi9ccygEIf0d/Dly50RvG2RW2keI02Qxlp+qjW8c7Eb/JjFkAUX+KCQhxJpLHC0CiL4/p5G/KDA9j+7G/GjvY2YdSYCd3tCaBJ8lhoF5xaPpjJAzurwlUkWVjIZHOKQbzDj7JfqEbx1odQ8lLO0JJt6rAl4uctLTaNOx+sWuFF/otlsmTQdKNz0yRlrBJEASAQkhPyN5427qE4LA6TreVSeGSLFt9h+kImjawHcpXqr0jzKLRQqvd7NMBLHNAe+safVFH5z8JiUChGtyX9MIim6ZwdA3vMynTG2H1ziEPVhIQ/NJA/akBwNqBq+wmCw20CVhg9saMMGN2fI5VS5nbrDGBP18hZ38ImDXM6JVU1mX6pFcMNyr+Gdpod7sBuOSn/sYlyl4er5DVjliSOZMWYFFyED5ZWhMZnakBAHkRXkYc7MvCOUwnf3RfD2VWGMq3Jg3HRFIIpAy9zrVqPhTfMbMPdMiyHY2Qyymcp3Wg4Viw0ZcXSSBw8ySQRiScx3tOGmDa0Y94zD6A5T2sHY1Q7KWffVDly7KowFTrEAidB2xYdrqKRqDLxnSImjC08yv+FkWudP4IHnWvHuda0Y9/RZYz6PcjYildbYIqNqDdeubsb00xEkzYXDpJnc1f7U0UARGCbioO3CeTwM8nBHE1igteELO9pw+RwXxk3TDA1khhPjuCnhVxj0pQ1Ua3jzAhcWuBJICauky7c2UEFRz+ciMHzEQZ2jczUqg0AaAfzjWBh3rvPhqvluw4RhDwxH2SoSUeRRjDzoCF3gwryzpk9DxGgon0auuJfvv2Eljs5idPalG11lQQD2482451kf3s/pCDlGYJrD0ERkT0x/NZH+Ples0aprw0NqrEuOHanS8JaFDZgnHaFsWJ1tqrOVqYMyIjAyiEMWqLOyGccHxAAcigIPbA/is+t8uHW1F5fONUchkkjYIyPHFZBQGOyTL8RijILRuMS94jnGkRS4N/9Z9X93PEcKJowDqnLgjfPduGuDH0scrbIVGaO0O/9TB4OBwMgiDlnCTgKhqpkW4wG4amZDBvjjC2F8ap0Pt60xtk+s8eKmFR5cPNtVeKCSXcfl81z44AovblvrxadJQGu8xpB/FYRWOjEMp8Ym312tCy30+qVuzD7VAmmcdEV/yoak9oOFwMgkjoKlNUiEl9hQOOqAG82a3f52/OpgI+7caGgl1Ezkds8WP544Gsa+QBT0obRxYBOAD64LYlytWn2um4ZWTKOQJmOtGXcjBbnYM+W4xvcIDUMTJutbF7rx0M4g9hvBoJ09dKrLtaDgDMrJUUQctFutGPCfLjLhFWolTXlbh/URobvwmQz+eiyMK5YE+j4XQzkEYDSnUe/E5fMa8InVXmPMEeexkL1fLFe5SUSmR+2C77HreNcSNz652ivMEg5EM8amKn9GThMfon9GF3H0AEranP/DiA1hD03+BnTdw0SyCHakcNOmiOEnKeQbGc1CXu68i4FiGj61wY8zrTHMd7Ti42u9+OhKL960qMGYDIfCzYlx5KQ4UvD7mhd5v5xox0zv7YvcuGWlB/duCWBvO9DlyeihMajTQ4JARRBHqUhlxJyPwHd2BvGKeX7lKO1NuOucuGS6E/93kPqc8aOZyP+WBzP4yCoPPrzcg3cvdeO8mU6DQKTT2ronscjNel4e1+i4ZLYLNyzz4MPLPLh5jQcrna3wAxCaY5ZOc0Pt7OrKlzlS+6FEYGwSB2eYzqbhaE3iw1vaMK6G42VUL0tBDIS2oePmNT6cbYkbK6dn2G1uaHXJVEL4juhrOhwF/uf5kHBEv3+pR3Slsztdbu9d6sH1Szy4cVnXOXmN939ktRe/OhTGqRQQMIlpKIVBvavvCIxJ4iA82TQnZAF+uDeEC+Z6u1RsRSC5JGo3tI3fHTK0jaz46lsbmKEBCCLJpgSd+AC42Atm2fj/yQSwJxiHlsm9xvt4neRjpEbNwggK5DSUakSrFe+RcTxmiUPMi5pNQ48k8bkdrZhMr72K7cglDWobVQ7cu7sNYSHHWWQyRoxNwebb2Y3Om3lfoa3YNcHoBZNWJ0cWAmOWOEQ1CJU7i3UN7bhsnunkUxpHF3nU6LhsURB1J41ICTkJdb+bcDarJtLpN3gj68GxTRz8wJlrXdy3LYCJ9OjLXoGxTiB2Jy6o0/Hr40k0xQ3NIU3fkPopBMq5BORoRTPDqeQyGZyJpPHJZ32myTLGJxaiiWLTcffmABpaGfjfi4kyWitf5bvfCIx5jYPIZVJGONFz/ijescwj1t8oOO5lLGghJI0aHa9e0IAlZ82oiW4O0X63N/VghSCgiMOsSGmy/OxAIyaSIGq1Llt/LBCGLGOtjnPrdDy6rxEJ+jGzWWSUiVIh4l6+YijiMLEUwpHNwhtN4+5NAYy3WaIgpVBV+t6m4xybjm/vDCIslDBjgt/yNTeVUqUgoIjDUpNGWHoWpyMpfHqDT6w2PmacpSZpPLwziCa5goBaQ8TSOtShFQFFHFY0RBgBpcYgj9ufHSPkQdKo1fHQjiBCgjSUppHXLNS/eQgo4sgDhP+KnhZBHkmQPCbQ31Gp3bQ2HVNrdTy8I4hGU9NQw9MLNAp1KgcBRRw5cHT9I4OdTkVSuGO9DxNJHj3NMjZafR8maQhNI2kEeyvS6GoD6qhnBBRx9IwNshyun83iVCSJuzb5cREXjiJ5jPbQdIbX23Sca6d5EkBQkEYWWdV7UqQ1qEtWBBRxWNEocCzMlmwWrgTw1PE23Ljcgwkkj9Gqfdh1TKlz4oq5Dfjp4VY0izEotM9UVGiB6lenekBAEUcPwFhPy0mAEokEDjXG+hI4hwAABG1JREFU8ekNfuEXMLSPURJlamoZU2062HOy2Z9AY5RRoebynNYCq2OFQC8IKOLoBaCcy+ZEMmejGfzvvha8fn4DJsh4D0ZcjkRfB80qu47JHB4/y4VHDrSgyQiU7Ry6nlNG9Y9CoA8IKOLoA0jWW7KmSu+PxrE9mMK/bW3E+XbdMF/Y8zJSCISEUadjol3HeQzq2hHCancMwahcT1XaKNbSqWOFQN8QUMTRN5wK3GUsL/hiUxQLnTH825aQiIUQ/g8xt8cwkAhJy3z3OTM9OK/Ohfu3BTHzTDsa41lzQhxFGAUqU50qEQFFHCUC1v32DDLZLI41RjHXEcVXdjRiit2JSaL3hT0wZi/MYGkigixIGKZJYnNiqt0pgrk4j0ZDNIV0xrRNOifa6V4KdUYhUAoCijhKQavYvdk00pkMjoejmHW2Hb893IJ3L/diUo2OiVyHhAQihZx7uZXiF5HPWNOx62IeERIV3/fHY22Yq8XgaU8hLSf3NUPH1RR8xSpQXSsFAUUcpaDVp3vTSGWyaIknsNUXQ82JNjxxtAW3rPWKCFRGoXIb36mRWEjESgyFju26eE6kUaNhot1YsuCvL0ZgOxXBVl8HIvG4SRjMrJwPtE8ZVzcpBPqMgCKOPkNV6o1p4VNIZhLoSMaxNxjDUy9F8PRLEfzzxRb8ZF8jblrtw/g6XQymG08y6Wmr0TCpXsfNa33iuadeahXpTDsRweGmGDqSCSQzaWSFSaLIotSaUveXjoAijtIx6+MTUoC5zwgSiaeTSKQSSKSTiCSS2OmP4enjEfzjxVY8WWTjdZLEnmAMbXEjjbhIJwOIqQ/lu/qYNXWbQmCACCjiGCCA/Xtc9mykkcqmkMyme91SchauJLtTFVH0D3f1VLkQUMRRLiSHKJ2smiNjiJBWrymGgCKOYuioawoBhUBBBBRxFIRFnVQIKASKIaCIoxg66ppCQCFQEAFFHAVhUScVAgqBYggo4iiGjrqmEFAIFERAEUdBWNRJhYBCoBgCijiKoaOuKQQUAgURUMRREBZ1UiGgECiGgCKOYuioawoBhUBBBBRxFIRFnVQIKASKIaCIoxg66ppCQCFQEAFFHAVhUScVAgqBYggo4iiGjrqmEFAIFERAEUdBWNRJhYBCoBgCijiKoaOuKQQUAgURUMRREBZ1UiGgECiGgCKOYuioawoBhUBBBBRxFIRFnVQIKASKIaCIoxg66ppCQCFQEAFFHAVhUScVAgqBYggo4iiGjrqmEFAIFERAEUdBWNRJhYBCoBgCijiKoaOuKQQUAgURUMRREBZ1UiGgECiGgCKOYuioawoBhUBBBBRxFIRFnVQIKASKIaCIoxg66ppCQCFQEAFFHAVhUScVAgqBYggo4iiGjrqmEFAIFERAEUdBWNRJhYBCoBgCijiKoaOuKQQUAgURUMRREBZ1UiGgECiGgCKOYuioawoBhUBBBBRxFIRFnVQIKASKIaCIoxg66ppCQCFQEAFFHAVhUScVAgqBYgj8P7tjCsmOEdVsAAAAAElFTkSuQmCC;fontStyle=1;fontSize=25;fontFamily=Tahoma;fontColor=#4D4D4D;labelBorderColor=#757575;whiteSpace=wrap;imageBorder=#757575;" vertex="1" parent="1">
          <mxGeometry x="309.9999999999999" y="290" width="184.09" height="150" as="geometry"/>
        </mxCell>
        <mxCell id="uaUtL9xpVAdAa3rIVJZg-20" value="CRM system HCP" style="shape=image;verticalLabelPosition=bottom;labelBackgroundColor=#ffffff;verticalAlign=top;aspect=fixed;imageAspect=0;image=data:image/png,iVBORw0KGgoAAAANSUhEUgAAAJ0AAAAlCAYAAABYv+vOAAASYElEQVR4Ae2ciZMd1XXG+Su0IISxWAISNoGAbEDYBGNiYvACZRuT2HECsXDsVIhxHGKXK0nFdhUICWtFYCNp9kWzSKNltM4mJEUItKF9pJnRDlowEhptM9Ln+vV9t/v28t7rN/MmdhG6qqfv6+577jnnnvvdc869PVep+etS1XBpzrDgrB0hbZsme/T19Wnfvv3av7+r4LO7u0c9PT26cuWKJSe9M0uiDdvm68OkuhHSpheDdz4ufWQ1cJVObpOqI0ZXOlyq/DPp4gee4P39l1VSUqY5c0o0Y8YrBZ0lJeVavnxloMBLZ6Sqm6Uyp03K3Lt4Onjv49JHVgNXeZItfjRseBZ5Nk/xBT906LCmTp2pSZOm6MUXJ6c6p0yZqmnTZqi3t9enoy2/MahGGyCd39ZLwTsflz7SGjBGd6RNqnamO4zBQ59bpItnfAVUVdV4KJfG6F544SXNmvWa2to6/Pq69KFUdYtUHkG5ihulC78P3vu49JHWgDE6RGx6OBnttk33FXDw4CFNm5YO7QzKzVRv7zm/vqCF7xZFubd/HbyTttR/zkz/fWclOf5i2vrFeu/yRcMHrsHlS8Wi+qdN50rfoPgLjO7QKqkmgnYgUtU46RIda47y8ipNnz4r5/SajHJnpaqxYZTDd6wYI507Yclnv57ulHb9Vmp/Wlp4v1T9KaniJkOz4R5p1RPSlhek429mp1GMJ+dPSt0N0vrnpCUPS/NvN3zgA9fdKTV/RXrzZ9Lh5SG9JTZ9pV9648dS6xPS8m+Zs+VbUsc/F3cg7W+Q1jht0Fbr49Lh1kS2Qjd7j0pdtUbe5q9KjROk+XdKDfdKSx+V1j0rdZZLH/aEqnk/0FXHD6WOiVLbRGnNRGn9fygwOt5q+qtktNs+2yfY03Mgr9GBclOn4ss5KEfECspFI9YN/+nTTiww9bc8KZWOlOaPMAOjYriZ/jFaTgYHwRD0ebbkQamzQrp8OZHkgG6e3i9t+Hep5mYTeRN9VybwQSbA43O4VH+7GQjnT2VvEvRfOtLwjww1w6UFI6WuhdnrFPKk/4JU/WmpcUTQRsMIqexaCaPIdhx/yxhJ5RgjLzIhG/pF31z5jR54Vj5aav2OdLQ9oHim2+ioPtNvXrtjIkZ3cHky2sF0/3mfWFlZRVbDsyjX2uo03tcrVd8aQblhUvknpN5jPt1Q4exRqeNpIxgIPM9J6VjDTbrOHWYExQCXPiS9VwTk2zpFqrrOGDVGntRu0j06B4XXf1rqrA6J5/9geq79C9OJlgad2fA5yU0z+RUKLOx8PTzYaQPdOEASosgAAb3gHWMqSal3+gcDhPf2p6Tedw3Sl4wKaJQOk2pujxgdrS940FS0CrBM7vydz1tXV5emT38lcYqdPNminBOxbn81LLiNWNf/zKcZKhxZYzoK5WBELi+UuYeQKIQz6R3eAzkqRko7fhsin/oH0/6Kx43hYGzWF3X5cflIGhjUsR247jnpSgL67poX1g/06cDuQaIdKFfz52GDhhdApM+ZhaxCjm+SFn7GyIssSfJa3WfTOffpt9rbpD3lUvmNKYyuZ2kc7YDSmtul/ouWPZWWlmvatLBvl4hyICRCIqztLAylbLT04WGfnl/oXiJVjjJoFRXadh7T2ryrpdJPSiWjzVRrR5mrDOpjLCih0MQzSLvw3rgxWJq0Z/ObpddJpZ8wAwFU5kRGl3/4YnpZ/R3pcsQR99DujrBxeGh33+B8u6wo96qvbr9wuEOqvs7I5PJNn5HJsPIi15zhRj549KZWp295n/r0Fbqnn2y/Z0U6uGi8PxntdpX4PHZ27oulT0A5ottQXg6UodNtwzDE7zU/9mn5hWPrjcHBsBWcqxV6wT3Spl9L+Hn4C+dPSL1HpBNvSztfk5Z9NfA1bH3aZdTS5o4Arf02kwpExAQrKNTS4Qod7lXdJK19VupZJH2wVzr3nnTuXen9HdK+Wqn9H42PQ0dZue0Vw2t7Jt7qrrlhPfE+9bsWxN9Nc8dDOYIcxyDQKwEY7o57nHzHuA8MZldeq/e6O6T/fV7qaZJObJE+6JROvSMdbJY2/pfUeI/xRd1+g38XAPid0+i6m4zAVlFcYb72zlBaYO7cEs/IyNsloxzwfltYcEZK+SjpdLcrtnFqa28NIxwKADVqb5b2lEggQr7jaIe05CFjHK7QCIxSTmzKR0FqedpMMW4HUBcdvPnz7H6oS5lom6gtCfXw87a/5r4tYSS1CWhXP0C0S4tyZCbqx4cRDrlB8eobpV2vpYjC+6T9NVLDHXG7cW0op9GR98KRBT7dSozyvVW+svbu7dSMGbM9327y5N/EUW7XnPDoRRhotP/Ip+EXWifGO5qRvuSL0umEcNyvmFDov2RCfNqyhmcViVzR6c0l0b0obLDU8xBijESgVeixe54xVtcnpFxxrXTmQJhakqGgA0CgkKPvfHywezKAchFfbt3zWfT+BYmIvZDj3Elp9beN/ly7seXcRicD63SarcAV+K37rJRJDhJcsR5LemTWrFfV0tIWsIj/Fx25TE9lIw08B29KOLCgSNRAmu4f3Hrs+p/GFQDK7KlwWw/KIOn88UZOKzcGUjVaOrYueK/QUmetGcDID10Mmem+7Z/ClLwpMTIzMPAbiWQTApBw7eBX1KWhTdp755XgHUq4BmVOZsAOTPQ+0BUi0lQrnzCIBz2rR655jU6Xpfp7wx1ARQxx33yf+d2792j27N95hnf2bJBEFv4fgtpGYYC6rd/36/qF1X9vnlkmvY4eE5+C/QoFFBZnVlosbQZO/T0Sidno0dUYN1KQZldp9M3Cf5OPRH7LB25G6Sjpw0NhWmQJXL1Znaf17bJGrAm+3Bv/atqyPPl67wrzVOgvlk7xA11/Mp3RyRhXEtphjJmRx5almTNnh3eSJOWePJQbIZ3aGRaBfE7p6CCstkreGmytClco8Nep7VL5SBME2AGA4b27Pk5o2TfCkTt+zeJH4u8N5I5FfqY5ywfGtXVqmFpStF9IJJtktLQTzcuxbEc6A0Oz/NDXxdI7bgr+rKXNNT/SEa33S3V3J6OdM/KIZE+dcrLuu8uSEWPV98IK5hfRHmhimSNiqvlUbr8rTiX3ndVPhRVAJ2z8n3AdImHSHl5KIBN50dnkDIt1kI9zZcWol3wlTp0gI4p21Mu3SoHBJublEny5gyuClA+6R+9sxnCWPOOMFXinfkIY7VIZHW2QSY+inTfyPpecQ2LRe/5d4cbw1RjhJ7fGuV77kzB9dru0PJVJhxyVWPsb1HlMwpm3OTUUDP9Lvxbm5UhrOHCiEyrHGWd/UO1n+Cfvd/xtqfSaAHVBmfKb/H2LPkM4+6Q2XFQEnRvu82cY/123kNaXo85bvwzrHaPu+BeX2uDLmyeF20htdAQNUeeajoPJnsVxxohuo0bKuyuejL/LHTofI7BIh4GWXiuVFPEkeWvpc6UzSXa7KRg6LMr3vFFSGQnoIvECrTkOqiMryEp+L3owHUbRDv72N0bfNL9z+XKXInk5aqz6bhj96aPOmmTaA717pD08S6Y2Ohok2ot2CIbS+ECYHVIRdZ8JN4RicShZQE46iMyiDqftDDqkGKeNGq3hgTBl10sXHJcgOvLtu8Vo36Vh6XJFThCM3GL0SFqv9oKgCclol82Xi0astp1FDweDHT4YiMVYp7b0uZJEnsuqRCaKLcjokgIDlIaj6Oau9iZMxbyDg57tIJKMGp3bMUNRxghAP1YS7LHhF/GBNRRtR2kyeNlWlnRsmxlHOxDJ8ae9all9uVvjqw+2nYVfCMABo8MwWGUo5kFkPu+awE8uyOhgZHckBYLy8JOaHsqweSUedCAMSs2V42r8fNjoCN+9SDezbQjfqtgniDH3arMTwiqZjaRRNIf/Yrft0gNxmUIPOd+QWH644tRH9yAm+XY7EgIP6LKdLNux6Etho4Ov9zZme3tg90kuz3XygAUbnbdME1nLw/BAshObjeKincazxQnRmSvCssfDTr4H9TdIlWOH7qwZa7YTEbHag9UAl3/4KLnGOPRDyUvD2OTp1fIV3W2NzuGTnCKHh3KRhDJTZVUOlKPeyr8x66UWeemr/fWGZrH+HltrAAVd0k7BRgcj0WUtCDHyFn9ZAq6j0yRIiDOZ61j/fLizEZ61T4ycbyqG6oxucz/SEYx8T0FEr2NNFD1UPFi6uZbleCf6XYmHdhOMVqMbBZgp8qEcNd/MJKut0WHIa/8tV08V/ozPWN2BPCCj8xKXt4VDeYQEmpkqKFshvKn34fyMMmLxU2w9GGPrdzHzRfm5MMs+ZWPMaLS8IIPrs6ahMxTvbI18QQd/GB4uD4GYm1qhzIbZfPoj88AAt7LSh95m3RSbKtLKyN5M+LRtDMjoaCwpcWmJulcEyuaruEwTQXr70RyDZXS8NYCPdVy6Aymv/NtwR+CPLnxwIJSKW4dvhRmIGIbVMVOWPd3B7qFcZI01iZsL75t0EIZgaaJ3kLMYB99foD87tdLGgI0uKXFpmbZXGsPK0x5tPzAwbJVHdFk5Wjq5PS2F4rx3oDmMushDR2ydURz6g6GyZYqZNq2O4M2mIqzeLcpF98tla5edPchnaXpod7PU60T12ermus8CQWPCuv2AjY7G7Ec2llkrtL0yXR5Ymout8LNTO8wotkqELobbMD7d3rUwteDXu+vMhyL4a/YEfTP/uSB4MVNi2Y/9a0yrVhYGQAWJ8GWx11Pf4L8oHGsPeICXYy3SmQK2bF06HUc7yyNXdOah3MzUbHkrRBiqq3dmqOZHQ7vE0xPMvNn+TNiYLZ+DMjr8hepxYV/CEvaM5fOFf1Tyxk/i+7pQwMLPFp4/Iq/Izl5GMT4FAQ4nX1nNv0Niusp2HG4xUZ2dFuhMEKDiaqkz2EuYrXrs/q7XjdFiyJYPBiXlpJWIGAHnxqZJcbSzercol8+Xc8h5RbZXsd3LAghX9Ma3IWk+DXXpEfyt+aGpb/lyr4MyOhpiNwIjyzJricNwNHnpMpatTJRWf5dBGUuTK0bMhsdtL6fb43V4lbT4ASO4NRx4w3DoGNY/8x1vPGe+Z3D5IFDCcNY8Y/ah5aOBQbX9g/ERQUurH3hiyzrLboUe7HGrvCns21m6aSLWpPb4+qtmnBmcrrwMDHYCdzUk1YrfO9IS6N3yFL0O2ugwksrIP8IBVZxtT3HO8txhr371J+MKoNMwZpTDF1V8POzt1d8nvb9TOrxa2jJJWvRFUxc+XAXa+jvn5WEg8xikXPpIfFBhMHRG2Shp9XfNRoL3Nhgj/P1eibwU32qs+rZUwjZ7Jzq0HYDBrXk2HR9Jb216Ic4XgynyUXxS1az3jpJPG2kGpas3Dz2HS4sekLa+bJL8Zw+ZTwvOHjHLZjtekZofievdyuteB210SLDl5bACMIzBLhqzlah6TBjxLOOgFR3JtAvykO3GEDAy2ubqohsKpA7PCt0nBqos+ZKZemz7XKGJDwTqwQsdY59T5h7PeMftQH5jcO0Ts/Z9qgfwVXFDGO0K9eWSGmLbFL4r077l28rFPXSIfN4miDFmecv2B7NRVO/0D/XoI0unKEaHQ25Dea/jx/tb2ZPkSn3v+BZp4d2mw93Os8xzRUiecbr33TIGUHVt9u3p+RjCP2p7ygwsFB7tjCgfruJdPugUDHHjf+drMd3zt34VDHb4Ii+XNmLN1QJrwHW3GANLkoV7zBr2THoHudF75fVmgyobRW0fFcXoEGDzS0YBjAQ+ri3Wwc7WDT+VyjP/tgBB3Y7MVkZAi0IrHitO2mX3XGn+uMD4srXt3qdDGIigUNMEiU2TxTrwwyquN2gP/W1FTOnwsRD/HoLZBD1mMyxXVsq8x+DCDlZ8zbgcpNdSfeFfqGKAez6cxqdwPsYulEzW99n4ufZHUtUNZgQhlBdcZAIDRjqdy+jiWclwaeVj0oFFWUkO6AGR3NYXpYa7AuXSKUwh8GD5oLMwBO4v/ktp9+tS34UBNZmz0sZfSk0jjd69Jb2cbxf+8NAKaeXjJqGLPMiFTEypTJ12+kQHPEf+5r+Wupz1W75NLscfzyB9HfVvSPi3EoWzJ/EZG4g3lAfbkHoazT+xWfZ1qfE+89+D6u82/z1pzQ9MB3+wZyi5MGvCR1ulTb+SVj0pLeCj7DuluvFS04NS6/dMpH0iy/7BYnHHP7+pHGH86mLRTKJDFL5jhtTyd0bnpMrsf8siAYwOtk2RTm6O16bPln9TWv6Y1PyYxMzT+v0iGR35mf8v/5strto/3p3d5eE9gf8XnNDP/G9Ad9d1ge3+AY6UMN1FNUlSAAAAAElFTkSuQmCC;fontStyle=1;fontSize=25;fontFamily=Tahoma;fontColor=#4D4D4D;imageBorder=#757575;labelBorderColor=#757575;" parent="1" vertex="1">
          <mxGeometry x="32.71000000000002" y="355" width="254.59" height="60" as="geometry"/>
        </mxCell>
        <mxCell id="HDc9Nho8ilmy6_pK3tJT-18" style="edgeStyle=orthogonalEdgeStyle;curved=1;comic=1;orthogonalLoop=1;jettySize=auto;html=1;shadow=0;dashed=1;dashPattern=1 2;strokeColor=#FF804A;strokeWidth=6;fontFamily=Tahoma;fontSize=25;fontColor=#4D4D4D;" edge="1" parent="1" source="HDc9Nho8ilmy6_pK3tJT-17" target="HDc9Nho8ilmy6_pK3tJT-13">
          <mxGeometry relative="1" as="geometry"/>
        </mxCell>
        <mxCell id="HDc9Nho8ilmy6_pK3tJT-17" value="" style="shape=image;verticalLabelPosition=bottom;labelBackgroundColor=#ffffff;verticalAlign=top;aspect=fixed;imageAspect=0;image=data:image/png,iVBORw0KGgoAAAANSUhEUgAAAJMAAACPCAYAAAD+8en1AAAdvklEQVR4Ae1diXdbxbnPX9LYCYQEAiHQAoWyFEqBhgaSFkq6QNvHK+81bekKLYW+btCWV2jfYWnpobR9JYktL/KSOLGdhITEtvZd8r7Eq7wv8r793vmNfFNFurIl617da7875+hIurqaO/N9v5n55ttmC4xiUEAhCmxRqB6jGoMCMMBkgEAxChhgUoyURkUGmAwMKEYBA0yKkdKoyACTgQHFKGCASTFSGhUZYDIwoBgFDDApRkqjIgNMBgYUo4CmYJqa60XXcDVaB/IQ7H4bro6XYWl5DrbWF+HtfB2NfX9Dx6AZQxEXlpbnFOv0RqpocXkOgxNOtA+a0dD7Hrydv4et7QXUNn0fzvZfItD1JloH8wQdJ2d7NO1a1sE0MdOBxvDfcCZwCKXuO1DgzEFJIBdmXy6Kvbko9qy8vNFrpYFc5FmuRlXwYVhbn0ff2AUsLE5pSjS1H76wOI3e0QuwtjyHyuA+HKu7KoFGRaTTCo1IP9Kx1HUHTge/gKbweyCds12yBqbhSR8sLT9GkeMGFHlyYPZGCXC0biuO1K7+yrPlREHmzYXJvhXVoUfR3H8UC4sz2aaXqs9jf1oGjqE6dAD59q0CLAQN+78WjUhHAop05X8KHTfA0vI8hiY8qrY5tnLVwTQ1G4aj7Zcw2XaJ0ZVvz0EqAEpGvKOWrVFiuXNwOvgoekfPxfZnw37uHT2P06EDKHTnCBAds6w+wJLRh9dJX9KZs3q+9RrY236Gydk+1WmjKpjCYxZU+D4V7ZR97dG1GoHifyOoOArz7dvg7vwZ5hcjqhNLjQfMLUbguvRzmBzbxVLPfsX3NZPvBFVZMBcnvPciPG5VowuX61QNTPU976LQuRPFXmVBFE9YLgHl9dtQHTyI6bnw5Y5thA8z8/2oDn5etF8sZTXKAimWVpSvyI/63ndVI40qYPJc+j0KXTkwOdQFUiyxSoO5OOl7ABPT7aoRS8mKJ6Y7cMr/INju2H6o+Zn8IF/IHzWK4mAK9bwjGpyfgtCoNOEoI5z0P4Cp2V41aKVYnVNzfTjpe0gs/0rTYK36yBcCKtD9J8X6I1WkKJg6R06hwLkdJoXlo7UIFPs7AVXlfwKLS/rc6bFd1VSLZHFGiqUPP5M/BY7t6ByqkHCgyLtiYIrMdKDYeZPYjRxRce2PJ0z8d+5kSvy5cLX/RhECKV2Jq+N3on2Z7Gjj+5z295qtKHTnothxEyZmlBMLFAHTMpZxvuEZTaZtOUJyB5Nn24b+MXV3L+kCbXDCgXzbVWLbLtfubF/jLH6u/hsg/5QoioCpa6QaJmcO8qzZE7jXIjw16tW+xwEsKUGnjOsgw7j8lviyJ3CvRaNj1q0ocOWgc7gy4/6xgozBRJtZdeBxMXWv1fhs/k6ln9mzHd0j1YoQKtNKukfOwuy9CpkoI9WgH8FdHXgMi0uzmXYxczANjNuEGl9TGUDOHFOzVSgBaQNcXtZ2dlpaXsQH9U9GB5yG8qQcGMk3mmEGJjIXCTKemWqavivU/3IN1foaFYHH6rZjfLo141GXSQV8/tG6bSnZ2LSgGRWaNc3PZtJF8d+MwLSwNIUSx90ocutHVopnBmUnum1oWXxdr4tZ8kgKRu349mfjO/lX4rgrY5NURmDqGq6EybFNd3JALAO4Y7nQ9C0tsYSLjd/WVK8USw+5z5TjCpzbQH5mUjICU0v4mDAiyjVQL9e4yzQ7Po5JjbTiM/MDKHPfLeQSvdBErh00BpOfmZSMwOTu+I3udnHxhDpmyQGVqMMRfyZ0Wvd/R6eCOFqXqyu1STyN+J2KXvelzBS96wYTd0hnQ0/qWl4ikTiF80XnPC3KcMQL6nP0phKIBxTlJvITGSgw1w0m6iVO+fYLpVd8w/T0nf5B1IgPTbi1wBKGIh4hfBdk0YNiPfSn8vKkd19GNs11g2lhaRonvA/oXhagHqXIm4v+dTqGzS9OCD+pyGwnGAAxtzCWFig56Dydr6LIdY2uZ3Hqmo6779cGTEvLC6j0HxTuDOsZCdn6j/A1t12PsenmNUFAi/7IVAOa+v4u9C6ng4dwwvtplDrvhNlxG0qcd6Dccx+q/Y/jYuNhhHrexlDEmxLAwmMXUeG7Vzf2y3j60y2l0n8AS8vza9Ip2Q3rnploa7rYdFg4+sc3TC/fqWOqDDy4plP95GwXfF1/EN6a79fmiKWbijz+n7IElwCOXL7oo83rBCkZQFmowns/XJdexshUKBmdxXU+50zw80LY1ZvFgFFB5GcmZd1g4kPpYMUwG72AJ7YdZHhV4AAmZ7uT0icycwne7pdhsu6OAseTK4TlVBnN+wgmgor+SSb7Tljavo+RyWDSZ84tTODDxn8XdEv1ObH9Uusz9XHBnj8nbXcqP2QEppb+/CiYdKbZLeaM5N+XFEjLy8uo730PZsctKK9nUEJmETMSg+nFSKaYPdfD2/kaGP8mVyhHnW/8mn4GIn3AArlo7c+Xa27K1zIC0/CkB0WO63Xjn0N9EmPySpy3YmxKXkaanR9GTfN3RKBDoUudWVUoSn25OFv/BEanGmWZMbcwjqrAQV3YNTmYCh27MRTJbMebEZhIpQr3Pl0QhLMD3VGLnLtENKwcB8enW1Dp2y+WJLX1PlzCqAg87r8dDPmSK2NTTSi03yCWyfc19CagfHjC/Rm5JqZ1LWMw+bveEPKGNNVr9l7HCFhGXrwmSwBa7hnDRwZn0+BKRhU7r0f/uE22Xe2DZSj27hCymla0o3wZ7H5Dtn3pXMwYTPT9LrDt0nypo5xU4dkvm+BiZn4IlYHPRoEk5/uk4jXOOFFA7cVwRF4LX9v03aj8pMHsxCWO0dbkY6YlYzCxAdbWF1AWUkf+SGW00lxhsueib+xiAj2oOzpb/1VNrfYEFEd/ufs+zMwPJrSRMXTFzhuhhZacfLO2/CShTeu5oAiYIrMdYu3XghgUurl0nQs9Ldv/QNfbKA9tyyi/QSqATuUe7vTqWn4s204uz5xds6kuEHoz+x7FMqYoAiZSJ9DzZzH6skkMMvCYNQdmzw70j9clMGl0qgEm225NRrwcuBhwwVfP6NmEtjK03WS5AflZsuGJXA3+zHVLsR1RDExLS3PC6szRJ0dIta5RHqn2Pxbbp8ufaxqf1Z35gstdpe+ArA7K1vZi1uQ68uls6CksKRBIIBFcMTCxQmqby1x3wswdk4pCrVT30dqoXqltoEjqz+X3kYgPhQ7tNwZSW6X3Y3U5MDm3yno19o/VocCxA3k29RJYsB0EdJnrbkzOJLcOXCZkGh8UBROfSye0EtdtWQEUiW6yXYvxmcSAAWf7r3U3K0mA4mz6QeipBDZxs0DLvZo+9Rzo5M9wJJDw/EwvKA6mKKB8qPB/SvUdFE0A5+r/DctxgZYLi5ModX1Ct+4xzEZS5NiDsemmBP4x25sAkwomKtoPyZehCW/Cc5W4oAqY2LDITJcwJ0i2L2lUKvlOv2Vb20sJdAiP1wpXWaoMlHyeknWRsU3hfya0/dLQceGloORGhrokqgDOhp4QfEl4qEIXVAMT28ccje7OV1Do2CkES8XCx6nt9uQKoncMlSeQwtv1utCGK8kQJYHEuqjOcLT/PKHt9Dg4Vhf1Xsj0maQ3n1No3wlP528UidpNaHDMBVXBJD2HqYfPNX4N+baojxBtaOtJt8egyiL3ShZe151o6P2HrMZbhBZleVeZLuOp4znhSfRsnJrrQb5lt4j6YX/THRCkK+lLIZv0Pt/4dQyMOyVWqPqeFTBJPaC3YV3rd1Bg23PZB4jyAV03aHhNeDGxwkpqZ8pHJtsOVAUeRUPvXzE9NyBVe8U7PUBPB76gG+NzMpBx6Smw7sbswnBC+1sHilAVfETs7ITA7I9mJs5bCUyIpxPpR28JLvv0rSJ9SWfSO5slq2CSOkZf6ubwEdjbXkCV/yBM1uvECOQo5MgS7ysCaLn7XtS1PCuSzA9GnFheXpSqkX2fWxzHSd8+qOVekgwc6V4XYLJdD8bVyRXmJxiKOOHv+h/UNB8WppijtVFNfjyd6NxX5TsIe/sLgq6krxZFEzDFd3R2fgSR2XbhoTgc8WBkKoCJmTYROLm4lN7JBLR9lbk/qdudnAQ6YWC17k45qSt9s5lecXymWahfGPUyOhVCZKYdcwuj8STV5LtqYFpeXhBZybj9pd/O6FQThie9GJhwiOMbKEcNTriEQz6FThKGr5HJkPCllr4PT/qF01b0fv4n+uLvE9NtCWqB2YUhcDaj37bEOD2+S2CaksnPPTbdgqHJf9GJTmukg0Qn+pqTThKNeJ2BDaSnRB/SmfQm3Ul/8oFZ4sgXtYqCYFrGzEIY9T1/hbvz1zgT/CLyLDuuELTFWp9k3Y+XA9b6ThuWyXI95hZHrqANfaxP+h4Wafb0CCKpTdIyNx23zNEsVe2PBh2sRYNVf48L/KT4QH6QL57OX6O+5z3Br0yCLq8gvBLJvqbn+tAcfh9nQodgdkUFa+blppaXW9NVOywndKd4jYK5yboL3P3EFspUDFGiBV5inB7fJTDNLlw5GCiQ01Wl2KM87cgP8oX8oaBOfp0JHkJT+H2Qj5mWdc9MPOiFuovj3juE2YLndZBA6W5l18to7mDyLDsxJuNjXdP8XdW17+ttt/Q/LsMVnocSdD8Mhyq03aR6DnXyifwi32j0JR89na9k5I6SNpjm5iMI9b6FEvfNwv7GGUIiUDbfOeNRj9I2aE4YUP7uN8RWOVvAXk+/qepwtv8qoe0jkz7kWZVRWqbTLvKRuinyNdj7NuYW0j8+JC0w0WeoKrhPPDSbpw8kIwpNEjxkJr4MTNijmdr0ak6p2wqzPwfN4aPxTUf7gFksQVoNBPKVoCKfwzI+YgkNjrmQEpgoFPq73xJKNK65WnU0HlQ0FZyv/zqWcaXuaWFpBmXc0Wk0a8a3M/67MPTa98r6XVtafqiq10B8W+S+k7+MWDbZr4av602Q/6mUNcHE05KoNCOI9DAbxXaeAqXJfg0mZloS+srUf5y5Yu/Xy2fS8nz9MwltZjIQCt9quqCkQwPym2292PRNzKew7K0KJkZ1nA48IQQ0yijpNCQb93IEcdfDyOL4Qt1KgW237gYAk4/xYMK+0Q/jmyzi/QqdO0CzSTbol8ozyHeuAKeDT4ABrKuVpGDijMTkT5T09bKsyXWeI+eU76BsH60tLwhCyP1Pq2u0tZ0OfFE220hd8/O6ay/pRP5H3XyfXDWJqiyYGIt/ofE7KPHrI6pjNcZzFHM0y+VfEue52PcKgXa1OrL1G7fi+bbtsm3lYc35Fh2F2se5XRNQnKGIC+JDrsiCyd/5hlgrRT7IuEqzRfiUn7MS6vRBvXyoE3dMnL20XqYlZtCdWK64On4rdlHZjDZOmcYrGCAeSMtA55tyXUg8oSA8VgOTfbvmEbrpdJQelTxetW+0JqGT1IhfaDgssp2kU6eS9zIIk6OaHhJyx7/SWGt27hXnzyj5XDXq4uxqsl8F4iS+XDEzsaPHPQ+KbaEaDVGzTo6Yk56HsbicuI0V8l+9Nme8iWhef/Q4rpHJ+nj6i+8XGg/rJ71OCisRaX3C8yCYojG2XAGmQPcbYjutZ4E7KSCFbiQHng75xBXTc4MiM1y2NxSckY57b8VwRD4BWPtAKYq9V2uauCIpTZMBiwJ5MBeBriuTXVwGEw19+dbrdLeVTqejnIKL3TvBY93lCt09aDWnR6La22/KaCT4qeD9SDYj0a5YaN8j3GU4g6XTV63vpQ6KTnk8IlYql8HkvvSqEAA35KwkjSAm+3LnoNR1W9JkX/OLk3B2/Jc4FIdGTjUEXlrkmfvyQtMziCRJg8hkX5W+R4RAqzUw1vN84oRmF3fH7yQsRQXwmbkBFNtv0b1DWaqdFvKT/wGMr5Jht32wFMe99wqCkPmZDiL+n6OVy6jZdYtIc0jXW7lCZfCZ+i/pUqeUKo15H81VRbaPYnq+X3RTzEwdgyViJGVK0HQaosq9K24VXF7M3hzw+LJkDGXvZxdG4e9+E+Weu4QmnZZ8mmhSjZzhfVzOhLVdhBTdCM+ll8HEq8nLMjydvxO6L7aTDNmodGe7OQMTPywCTB+Evrphp1sJlFzeOCMV2/fC1vZTITdxKUnl/Nm5xTE0hf+BmpZncKw2qhZhXQQXBWhqrfldAg2v8zNDivj8c41fRrDnLZF0PjmI/vULd0FDERdcHa+g3H23cJdh/RsRVGw38SPARM++YsdtutESS+BI9V1aWir896Gh7y+gJjmTQj/p8HgN6lp+hAtNT+N8w9M4E/wKqvyfw5ngl8T3D5uexoXGb6FzuEIcjLja7LdWW7jkdQwxtGm/kPd4qrcaclyq9Ez3PooIxfZbRcjWlvC4RRgetdYQp9sJLkecHYocN6Mh/C5m1jBCrsVUrX9nOmce0XXcc5/oF3em6dJEi/uJG7a1f9yCLU3hIxtKYUaCcZ0mmOpafijrE5QMGAyD4ulOrf0m0Hzh7PgF7G0vwdr6E/lXS/Q6l03eZ2v9afS+lety/7O3vyTCvmk2oW88o0WYyGuteD+pzQz7cne8ApP1Gl2f/hALXC77xNEWS8tzIuQ69ke9fqZMwdmozHs7mOAhlcIDqev7/oSzoa+g0HYj8q07xUii8MtkDtQ58bOSL1FvaCUK17IDRY4bURX4HAI9r6Nv7BxSiQVkuufj7k8LmU3vqwZD9i0tP8KWk97Pbgg7nEg36MvFucYnRfzXakCanutHQ++7OOV9BPnWq8V2nQI65SspFD0bA0aEF9nov5QT3b0FaHD+CE54H4Sv67U1nfcZXGlt+4EwbzHvQDbavJ5nsH+nfJ/FFrPjVpEXcj2VZOs/UsIKZvWl0jFZ4VafJqHj3uhWn5lS9MYEDgoqS+kWW+zcC3v7zzA505msS+K659KrMDmisgkTwmaL7qk+h94EZuet2GKyXJeyXiXVypW8LwqkHPg6/7AqwTuGSlHh/6RYBrnDULINatXFmZLLbInzY+IQnKWl5MdzNfS9J2Y4PQrmFD+Ioy1HavVLeLqWEBieS/+dFEhTc/2oaf2mEMq5lG1EXQ0Vl9SccwlnaHiy0tj3dxQ4mSpHjzzLIZj0N22yTZKwbUmSN5sE7x+z4rjnXjG69ZwlLhUaS/0t9dyM9oGoRlkOVDzGi+lz1DZUp9Lm+Ht0Cybu2s6GvoyFpSk5mqJj8ARK3HtRovMw8HiCr/WdSstC5zbU9/5Vtt+8aG39qS59zvQHJmH5z0Wp+/Yr3BtiKdvaXyhi+IS2WKcz61qgWe13ykUU0nnIkVyhs99J3/6ooVhHArnuwMTpu8C5HZ3Dp+ToiO6RahErp/eUOauBJZXfBKDcOWjo/ZssHUYnG2B27dWV/5nuwETlYV3L87IEZI4hs3uvkBn0uEVOBSQp31MTzU1pcuSiY1BeQRvqfkfsXvWy6dAVmGgmKfPIL29Ts2GUuu4SxNtoXokpA0hmyeZu1uy6STZn+NLyHKr8B0Rm4UyeodR/dQMmji66MzT0vic7KzFAkbOWUh3fSPXQDabaf0g2cLN75Azy7dqHcpGeugETZaBSx11gvH186R4+jXzbVl1uh7MByn8NtET5SSQ3C3xZF8nNdAMmqgLqe96Nx5GIM6vwfmbDO+9lCjoOtiL7R0WS1HgidY9wsEUzzWX6nEz+rwswUQNsdt4im3mW7iIbVbOdCWPk/ktXD7rOxBemvGEWOq3TVesCTNToWpp/FE8jcVzGCfdD0d2bjHAqR/DNfI2DrthxM6ZkvEmD3X9GiU9bM4vmYKI8QCL1ycS6dQ1Xo9C1TfM8AXoCKDcptNHFF6ZxLrBep6k7keZgEkZO152ymfotzT/c8OFASgORYDrp3R+PJfG90ndQU+9MzcFEOeBi07cTiMPEUgXWGzUdaUoDQYn6hEuOc5fwuY4nmrPj5WjWORXOqkul7ZqCiUschetAd2KKlt6x8zhmUT+MOxUi6eqemq043rANjX3/G48lkdCUZhit3Hw1BZMIeKzdhr6xCwmEcbb/0ljikmw6mHrxYuO3EoIUmNPgaN02zZJgaAomjqJ8y7Wy3gFMM0MvRF3NCkmYm+020kOzyHYz5heuTGnDMP9yHkKkkaeppmAiUUqcn0jwWeLBx9WBxzQVJrMNkHSeR7oVWPckgCmaPvI/NZvRNQUTjZinfI8khP7wtKYC6w2G8J1kJqQQnm/ZhXEZF19r64uazejagsmdg9OBQwlr/3DEh6N1H8FRi7ZKuHRmi2zeK8ma4fFEWZOBoloZxLfQ7UOcmavBdpLBex/UM+nBldlbhyZcwumLu71sMmmjPIv+7ozJY0ROfKFLbzbBJCmduSnYcjr4BRQ59ogtOiMkqEQUjc0CIxnX9mFDYqZ+HrxHucAAk/xgkuL7GX4eX7IFJraBrsVUopqdH0eg681oSh2uvU19/4St7ccoc92NPOv2yxGoajJVgKnRAFO6M6JWYIrqBaNphuhDVRV8FI3hv1820F9OQyghnDmNRib94qDhC03fQLHjFoFAGmPJfKJRqShZA0zyM89a4MommDiZcPbhMsYN00n/p0UCj8GIVRjiJdzwPQFMsT/yc2SmU+Qr8nX9EZW+Azjp+4w4nrM8FD30jg/gAy/706SxPBpg0g+YOOtQsCcvKerQu5MJOArse1Dp3w/Ppd8iPFYHZmlJVtYEk9wfmVmkZeAogj1vo8K7DwW2vci37hKCPBtBAZDvbBRnMcbXU2Bkg4UctAI4A0xZBNMK7UXqROtWwRdp1qFymM6J1J4zU0yp604BHvJ4dKpBDgKy19YFptiaeEQ647jGp5tEsip3x6twtP8KFxr/QwQAmCzXih1Zni2aQJQzmVgyvbmobN0uUt3E1sfPhgC+OshWW+bqWp5DVft2AQ4CRCTI8FI8yRGaca4g79fy8OdrRVLcs6Evwdn2C/BINaa85oHZC4vyga/xfIr/njGY4iuM/c4UezwMZ3SqUdjfWgfyweWSibNqm76Hc/VPwt/1x9i/iM8GmNYPJtL3bPNDqA48jrPBp3Ch8ZsiKZqt9UVhUKeLL/nBM5aZFz3VJGQJTJK5oCqYZJ6X0iUDTOsHE8Pp5xeSpx1KiQHrvMkAUxKTxVo7Ki1/X22ZWycOFPmbASYDTIoAiZUYYDLAZIBJy2VG62cby1wa+DcE8PUL4GmQWfFbjWXOWOYUA5UBJgNMBpi0llu0fL4hM6WBf0NmMmSmNOCy+q0GmAwwrY6QNH41wGSAKQ24rH6rASYDTKsjJI1fDTCtDSYGWsplQ0mDzIrfqkvVQP+4FRXN24S7qAjrsaxOXC13Vtl+NndyDPygY1v7gFlxQGRSoS7BxCO+6Od0JnQIeZarhAcnvTfpWBfrqZltRmr5PIKHGWPoyH++6Su4NHQCS0sLmfBe8f/qEkxSL+nFOTXXg7b+fNQ0HxbnpNCxnV6DDGwguDb6mSnJAEr3WpHHUoQT5aDE/THh5DY06cKizkAk8UvXYJIaKb3Pzg+hf6IWoe4/oSrwGMrd94j0MZz2GUFBn3MppYyYwTaQdltSRBJAkv98mesOnA09ic7h42scby9RSNv3DQWmeFIxCwiPv6AgerHxMEpd98Bk2y0ARv9ngowzWCzAtAYZn88XZ1QuXWwnwcNjPkzW63DCfT9cHS+jfbAMPFN4I5UNDaZ4QjOH+NRcNzqGyuG99HvUtXwPlf4DKLLfLKJjyDwujYyKIROlpZLXhaCfRphWsuVJui7AsnKcKp8jOfZz5uHzjtTmwuy4HecanhIHPLcPmjE5250QixbfRz1/31RgkiM0AUYmDUW84pDoYPfbqG3+gUiYccr3MMpc96DQthdH67hURpcYEdXByA5fdPkUQYgiEDEKQIJDuhZ7Lz9zluE7Z59C2x6Uue8B85ifDj6GmqZnUd/zDnpGz4CJuabEqeJX5lmQ68NGubbpwbQaIyjgM4KGp09SHdE1cgptg0VoDh8RpymFet6Bt/M1MIudre0l8KT12ubvoa75B+K4eZ7QGeh+C6Gev4jz4ZrC/0BLfx46BsvRO3pRnHfC+heXZldrxqb57f81mDYNF3XSEQNMOmHEZmiGAabNwEWd9MEAk04YsRmaYYBpM3BRJ30wwKQTRmyGZhhg2gxc1EkfDDDphBGboRkGmDYDF3XSBwNMOmHEZmiGAabNwEWd9OH/ANAUD4wv+etuAAAAAElFTkSuQmCC;" vertex="1" parent="1">
          <mxGeometry x="328.55" y="70" width="147" height="143" as="geometry"/>
        </mxCell>
        <mxCell id="HDc9Nho8ilmy6_pK3tJT-19" value="" style="shape=image;verticalLabelPosition=bottom;labelBackgroundColor=#ffffff;verticalAlign=top;aspect=fixed;imageAspect=0;image=data:image/png,iVBORw0KGgoAAAANSUhEUgAAAJIAAACOCAYAAADab1FuAAAVu0lEQVR4Ae3dhdPcNhMG8PdvLjOmkDIzc5s2hZSZU0q5TSll5qYpg7/5eUb5rqp85/cs27rUmvH40F49+2i1Wq3ktWoqEwIZEFjLcI3pEhMC1USkiQRZEJiIlAXG6SITkSYOZEFgIlIWGKeLTESaOJAFgYlIWWCcLjIRaeJAFgQmImWBcbrIRKSJA1kQGI1If/75Z/XBBx9Ujz/+eHXfffdVt9xyS3XNNddUl156aXX11VfX733+xBNPVO+//371xx9/ZKnwKl1EndUdBrC4+eaba2wuvvji6sorr6zf33///TWGY2M0KJH++uuv6u233642b95cnXjiidVBBx1UHXzwwdUhhxxSv/b+wAMP3P3a57732QknnFAD984771Sus6eWv//+ezdG6qzusxh5Hw54zWIEU9iOgdEgRKL4559/vjr77LOrfffdtybKAQccUO23337V3nvvvfDwO78HnP+7juuxantKgdELL7xQ122fffbpjNFZZ51Vbdu2bbBG1zuRduzYUV100UXV/vvvX4MDpDbkafpNANn1zj///Oq9995beS7p4i+44IK6YYXG0lT/Np/PYnThhRfWFq5vkHojEhP92GOP1ZaEae5KoBhA1wvd3j333NM3Tr1dn++DPH1ixJrTBZ30VXoh0m+//VZde+21dV/OcsQkyPlet3fooYdWmzZtqn7//fe+cMp+XbLeeOONtY/TtotfFjc64FfRCd30UbIT6Zdffqm7sj5aWBOQrBOn87LLLlsJMiHRFVdcUcuc21LPw4hOuBk///xzdi5lJZLhKoCGJFEALnR17l+yEw4jQ/cxMXL/3OGUrES64447sjjUgRzrPQcykaPUUgJGfLItW7ZkhSgbkV5//fV61GF4vl4C5Px9CBW8/PLLWYHKcbHXXnut9lX69okW4UlHZHj11VdzVKu+RhYi6XOPP/74GqRFlRjie47lxo0be/EFlkUeRiHAOAQGi+4Bo+OOO6766aeflq3SP/6XhUj33ntv3ecvEn7I7/kgpg9KKQ8++GDtXA+JwaJ7wejuu+/OAlFnIn3//ffVMcccU8eLFgk+5PeGvIcddli1a9euLEB1uQhrdMQRR9RB2SExWHQv8aUNGzZU3333XZfq1f/tTKStW7cW19ICgJxKlmDs8uijjxbT7QdswlnY5Mknn+wMUWcinX766cVZowAS023Oqa8gXBv0xYzOPffc4rr+gBGrdOqpp7apytzfdCLSl19+WcQoJIASn4UDHJ9++ulcEPr80r3JMPZoNsYmvDd6Y7m/+OKLTjB0ItIjjzxSrMkGFAXylcyqj1VefPHFWgayBOWVdCaXEdzDDz/cCaJORLrrrruK9Y+CsoAkUW6scv311xfd2ODET6LLLmVpIsmfufzyy2uzGJRW4hmR5C+NVc4777ziiaRro8suCYNLE8nk7Mknn1ysox1IjUhnnHHGWDyqDEbIEOQp8czhPumkkzoFcJcm0o8//ljHIPpOE+kKPCWedtppoxHJiE08q1QfCb50eNRRR1U7d+5cGqelieSmRx99dOt02a6EWPb/QgBymddTJIAJGXz99dfVu+++W73xxhvV9u3bK9meRqq//vpr6wyDzz//vF7QoNWPPcfWhCG5RiOSORrmsGSLRDYKbDMNIPXEpOoDDzxQx300EiR0DUN3FgXgPjvyyCPr7pKD+tJLL7XqEmQo8kXI06TQsT5XR42tS57S0hYJ8JKkSu3/gUNxljvNK6yOOTmNAlkQhbL9H3GQaPbwme/8JhDNBPGtt95affbZZ/NuVQkFyOYsjUx0SJdd8riWJhLEbr/99iKH/xRNyRTXVAwWWBSWB+GAuUzQEPkQwzUMo609+/bbb5tuWy9WYNFKaoDkpssupRORzGNR2FgmOXVfFoNin3322UZc5OGccsopuy1K6jrLfObelGIS+7nnnmu8v3VnJnFLsUx02HVOshORPvroo7olLtOSl1HUov8E69CUPiJOIuWFwvu0CAjCKt5www21Y55ilMQ7vyPLonr1+T3dweLDDz9Midn6s05EchcJbSW1rKYotv4/RJmHUB4FsU7WlTUlj0m7ZQ00gD7JMu/adEeHXUtnIhnlAGyesEN8BxAZf+JbcWGJrrvuulppQ1tP2IhuCxnEBbnFmfhXQ2CUugf5mix4LO+8952J9NVXX1WHH354bcpTgg7xmRbNyhiKpwpHkrKGJlGoO2XZHCO17u7jjz+uCT6ElQzyhLPul+7osGvpTCQC2ElkTKcbSSzfTq0klXjHWo1FIkpDdDI2xbPGwo/ObDqRo2Qh0g8//FAzewxfiZKQRAQ6LlJItbgx5AqtPpxZHHLYfiYu5BSGYCHC7/s+k8XIUap0jpKFSAR56qmnaqCGdhy1qiZrFBYi9q2Uttdnlc4888xk4O+mm24azFeiI0Sis1wlG5EIZMQ0ZBcHEPdLBR7t8KGFj9mlxQQjL5lsyROXTz75ZHckPf5f7vcwaxrdxnK1fZ+VSOZq5P4MRSatSpeQcmKvuuqqwVr4ehTNKskjj6cj+Hcsa5/xLXLSzTnnnFOJ7OcsWYlEMP6SHJwhyAR02wXGxShE6saQPkdbMrFKrCSLGRehlD5xc225WXSUu2QnEgGlmJgENEHZZ9eidaeG/JbX+K6tcof+nQaQGi1JU+mjO6YDuqCTLjlH88jXC5HckOnmQAJGF5RbWUZBjtSObaV2awEDJGe14yJoacFiTksKe9eji7g7je/f5X1vRApCcSyteWdWVYppD4Auc/Z/1xHkM/0QR4z5S7mVsYyc8/5DsU2BwBypuQEjmMM+NRgJ+sl17p1IBDVtYYu7Y489tiaBFsmatCWV3/k9YCgBOJZCxSRyL/5RuP48ZY75XVB0qlvW5ZFfXZfByH81NFib+khNGeUiz+x1BiFSuKHJS3tGX3LJJbtJodIq7+A7hCN85nvkYYGsdJAeMi+Tz/bLfII+fbMcJFSfZ555JkCz+yzF1+fqyq9R97YYIR9s+YhNE8W7b5T5xaBEmpWd5bCn0p133lk7gYbEkvTlCRlZmMy00ytL9tZbb1XffPPN7N8bX8s1oujSiUTpKSLNVkyCnFxxqS8IIrSi64MRrGDGgZZFAMscc2az91/P69GItB4h1/Nbe0vrOtp2mzmsyzLXQKSnn356PVUr+rfZiSRlg3m28sK2xSyOQ6sxOSkVNRzeh0POs+O2226rz16H71L/c+1UhJjfsSoWKUUk1hcGOTCCecAfXnRCN3SUu2QjEgA4wBZNijazCFodX6CPQzqrCG1c3nzzzZXwkZq6NgSyNCg3Zu5HJ3RDR3RFZ7lKJyKZtbb3j36bkCofnOO+fRTOOB8qLtaRcdiNeJbpcob6D/lTm1uE/cn7kINOgvNOV3RGd3TYdbOtpYhkSCm3xhAzjLb6Jk4MLLJwOONtfoUEtGiAxf8p5T2SU2Rqux2DDI1xCFnpDI50SJd0umy4YN1EMtKwmI6pHFNZQACADMO4eAwVgIZQxjL3ILfNreJEPMHUEGtb5rpd/kOXdCpGt2g0GePtfWsimaOR96y1DNViFgFDIaktfplqoCz6/1jfIzks42IlB2zH7JaDfnWx65mXa0UkDmywQkN3YfOUTSFGOHHRZSDSmAppkptfQq6Uo1vKXpN0HKyTkV6bspBI4jJSMrT+JnDG+lzr0RWkikBdiTIjv4BiKofKs1RKkpksous4sKjMJZLVovrOMX2heSTVclQ01bpFhH3PAsy7xpDfkQWRTBPFReSe4kqzonRPpnkrh9WlkUh25lCxUkkUCGD0Y+FjXELGYUm+EhLZcCI12Sxg6PuSiB8wxgFcSPmjAfckkfgYJa1NDxVKnVkdlbRvUVzkQZfiK5FTy37llVdiMetJaAQrZRCTwplsUl9SIQsV+heRzBrrwykndcESPyOrdfapYtIXmcZu6WTwoL9UsaPsKuBNRmGLVPbFv4hkjquk7qANcbV0lUytGaO4oR+yF8us+6WAVGqHdWVDr2mL5VvPe9zAkbj8g0jSVinFsZ6Ll/Bb/oU0i1Q6qRGSIGWYFhhSXsDbpKEpxUO8hlxDytTlXrjBZ4ob7W4imRGW37IKJjYFhK6L7HJ3UsXDbSz3odghujn3cC/TOHaFSxVJepQyhDwpzJb9DM64MptFsJtIPPJVrNQsGFoLy9Q0urCWiwXgOKrr7H9zviYHsO1C0pSQZ2qnxCcmtcEB8WE4i3NNJBOfUjK0oDYXKvk3KsjnSK0bYxWEBWwMSonqazSVqz5hBKmrMpyPJ5SDVTLTLpVjVa0/vGDHlQiB1ZpI5niAsGomNkUAdRCkdKSWKgVlSjcx0qNMoLAiy9Tff2AXriElNvYfwj2dPTxGNN5Qepn7peo8xmdkd4Sd3moi8cJ1CWMIlOueKkWZuiwWSYLYPCIF5drFRECTFfFfBGTVAlBNZ7/1H7g5bFghb3pR0aWZH+SABwI658JhyOuodxjBrXGYbA28qkSiaFaFRTEyE8pPxTkWKdgyZlspW0hogtr1kCWc49cyNFk0y6zn7WLbdF/+mtkDoYlVJRTO4A4OrdkbWgsE2JBsznEvFaEEo7HUfFuTEhd9zreBi+7P2RInh0i5zxzLkLXpvroHu4PQg0ahceTAp+9rwJ7Mot1rdlddNacP6cksyLfex7JztmUBiuvwV4Cgu5k9EMX34TB8d4T34b+INfu/QDS/ZeFmh8dNJJr93LbJ4WlKLGDfRMhxfXqggzXplatEJFYIyPaFTEWKZxXjNetCwUZq/CZ53jZMR0YtKufBkriea/O1pM3qKu1hzV8LI5xYxtn3Aqrykvx/FfRCRhvfrwF2FdgffCE716YmPmeV4bXuwpJlw+zgFIdzHySKCekeSO+ewPaa7JYIsTyLikGAOU8DiJK7OtzhWqypHBBymLm+rgFIgBK4KcAXFMNXstyZ8vwn+H9jKwPGQCeT17owXUJqSifUhcU1GlSXUnVELuGMtdKfJRZIJMd53i5jnkIgw9DvAc8i9EXsrtcFPguF5KYapDI3FV2zLtlvSyQTvHXDayUDHkghzhOvuAjA8zvMrwULVCLYTcRTP4QiM7LM8/nEnkq1TORfa6pkCZ8DTpylyfyL38jN5oeU3CAWYUl2XZ4db+dFxZENJgi46JpDfr/XXnuVSySAWQXa1J1xWPXNFDAkaH3eS525Gk0bY7HK/L/S6lwskfgDpjnEa1JFRNikK+D7VOwY11Z33V3THtgCoaLJJdW9SCLpb5n61E4jSMUxNeEJ7DEUPcQ9je5g0LRyQ2YDDErpzoskErPdlH8t4sxS7ckkCkRFJvVkfVPFbiKsUgn+UnFEAp4NIFL7QMttDqt9A9h7+hmRWB4NKC5Gq7IvS+jiiiJSGOqnNp8Coi2Pjc72dPLE9WOhxZpS0yuCrxrf2CGPooik9ZkSSGUV2oWtBMBiJQ/xPjSwpmfOSqQb2yoVRSSjldR2KoJ0pnF8P4TiSryHRiQskFoEKr1l7EZWDJGQBFlSOT4Sx8ZucSWQSxfXtDRd7vSYA5BiiIQoqefOyxsySvsvW6NAYkN9PmJqyTS/ckyMiiASR5FpliAWF6mvACphiBsUOuYZkVINzqoUXd9YcaUiiIQocobibELvmeypW9t7t2+IKMIj8W4mpk7GHNUWQSR9vwy7uIjeItHYQ9sxLVB8b5YZmVKJfQKUY3VvoxMJMLq1VN61zaiQLAbzv/5e95Z6jKj8c0Qao+GNTiStS1KUlRpx8QitsVpYyWRlpQUo43ibgKVcdA1zaPlHJ5IhK/8oBsV768YmIv3fPwrkCN1bvCSdT+lhQGNgVgSR5GHHxShkVTdYCArv6xzcAYHIuGzZsmWUwUkRREo93NguF7q9Mfr7vgiQ67qIxOrM7gQSCCWHaQy/cnQiAUT6aFzEj3R7QMulgD3pOnCzTi8uApOjEUnLH0thAGGO42JPxf/iTH9bssPN47PiwiINHXfDHY1+jcJ4+t44huxOAJLaYc382kSkfzvagWhw27RpU8yjOj13KCIxQO6FSBbZrlmnLqXTag0jKMIyj4RFsD6J5R52nY3LRKRmEtEP3FLPMunbIuGCe+OHw0KEkMG5e+s/yhR6tzpDMNBoyoQpxon1BGvlYrm6wolI8wkTLFB8hlsqEyA3keiZvuleD+G+Fh489NBD/5ob/QeRYssgrcPSGN0PYrkQk+bswkxbF2K5zmSR1k8muPVBJMRxBOIEXQuA2myEkYnnRANn5hIp/MjZBcR3hOJ1PYbtos+6P4fKESAcoVucZ70mIq2fRKFr60KkYGnoKOiLLrz3HeLQ79atW2udxwHjWV6E162JFP4Qn+XH2DnD0NOOsTY1FWHdsGFDLRThQp/KghE8CM2q2bQzLpOPNJ9g8EsRieK5ISwJ3MPh93CHf/B/EVLQ1wICvU2wOCLmbYgT66wzkeILhvdWfUhOtz5N3617tMyIFbOC1pMKzQ3pb+MyEWk5IklVtuoEmZDENBOfBllsiyiXiS48S5eTnErdjXXR9n1vRJongG4S6zn3qdURE5GWI5KMUgmClnMFbO2b0OTXzNPRer8bhUiLhJyItByRFuHa5/cTkfaer7R46F3C+yYfqU+iLLr2RKSJSIs40ur7iUgTkVoRZdGPJiJNRFrEkVbfT0SaiNSKKIt+NBFpItIijrT6fiLSRKRWRFn0o4lIE5EWcaTV9xORJiK1IsqiH01Emoi0iCOtvp+INBGpFVEW/Wgi0goSSUqIlJ2SSpFEkhsjBSIkWpUwv1WKDDCxhU3Tzr9jkatIIsljktwuX2k2KUtabykKHVKOkP4qMU3CoLwi2aollSKJFADyrBHZl5beyLxEJFmVTLuWKRNwXirvkMrOfS91VceQFy/r1KKMZZ6fG/Ds81w0keKK79ixo9q2bVu9DCZs3I5UIX00LERYNXKR16FhhPogke7dQsjt27fHUBT3fqWINIueDEtPiZSqu3nz5jqllBIoRHeIXMFyldYlkpFM5GRxnH1GZosNpSVrNE1PhZrFoZTXK0ukGEBPUeI38K8sKLAVntUQtsrT7SBV8LfC69A9BkuWq3sKRAlJ+LP3nb23vHX7ZLM6dhchf9Nz6eL6lvZ+jyFSCli5ynwKz0CzK5wUXqsvEIwSOa4S5YN14H85WIZwsBiUHx8+d4TfhXPw4ZDJtXXBGzdurBc88PVskKGrklu9a9eulNgr+dkeTaR5GtFt7Ny5s94tjhXje9nhww77uhb7WnpqI+LZas+SdtbDgwY9Z9bndlIxgmJRhCws9vSEbKs5PMXJM0Qk4qcWOMyTbRW/+88SaRWVVbLME5FK1s4KyTYRaYWUVbKoE5FK1s4KyTYRaYWUVbKoE5FK1s4KyTYRaYWUVbKoE5FK1s4KyTYRaYWUVbKoE5FK1s4KyTYRaYWUVbKo/wMO8s6H2SiAdgAAAABJRU5ErkJggg==;" vertex="1" parent="1">
          <mxGeometry x="968.42" y="1330" width="146" height="142" as="geometry"/>
        </mxCell>
        <mxCell id="HDc9Nho8ilmy6_pK3tJT-14" style="edgeStyle=orthogonalEdgeStyle;curved=1;comic=1;orthogonalLoop=1;jettySize=auto;html=1;shadow=0;dashed=1;dashPattern=1 2;strokeColor=#006600;strokeWidth=6;fontFamily=Tahoma;fontSize=25;fontColor=#4D4D4D;entryX=0.696;entryY=1.015;entryDx=0;entryDy=0;entryPerimeter=0;" edge="1" parent="1" source="uaUtL9xpVAdAa3rIVJZg-49" target="uaUtL9xpVAdAa3rIVJZg-20">
          <mxGeometry relative="1" as="geometry">
            <mxPoint x="320" y="400.0000000000001" as="targetPoint"/>
          </mxGeometry>
        </mxCell>
        <mxCell id="HDc9Nho8ilmy6_pK3tJT-24" value="" style="shape=image;verticalLabelPosition=bottom;labelBackgroundColor=#ffffff;verticalAlign=top;aspect=fixed;imageAspect=0;image=data:image/png,iVBORw0KGgoAAAANSUhEUgAAAJMAAACPCAYAAAD+8en1AAAdvklEQVR4Ae1diXdbxbnPX9LYCYQEAiHQAoWyFEqBhgaSFkq6QNvHK+81bekKLYW+btCWV2jfYWnpobR9JYktL/KSOLGdhITEtvZd8r7Eq7wv8r793vmNfFNFurIl617da7875+hIurqaO/N9v5n55ttmC4xiUEAhCmxRqB6jGoMCMMBkgEAxChhgUoyURkUGmAwMKEYBA0yKkdKoyACTgQHFKGCASTFSGhUZYDIwoBgFDDApRkqjIgNMBgYUo4CmYJqa60XXcDVaB/IQ7H4bro6XYWl5DrbWF+HtfB2NfX9Dx6AZQxEXlpbnFOv0RqpocXkOgxNOtA+a0dD7Hrydv4et7QXUNn0fzvZfItD1JloH8wQdJ2d7NO1a1sE0MdOBxvDfcCZwCKXuO1DgzEFJIBdmXy6Kvbko9qy8vNFrpYFc5FmuRlXwYVhbn0ff2AUsLE5pSjS1H76wOI3e0QuwtjyHyuA+HKu7KoFGRaTTCo1IP9Kx1HUHTge/gKbweyCds12yBqbhSR8sLT9GkeMGFHlyYPZGCXC0biuO1K7+yrPlREHmzYXJvhXVoUfR3H8UC4sz2aaXqs9jf1oGjqE6dAD59q0CLAQN+78WjUhHAop05X8KHTfA0vI8hiY8qrY5tnLVwTQ1G4aj7Zcw2XaJ0ZVvz0EqAEpGvKOWrVFiuXNwOvgoekfPxfZnw37uHT2P06EDKHTnCBAds6w+wJLRh9dJX9KZs3q+9RrY236Gydk+1WmjKpjCYxZU+D4V7ZR97dG1GoHifyOoOArz7dvg7vwZ5hcjqhNLjQfMLUbguvRzmBzbxVLPfsX3NZPvBFVZMBcnvPciPG5VowuX61QNTPU976LQuRPFXmVBFE9YLgHl9dtQHTyI6bnw5Y5thA8z8/2oDn5etF8sZTXKAimWVpSvyI/63ndVI40qYPJc+j0KXTkwOdQFUiyxSoO5OOl7ABPT7aoRS8mKJ6Y7cMr/INju2H6o+Zn8IF/IHzWK4mAK9bwjGpyfgtCoNOEoI5z0P4Cp2V41aKVYnVNzfTjpe0gs/0rTYK36yBcCKtD9J8X6I1WkKJg6R06hwLkdJoXlo7UIFPs7AVXlfwKLS/rc6bFd1VSLZHFGiqUPP5M/BY7t6ByqkHCgyLtiYIrMdKDYeZPYjRxRce2PJ0z8d+5kSvy5cLX/RhECKV2Jq+N3on2Z7Gjj+5z295qtKHTnothxEyZmlBMLFAHTMpZxvuEZTaZtOUJyB5Nn24b+MXV3L+kCbXDCgXzbVWLbLtfubF/jLH6u/hsg/5QoioCpa6QaJmcO8qzZE7jXIjw16tW+xwEsKUGnjOsgw7j8lviyJ3CvRaNj1q0ocOWgc7gy4/6xgozBRJtZdeBxMXWv1fhs/k6ln9mzHd0j1YoQKtNKukfOwuy9CpkoI9WgH8FdHXgMi0uzmXYxczANjNuEGl9TGUDOHFOzVSgBaQNcXtZ2dlpaXsQH9U9GB5yG8qQcGMk3mmEGJjIXCTKemWqavivU/3IN1foaFYHH6rZjfLo141GXSQV8/tG6bSnZ2LSgGRWaNc3PZtJF8d+MwLSwNIUSx90ocutHVopnBmUnum1oWXxdr4tZ8kgKRu349mfjO/lX4rgrY5NURmDqGq6EybFNd3JALAO4Y7nQ9C0tsYSLjd/WVK8USw+5z5TjCpzbQH5mUjICU0v4mDAiyjVQL9e4yzQ7Po5JjbTiM/MDKHPfLeQSvdBErh00BpOfmZSMwOTu+I3udnHxhDpmyQGVqMMRfyZ0Wvd/R6eCOFqXqyu1STyN+J2KXvelzBS96wYTd0hnQ0/qWl4ikTiF80XnPC3KcMQL6nP0phKIBxTlJvITGSgw1w0m6iVO+fYLpVd8w/T0nf5B1IgPTbi1wBKGIh4hfBdk0YNiPfSn8vKkd19GNs11g2lhaRonvA/oXhagHqXIm4v+dTqGzS9OCD+pyGwnGAAxtzCWFig56Dydr6LIdY2uZ3Hqmo6779cGTEvLC6j0HxTuDOsZCdn6j/A1t12PsenmNUFAi/7IVAOa+v4u9C6ng4dwwvtplDrvhNlxG0qcd6Dccx+q/Y/jYuNhhHrexlDEmxLAwmMXUeG7Vzf2y3j60y2l0n8AS8vza9Ip2Q3rnploa7rYdFg4+sc3TC/fqWOqDDy4plP95GwXfF1/EN6a79fmiKWbijz+n7IElwCOXL7oo83rBCkZQFmowns/XJdexshUKBmdxXU+50zw80LY1ZvFgFFB5GcmZd1g4kPpYMUwG72AJ7YdZHhV4AAmZ7uT0icycwne7pdhsu6OAseTK4TlVBnN+wgmgor+SSb7Tljavo+RyWDSZ84tTODDxn8XdEv1ObH9Uusz9XHBnj8nbXcqP2QEppb+/CiYdKbZLeaM5N+XFEjLy8uo730PZsctKK9nUEJmETMSg+nFSKaYPdfD2/kaGP8mVyhHnW/8mn4GIn3AArlo7c+Xa27K1zIC0/CkB0WO63Xjn0N9EmPySpy3YmxKXkaanR9GTfN3RKBDoUudWVUoSn25OFv/BEanGmWZMbcwjqrAQV3YNTmYCh27MRTJbMebEZhIpQr3Pl0QhLMD3VGLnLtENKwcB8enW1Dp2y+WJLX1PlzCqAg87r8dDPmSK2NTTSi03yCWyfc19CagfHjC/Rm5JqZ1LWMw+bveEPKGNNVr9l7HCFhGXrwmSwBa7hnDRwZn0+BKRhU7r0f/uE22Xe2DZSj27hCymla0o3wZ7H5Dtn3pXMwYTPT9LrDt0nypo5xU4dkvm+BiZn4IlYHPRoEk5/uk4jXOOFFA7cVwRF4LX9v03aj8pMHsxCWO0dbkY6YlYzCxAdbWF1AWUkf+SGW00lxhsueib+xiAj2oOzpb/1VNrfYEFEd/ufs+zMwPJrSRMXTFzhuhhZacfLO2/CShTeu5oAiYIrMdYu3XghgUurl0nQs9Ldv/QNfbKA9tyyi/QSqATuUe7vTqWn4s204uz5xds6kuEHoz+x7FMqYoAiZSJ9DzZzH6skkMMvCYNQdmzw70j9clMGl0qgEm225NRrwcuBhwwVfP6NmEtjK03WS5AflZsuGJXA3+zHVLsR1RDExLS3PC6szRJ0dIta5RHqn2Pxbbp8ufaxqf1Z35gstdpe+ArA7K1vZi1uQ68uls6CksKRBIIBFcMTCxQmqby1x3wswdk4pCrVT30dqoXqltoEjqz+X3kYgPhQ7tNwZSW6X3Y3U5MDm3yno19o/VocCxA3k29RJYsB0EdJnrbkzOJLcOXCZkGh8UBROfSye0EtdtWQEUiW6yXYvxmcSAAWf7r3U3K0mA4mz6QeipBDZxs0DLvZo+9Rzo5M9wJJDw/EwvKA6mKKB8qPB/SvUdFE0A5+r/DctxgZYLi5ModX1Ct+4xzEZS5NiDsemmBP4x25sAkwomKtoPyZehCW/Cc5W4oAqY2LDITJcwJ0i2L2lUKvlOv2Vb20sJdAiP1wpXWaoMlHyeknWRsU3hfya0/dLQceGloORGhrokqgDOhp4QfEl4qEIXVAMT28ccje7OV1Do2CkES8XCx6nt9uQKoncMlSeQwtv1utCGK8kQJYHEuqjOcLT/PKHt9Dg4Vhf1Xsj0maQ3n1No3wlP528UidpNaHDMBVXBJD2HqYfPNX4N+baojxBtaOtJt8egyiL3ShZe151o6P2HrMZbhBZleVeZLuOp4znhSfRsnJrrQb5lt4j6YX/THRCkK+lLIZv0Pt/4dQyMOyVWqPqeFTBJPaC3YV3rd1Bg23PZB4jyAV03aHhNeDGxwkpqZ8pHJtsOVAUeRUPvXzE9NyBVe8U7PUBPB76gG+NzMpBx6Smw7sbswnBC+1sHilAVfETs7ITA7I9mJs5bCUyIpxPpR28JLvv0rSJ9SWfSO5slq2CSOkZf6ubwEdjbXkCV/yBM1uvECOQo5MgS7ysCaLn7XtS1PCuSzA9GnFheXpSqkX2fWxzHSd8+qOVekgwc6V4XYLJdD8bVyRXmJxiKOOHv+h/UNB8WppijtVFNfjyd6NxX5TsIe/sLgq6krxZFEzDFd3R2fgSR2XbhoTgc8WBkKoCJmTYROLm4lN7JBLR9lbk/qdudnAQ6YWC17k45qSt9s5lecXymWahfGPUyOhVCZKYdcwuj8STV5LtqYFpeXhBZybj9pd/O6FQThie9GJhwiOMbKEcNTriEQz6FThKGr5HJkPCllr4PT/qF01b0fv4n+uLvE9NtCWqB2YUhcDaj37bEOD2+S2CaksnPPTbdgqHJf9GJTmukg0Qn+pqTThKNeJ2BDaSnRB/SmfQm3Ul/8oFZ4sgXtYqCYFrGzEIY9T1/hbvz1zgT/CLyLDuuELTFWp9k3Y+XA9b6ThuWyXI95hZHrqANfaxP+h4Wafb0CCKpTdIyNx23zNEsVe2PBh2sRYNVf48L/KT4QH6QL57OX6O+5z3Br0yCLq8gvBLJvqbn+tAcfh9nQodgdkUFa+blppaXW9NVOywndKd4jYK5yboL3P3EFspUDFGiBV5inB7fJTDNLlw5GCiQ01Wl2KM87cgP8oX8oaBOfp0JHkJT+H2Qj5mWdc9MPOiFuovj3juE2YLndZBA6W5l18to7mDyLDsxJuNjXdP8XdW17+ttt/Q/LsMVnocSdD8Mhyq03aR6DnXyifwi32j0JR89na9k5I6SNpjm5iMI9b6FEvfNwv7GGUIiUDbfOeNRj9I2aE4YUP7uN8RWOVvAXk+/qepwtv8qoe0jkz7kWZVRWqbTLvKRuinyNdj7NuYW0j8+JC0w0WeoKrhPPDSbpw8kIwpNEjxkJr4MTNijmdr0ak6p2wqzPwfN4aPxTUf7gFksQVoNBPKVoCKfwzI+YgkNjrmQEpgoFPq73xJKNK65WnU0HlQ0FZyv/zqWcaXuaWFpBmXc0Wk0a8a3M/67MPTa98r6XVtafqiq10B8W+S+k7+MWDbZr4av602Q/6mUNcHE05KoNCOI9DAbxXaeAqXJfg0mZloS+srUf5y5Yu/Xy2fS8nz9MwltZjIQCt9quqCkQwPym2292PRNzKew7K0KJkZ1nA48IQQ0yijpNCQb93IEcdfDyOL4Qt1KgW237gYAk4/xYMK+0Q/jmyzi/QqdO0CzSTbol8ozyHeuAKeDT4ABrKuVpGDijMTkT5T09bKsyXWeI+eU76BsH60tLwhCyP1Pq2u0tZ0OfFE220hd8/O6ay/pRP5H3XyfXDWJqiyYGIt/ofE7KPHrI6pjNcZzFHM0y+VfEue52PcKgXa1OrL1G7fi+bbtsm3lYc35Fh2F2se5XRNQnKGIC+JDrsiCyd/5hlgrRT7IuEqzRfiUn7MS6vRBvXyoE3dMnL20XqYlZtCdWK64On4rdlHZjDZOmcYrGCAeSMtA55tyXUg8oSA8VgOTfbvmEbrpdJQelTxetW+0JqGT1IhfaDgssp2kU6eS9zIIk6OaHhJyx7/SWGt27hXnzyj5XDXq4uxqsl8F4iS+XDEzsaPHPQ+KbaEaDVGzTo6Yk56HsbicuI0V8l+9Nme8iWhef/Q4rpHJ+nj6i+8XGg/rJ71OCisRaX3C8yCYojG2XAGmQPcbYjutZ4E7KSCFbiQHng75xBXTc4MiM1y2NxSckY57b8VwRD4BWPtAKYq9V2uauCIpTZMBiwJ5MBeBriuTXVwGEw19+dbrdLeVTqejnIKL3TvBY93lCt09aDWnR6La22/KaCT4qeD9SDYj0a5YaN8j3GU4g6XTV63vpQ6KTnk8IlYql8HkvvSqEAA35KwkjSAm+3LnoNR1W9JkX/OLk3B2/Jc4FIdGTjUEXlrkmfvyQtMziCRJg8hkX5W+R4RAqzUw1vN84oRmF3fH7yQsRQXwmbkBFNtv0b1DWaqdFvKT/wGMr5Jht32wFMe99wqCkPmZDiL+n6OVy6jZdYtIc0jXW7lCZfCZ+i/pUqeUKo15H81VRbaPYnq+X3RTzEwdgyViJGVK0HQaosq9K24VXF7M3hzw+LJkDGXvZxdG4e9+E+Weu4QmnZZ8mmhSjZzhfVzOhLVdhBTdCM+ll8HEq8nLMjydvxO6L7aTDNmodGe7OQMTPywCTB+Evrphp1sJlFzeOCMV2/fC1vZTITdxKUnl/Nm5xTE0hf+BmpZncKw2qhZhXQQXBWhqrfldAg2v8zNDivj8c41fRrDnLZF0PjmI/vULd0FDERdcHa+g3H23cJdh/RsRVGw38SPARM++YsdtutESS+BI9V1aWir896Gh7y+gJjmTQj/p8HgN6lp+hAtNT+N8w9M4E/wKqvyfw5ngl8T3D5uexoXGb6FzuEIcjLja7LdWW7jkdQwxtGm/kPd4qrcaclyq9Ez3PooIxfZbRcjWlvC4RRgetdYQp9sJLkecHYocN6Mh/C5m1jBCrsVUrX9nOmce0XXcc5/oF3em6dJEi/uJG7a1f9yCLU3hIxtKYUaCcZ0mmOpafijrE5QMGAyD4ulOrf0m0Hzh7PgF7G0vwdr6E/lXS/Q6l03eZ2v9afS+lety/7O3vyTCvmk2oW88o0WYyGuteD+pzQz7cne8ApP1Gl2f/hALXC77xNEWS8tzIuQ69ke9fqZMwdmozHs7mOAhlcIDqev7/oSzoa+g0HYj8q07xUii8MtkDtQ58bOSL1FvaCUK17IDRY4bURX4HAI9r6Nv7BxSiQVkuufj7k8LmU3vqwZD9i0tP8KWk97Pbgg7nEg36MvFucYnRfzXakCanutHQ++7OOV9BPnWq8V2nQI65SspFD0bA0aEF9nov5QT3b0FaHD+CE54H4Sv67U1nfcZXGlt+4EwbzHvQDbavJ5nsH+nfJ/FFrPjVpEXcj2VZOs/UsIKZvWl0jFZ4VafJqHj3uhWn5lS9MYEDgoqS+kWW+zcC3v7zzA505msS+K659KrMDmisgkTwmaL7qk+h94EZuet2GKyXJeyXiXVypW8LwqkHPg6/7AqwTuGSlHh/6RYBrnDULINatXFmZLLbInzY+IQnKWl5MdzNfS9J2Y4PQrmFD+Ioy1HavVLeLqWEBieS/+dFEhTc/2oaf2mEMq5lG1EXQ0Vl9SccwlnaHiy0tj3dxQ4mSpHjzzLIZj0N22yTZKwbUmSN5sE7x+z4rjnXjG69ZwlLhUaS/0t9dyM9oGoRlkOVDzGi+lz1DZUp9Lm+Ht0Cybu2s6GvoyFpSk5mqJj8ARK3HtRovMw8HiCr/WdSstC5zbU9/5Vtt+8aG39qS59zvQHJmH5z0Wp+/Yr3BtiKdvaXyhi+IS2WKcz61qgWe13ykUU0nnIkVyhs99J3/6ooVhHArnuwMTpu8C5HZ3Dp+ToiO6RahErp/eUOauBJZXfBKDcOWjo/ZssHUYnG2B27dWV/5nuwETlYV3L87IEZI4hs3uvkBn0uEVOBSQp31MTzU1pcuSiY1BeQRvqfkfsXvWy6dAVmGgmKfPIL29Ts2GUuu4SxNtoXokpA0hmyeZu1uy6STZn+NLyHKr8B0Rm4UyeodR/dQMmji66MzT0vic7KzFAkbOWUh3fSPXQDabaf0g2cLN75Azy7dqHcpGeugETZaBSx11gvH186R4+jXzbVl1uh7MByn8NtET5SSQ3C3xZF8nNdAMmqgLqe96Nx5GIM6vwfmbDO+9lCjoOtiL7R0WS1HgidY9wsEUzzWX6nEz+rwswUQNsdt4im3mW7iIbVbOdCWPk/ktXD7rOxBemvGEWOq3TVesCTNToWpp/FE8jcVzGCfdD0d2bjHAqR/DNfI2DrthxM6ZkvEmD3X9GiU9bM4vmYKI8QCL1ycS6dQ1Xo9C1TfM8AXoCKDcptNHFF6ZxLrBep6k7keZgEkZO152ymfotzT/c8OFASgORYDrp3R+PJfG90ndQU+9MzcFEOeBi07cTiMPEUgXWGzUdaUoDQYn6hEuOc5fwuY4nmrPj5WjWORXOqkul7ZqCiUschetAd2KKlt6x8zhmUT+MOxUi6eqemq043rANjX3/G48lkdCUZhit3Hw1BZMIeKzdhr6xCwmEcbb/0ljikmw6mHrxYuO3EoIUmNPgaN02zZJgaAomjqJ8y7Wy3gFMM0MvRF3NCkmYm+020kOzyHYz5heuTGnDMP9yHkKkkaeppmAiUUqcn0jwWeLBx9WBxzQVJrMNkHSeR7oVWPckgCmaPvI/NZvRNQUTjZinfI8khP7wtKYC6w2G8J1kJqQQnm/ZhXEZF19r64uazejagsmdg9OBQwlr/3DEh6N1H8FRi7ZKuHRmi2zeK8ma4fFEWZOBoloZxLfQ7UOcmavBdpLBex/UM+nBldlbhyZcwumLu71sMmmjPIv+7ozJY0ROfKFLbzbBJCmduSnYcjr4BRQ59ogtOiMkqEQUjc0CIxnX9mFDYqZ+HrxHucAAk/xgkuL7GX4eX7IFJraBrsVUopqdH0eg681oSh2uvU19/4St7ccoc92NPOv2yxGoajJVgKnRAFO6M6JWYIrqBaNphuhDVRV8FI3hv1820F9OQyghnDmNRib94qDhC03fQLHjFoFAGmPJfKJRqShZA0zyM89a4MommDiZcPbhMsYN00n/p0UCj8GIVRjiJdzwPQFMsT/yc2SmU+Qr8nX9EZW+Azjp+4w4nrM8FD30jg/gAy/706SxPBpg0g+YOOtQsCcvKerQu5MJOArse1Dp3w/Ppd8iPFYHZmlJVtYEk9wfmVmkZeAogj1vo8K7DwW2vci37hKCPBtBAZDvbBRnMcbXU2Bkg4UctAI4A0xZBNMK7UXqROtWwRdp1qFymM6J1J4zU0yp604BHvJ4dKpBDgKy19YFptiaeEQ647jGp5tEsip3x6twtP8KFxr/QwQAmCzXih1Zni2aQJQzmVgyvbmobN0uUt3E1sfPhgC+OshWW+bqWp5DVft2AQ4CRCTI8FI8yRGaca4g79fy8OdrRVLcs6Evwdn2C/BINaa85oHZC4vyga/xfIr/njGY4iuM/c4UezwMZ3SqUdjfWgfyweWSibNqm76Hc/VPwt/1x9i/iM8GmNYPJtL3bPNDqA48jrPBp3Ch8ZsiKZqt9UVhUKeLL/nBM5aZFz3VJGQJTJK5oCqYZJ6X0iUDTOsHE8Pp5xeSpx1KiQHrvMkAUxKTxVo7Ki1/X22ZWycOFPmbASYDTIoAiZUYYDLAZIBJy2VG62cby1wa+DcE8PUL4GmQWfFbjWXOWOYUA5UBJgNMBpi0llu0fL4hM6WBf0NmMmSmNOCy+q0GmAwwrY6QNH41wGSAKQ24rH6rASYDTKsjJI1fDTCtDSYGWsplQ0mDzIrfqkvVQP+4FRXN24S7qAjrsaxOXC13Vtl+NndyDPygY1v7gFlxQGRSoS7BxCO+6Od0JnQIeZarhAcnvTfpWBfrqZltRmr5PIKHGWPoyH++6Su4NHQCS0sLmfBe8f/qEkxSL+nFOTXXg7b+fNQ0HxbnpNCxnV6DDGwguDb6mSnJAEr3WpHHUoQT5aDE/THh5DY06cKizkAk8UvXYJIaKb3Pzg+hf6IWoe4/oSrwGMrd94j0MZz2GUFBn3MppYyYwTaQdltSRBJAkv98mesOnA09ic7h42scby9RSNv3DQWmeFIxCwiPv6AgerHxMEpd98Bk2y0ARv9ngowzWCzAtAYZn88XZ1QuXWwnwcNjPkzW63DCfT9cHS+jfbAMPFN4I5UNDaZ4QjOH+NRcNzqGyuG99HvUtXwPlf4DKLLfLKJjyDwujYyKIROlpZLXhaCfRphWsuVJui7AsnKcKp8jOfZz5uHzjtTmwuy4HecanhIHPLcPmjE5250QixbfRz1/31RgkiM0AUYmDUW84pDoYPfbqG3+gUiYccr3MMpc96DQthdH67hURpcYEdXByA5fdPkUQYgiEDEKQIJDuhZ7Lz9zluE7Z59C2x6Uue8B85ifDj6GmqZnUd/zDnpGz4CJuabEqeJX5lmQ68NGubbpwbQaIyjgM4KGp09SHdE1cgptg0VoDh8RpymFet6Bt/M1MIudre0l8KT12ubvoa75B+K4eZ7QGeh+C6Gev4jz4ZrC/0BLfx46BsvRO3pRnHfC+heXZldrxqb57f81mDYNF3XSEQNMOmHEZmiGAabNwEWd9MEAk04YsRmaYYBpM3BRJ30wwKQTRmyGZhhg2gxc1EkfDDDphBGboRkGmDYDF3XSBwNMOmHEZmiGAabNwEWd9OH/ANAUD4wv+etuAAAAAElFTkSuQmCC;" vertex="1" parent="1">
          <mxGeometry x="431.5" y="1354.72" width="147" height="143" as="geometry"/>
        </mxCell>
      </root>
    </mxGraphModel>
  </diagram>
</mxfile>
